<svg xmlns="http://www.w3.org/2000/svg" width="81.643" height="74.264" viewBox="0 0 81.643 74.264">
    <path fill="#c3c3c3" d="M232.185 33.21l-10.549-8.53a3.19 3.19 0 0 0 .094-.74V6.3a3.134 3.134 0 0 0-3.13-3.139h-10.918a3.136 3.136 0 0 0-3.135 3.139v4.566L194.5 2.737a3.141 3.141 0 0 0-3.943 0L152.868 33.21a3.136 3.136 0 0 0 1.973 5.573h8.359v30.756a6.775 6.775 0 0 0 6.766 6.766h15.677a3.136 3.136 0 0 0 3.134-3.134V55.779h7.5v17.392a3.136 3.136 0 0 0 3.134 3.134h15.675a6.775 6.775 0 0 0 6.766-6.766V38.783h8.361a3.135 3.135 0 0 0 1.971-5.573M210.816 9.43h4.645v10.258l-4.645-3.757zm4.769 60.109a.5.5 0 0 1-.5.5h-12.54v-15.46a5.076 5.076 0 0 0-5.072-5.07h-9.9a5.074 5.074 0 0 0-5.07 5.07v15.457h-12.535a.5.5 0 0 1-.5-.5V35.649a3.134 3.134 0 0 0-3.134-3.134H163.7l28.828-23.309 28.825 23.308h-2.633a3.134 3.134 0 0 0-3.134 3.134z" transform="translate(-151.706 -2.041)"/>
</svg>
