<svg xmlns="http://www.w3.org/2000/svg" width="80.097" height="70.487" viewBox="0 0 80.097 70.487">
    <path fill="#c3c3c3" d="M517.673 148.487h-64.8a2.877 2.877 0 0 1 0-5.754h6.674v-27.078a2.874 2.874 0 0 1 2.874-2.877h12.733a2.875 2.875 0 0 1 2.874 2.877v27.078h2.78V102.2a2.875 2.875 0 0 1 2.875-2.877h12.731a2.875 2.875 0 0 1 2.874 2.877v40.538h2.78v-33.852a2.877 2.877 0 0 1 2.875-2.877h12.731a2.876 2.876 0 0 1 2.874 2.877v33.847h6.676a2.877 2.877 0 0 1 0 5.754zm-52.373-5.752h6.984v-24.2H465.3zm42.52 0h6.98v-30.973h-6.982zm-21.259 0h6.985v-37.66h-6.985zm20.819-41.869l-18.137-16.187-19.353 16.241a2.876 2.876 0 0 1-3.694-4.408l21.261-17.841a2.873 2.873 0 0 1 3.76.057l17.962 16.03 8.436-8.443h-3.669a2.877 2.877 0 0 1 0-5.754h10.843a2.877 2.877 0 0 1 2.874 2.877v10.855a2.874 2.874 0 1 1-5.748 0v-4.142l-10.592 10.6a2.87 2.87 0 0 1-3.945.113z" transform="translate(-450 -78)"/>
</svg>
