<svg width="90" height="91" viewBox="0 0 90 91" fill="none" xmlns="http://www.w3.org/2000/svg">
<path d="M0 10.5C0 4.97715 4.47715 0.5 10 0.5H43V43.5H0V10.5Z" fill="url(#paint0_linear)"/>
<path d="M0 43.5H43V86.5H10C4.47715 86.5 0 82.0228 0 76.5V43.5Z" fill="url(#paint1_linear)"/>
<path d="M43 0.5H76C81.5228 0.5 86 4.97715 86 10.5V43.5H43V0.5Z" fill="url(#paint2_linear)"/>
<path d="M39 50.5C39 44.4249 43.9249 39.5 50 39.5H79C85.0751 39.5 90 44.4249 90 50.5V79.5C90 85.5751 85.0751 90.5 79 90.5H50C43.9249 90.5 39 85.5751 39 79.5V50.5Z" fill="url(#paint3_linear)"/>
<path fill-rule="evenodd" clip-rule="evenodd" d="M24 15C24 13.6193 22.8807 12.5 21.5 12.5C20.1193 12.5 19 13.6193 19 15V19.5H14.5C13.1193 19.5 12 20.6193 12 22C12 23.3807 13.1193 24.5 14.5 24.5H19V29C19 30.3807 20.1193 31.5 21.5 31.5C22.8807 31.5 24 30.3807 24 29V24.5H28.5C29.8807 24.5 31 23.3807 31 22C31 20.6193 29.8807 19.5 28.5 19.5H24V15Z" fill="white"/>
<path fill-rule="evenodd" clip-rule="evenodd" d="M28.2175 61.818C29.1938 60.8417 29.1938 59.2588 28.2175 58.2825C27.2412 57.3061 25.6583 57.3061 24.682 58.2825L21.5 61.4644L18.318 58.2825C17.3417 57.3061 15.7588 57.3061 14.7825 58.2825C13.8062 59.2588 13.8062 60.8417 14.7825 61.818L17.9645 65L14.7825 68.1819C13.8062 69.1583 13.8062 70.7412 14.7825 71.7175C15.7588 72.6938 17.3417 72.6938 18.318 71.7175L21.5 68.5355L24.682 71.7175C25.6583 72.6938 27.2412 72.6938 28.2175 71.7175C29.1938 70.7412 29.1938 69.1583 28.2175 68.182L25.0355 65L28.2175 61.818Z" fill="white"/>
<path fill-rule="evenodd" clip-rule="evenodd" d="M56.6315 56.4022C54.9772 56.3991 53.6387 57.7376 53.6418 59.3919C53.6449 61.0462 54.9885 62.3898 56.6428 62.3929L73.4169 62.4245C75.0712 62.4276 76.4097 61.089 76.4066 59.4347C76.4035 57.7804 75.0599 56.4368 73.4056 56.4337L56.6315 56.4022ZM56.6539 68.3836C54.9996 68.3805 53.6611 69.719 53.6642 71.3733C53.6673 73.0276 55.0109 74.3712 56.6652 74.3743L73.4393 74.4059C75.0936 74.409 76.4322 73.0704 76.4291 71.4161C76.426 69.7618 75.0824 68.4182 73.4281 68.4151L56.6539 68.3836Z" fill="white"/>
<path d="M55 22C55 20.6193 56.1193 19.5 57.5 19.5H71.5C72.8807 19.5 74 20.6193 74 22C74 23.3807 72.8807 24.5 71.5 24.5H57.5C56.1193 24.5 55 23.3807 55 22Z" fill="white"/>
<defs>
<linearGradient id="paint0_linear" x1="21.5" y1="0.5" x2="21.5" y2="43.5" gradientUnits="userSpaceOnUse">
<stop stop-color="#BDBCBC"/>
<stop offset="1" stop-color="#818181"/>
</linearGradient>
<linearGradient id="paint1_linear" x1="21.5" y1="43.5" x2="21.5" y2="86.5" gradientUnits="userSpaceOnUse">
<stop stop-color="#555555"/>
<stop offset="1" stop-color="#313131"/>
</linearGradient>
<linearGradient id="paint2_linear" x1="64.5" y1="0.5" x2="64.5" y2="43.5" gradientUnits="userSpaceOnUse">
<stop stop-color="#767676"/>
<stop offset="1" stop-color="#5A5A5A"/>
</linearGradient>
<linearGradient id="paint3_linear" x1="64.5" y1="39.5" x2="64.5" y2="90.5" gradientUnits="userSpaceOnUse">
<stop stop-color="#73FFEE"/>
<stop offset="1" stop-color="#25D9C3"/>
</linearGradient>
</defs>
</svg>
