<svg width="70" height="70" viewBox="0 0 70 70" fill="none" xmlns="http://www.w3.org/2000/svg">
<path d="M0 15.9091C0 7.12274 7.12274 0 15.9091 0H54.0909C62.8773 0 70 7.12274 70 15.9091V54.0909C70 62.8773 62.8773 70 54.0909 70H15.9091C7.12274 70 0 62.8773 0 54.0909V15.9091Z" fill="url(#paint0_linear)"/>
<path d="M28.2192 20.5831C27.8611 20.7846 27.5631 21.0751 27.355 21.4256L25.4626 24.6137C25.2074 25.0454 25.1009 25.5467 25.159 26.0429H31.4596L28.2192 20.5831Z" fill="#CCE1F5"/>
<path d="M25.1599 26.0428C25.2115 26.5064 25.4044 26.9438 25.7132 27.2974L33.0971 35.7352C33.4607 36.1485 33.9623 36.4205 34.5115 36.5022L31.4603 26.0428H25.1599Z" fill="#85B9E4"/>
<path d="M44.6053 26.0429C44.6632 25.5468 44.5567 25.0456 44.3017 24.6139L42.4095 21.4256C42.2014 21.0751 41.9034 20.7846 41.5453 20.5831L38.3049 26.0429H44.6053Z" fill="#CCE1F5"/>
<path d="M38.3052 26.0424L34.8826 20.276L31.4597 26.0424H38.3052Z" fill="#CCE1F5"/>
<path d="M38.3051 26.0428L35.2539 36.5022C35.8032 36.4201 36.3047 36.148 36.6683 35.7346L44.0524 27.2974C44.3606 26.9434 44.5534 26.5062 44.6057 26.0428H38.3051Z" fill="#85B9E4"/>
<path d="M41.5451 20.583C41.1888 20.382 40.7852 20.2762 40.3744 20.2762H34.8821L38.3049 26.0426L41.5451 20.583Z" fill="#ABCFEE"/>
<path d="M34.8831 20.2762H29.3899C28.9792 20.2762 28.5756 20.382 28.2192 20.583L31.4596 26.0426L34.8831 20.2762Z" fill="#ABCFEE"/>
<path d="M31.4597 26.0428L34.5109 36.5022C34.7568 36.54 35.0072 36.54 35.2532 36.5022L38.3052 26.0428H31.4597Z" fill="#ABCFEE"/>
<g opacity="0.06">
<g opacity="0.06">
<g opacity="0.06">
<path opacity="0.06" d="M44.3017 24.6136L42.4095 21.4255C42.2017 21.0759 41.9045 20.7859 41.5475 20.5842C41.1906 20.3826 40.7862 20.2765 40.3746 20.2762H36.2715C36.6831 20.2765 37.0874 20.3826 37.4444 20.5842C37.8014 20.7859 38.0986 21.0759 38.3064 21.4255L40.198 24.6136C40.4435 25.0313 40.5513 25.5136 40.5066 25.9942C40.4618 26.4747 40.2668 26.9297 39.9483 27.2966L32.8311 35.4313L33.0969 35.7352C33.4603 36.1483 33.9616 36.4202 34.5106 36.502C34.7568 36.5405 35.0076 36.5405 35.2537 36.502C35.8029 36.4201 36.3043 36.1482 36.6681 35.7352L44.0528 27.2966C44.3714 26.9297 44.5664 26.4747 44.6111 25.9942C44.6559 25.5136 44.5481 25.0313 44.3026 24.6136" fill="#070203"/>
</g>
</g>
</g>
<path d="M16.3514 30.9777L17.9889 31.5156C18.0729 31.543 18.1459 31.5958 18.1976 31.6664C18.2494 31.737 18.2773 31.8218 18.2773 31.9089C18.2773 31.9959 18.2494 32.0808 18.1976 32.1514C18.1459 32.222 18.0729 32.2747 17.9889 32.3022L16.3514 32.8417C16.2897 32.862 16.2335 32.896 16.1874 32.9413C16.1412 32.9865 16.1064 33.0416 16.0856 33.1023L15.539 34.7146C15.5109 34.7971 15.4572 34.8687 15.3855 34.9195C15.3138 34.9702 15.2277 34.9975 15.1394 34.9975C15.051 34.9975 14.9649 34.9702 14.8932 34.9195C14.8215 34.8687 14.7678 34.7971 14.7397 34.7146L14.1931 33.1023C14.1724 33.0415 14.1375 32.9862 14.0912 32.941C14.045 32.8958 13.9886 32.8618 13.9267 32.8417L12.2883 32.3032C12.2044 32.2758 12.1314 32.223 12.0796 32.1524C12.0279 32.0818 12 31.997 12 31.9099C12 31.8229 12.0279 31.738 12.0796 31.6674C12.1314 31.5968 12.2044 31.5441 12.2883 31.5166L13.9267 30.9787C13.9886 30.9585 14.0449 30.9243 14.0911 30.8789C14.1372 30.8335 14.172 30.7781 14.1925 30.7171L14.7391 29.1048C14.7672 29.0224 14.8209 28.9507 14.8926 28.9C14.9643 28.8492 15.0504 28.8219 15.1387 28.8219C15.2271 28.8219 15.3132 28.8492 15.3849 28.9C15.4566 28.9507 15.5103 29.0224 15.5384 29.1048L16.0856 30.7161C16.1063 30.777 16.1412 30.8324 16.1875 30.8779C16.2338 30.9233 16.2902 30.9575 16.3523 30.9777" fill="#F3C976"/>
<path d="M30.1376 12.1577L31.776 12.6956C31.8597 12.7233 31.9325 12.7761 31.9841 12.8467C32.0356 12.9173 32.0634 13.002 32.0634 13.0889C32.0634 13.1758 32.0356 13.2606 31.9841 13.3311C31.9325 13.4017 31.8597 13.4545 31.776 13.4822L30.1376 14.0207C30.0758 14.0409 30.0196 14.075 29.9736 14.1204C29.9275 14.1657 29.8928 14.2209 29.8722 14.2817L29.325 15.8941C29.2971 15.9767 29.2435 16.0485 29.1717 16.0995C29.1 16.1504 29.0138 16.1778 28.9254 16.1778C28.8369 16.1778 28.7507 16.1504 28.679 16.0995C28.6072 16.0485 28.5536 15.9767 28.5257 15.8941L27.9791 14.2817C27.9584 14.2208 27.9236 14.1655 27.8773 14.1202C27.831 14.0749 27.7747 14.0408 27.7126 14.0207L26.0752 13.4828C25.9911 13.4555 25.918 13.4028 25.8661 13.3321C25.8143 13.2615 25.7864 13.1766 25.7864 13.0895C25.7864 13.0024 25.8143 12.9175 25.8661 12.8469C25.918 12.7763 25.9911 12.7236 26.0752 12.6962L27.7126 12.1583C27.7747 12.138 27.8311 12.1037 27.8772 12.0581C27.9234 12.0126 27.9581 11.957 27.9785 11.8959L28.5251 10.2838C28.553 10.2012 28.6066 10.1293 28.6783 10.0783C28.7501 10.0274 28.8363 10 28.9247 10C29.0132 10 29.0994 10.0274 29.1711 10.0783C29.2429 10.1293 29.2965 10.2012 29.3244 10.2838L29.8722 11.8952C29.8926 11.9564 29.9273 12.012 29.9735 12.0575C30.0196 12.1031 30.076 12.1374 30.1381 12.1577" fill="#F3C976"/>
<path d="M52.5237 28.9333L54.162 29.4719C54.2457 29.4995 54.3185 29.5524 54.3701 29.6229C54.4217 29.6935 54.4494 29.7782 54.4494 29.8652C54.4494 29.9521 54.4217 30.0368 54.3701 30.1074C54.3185 30.1779 54.2457 30.2308 54.162 30.2584L52.5237 30.797C52.4617 30.8172 52.4054 30.8514 52.3592 30.8969C52.313 30.9423 52.2783 30.9978 52.2578 31.0588L51.7106 32.6711C51.6825 32.7535 51.6288 32.8252 51.5571 32.8759C51.4854 32.9267 51.3993 32.954 51.311 32.954C51.2226 32.954 51.1365 32.9267 51.0648 32.8759C50.9931 32.8252 50.9394 32.7535 50.9113 32.6711L50.3656 31.0588C50.3448 30.9978 50.3099 30.9424 50.2636 30.897C50.2173 30.8516 50.1609 30.8174 50.0989 30.7972L48.4614 30.2586C48.3774 30.2313 48.3042 30.1786 48.2524 30.108C48.2005 30.0374 48.1726 29.9525 48.1726 29.8654C48.1726 29.7782 48.2005 29.6933 48.2524 29.6227C48.3042 29.5521 48.3774 29.4994 48.4614 29.4721L50.0989 28.9335C50.1608 28.9133 50.2172 28.8792 50.2635 28.8339C50.3097 28.7886 50.3447 28.7334 50.3656 28.6725L50.9113 27.0602C50.9391 26.9775 50.9927 26.9055 51.0644 26.8545C51.1362 26.8035 51.2224 26.776 51.311 26.776C51.3995 26.776 51.4857 26.8035 51.5575 26.8545C51.6292 26.9055 51.6828 26.9775 51.7106 27.0602L52.2578 28.6725C52.2784 28.7334 52.3132 28.7887 52.3594 28.834C52.4055 28.8793 52.4618 28.9134 52.5237 28.9335" fill="#F3C976"/>
<path d="M56.9744 19.6503C56.9744 19.8595 56.9114 20.064 56.7933 20.238C56.6752 20.4119 56.5074 20.5475 56.311 20.6275C56.1146 20.7076 55.8985 20.7285 55.69 20.6877C55.4815 20.6469 55.29 20.5462 55.1397 20.3982C54.9894 20.2503 54.8871 20.0619 54.8456 19.8567C54.8041 19.6515 54.8254 19.4388 54.9068 19.2456C54.9881 19.0523 55.1259 18.8871 55.3026 18.7709C55.4793 18.6547 55.6871 18.5927 55.8997 18.5927C56.0409 18.5926 56.1806 18.6199 56.3111 18.6731C56.4415 18.7262 56.56 18.8041 56.6598 18.9023C56.7596 19.0005 56.8388 19.1172 56.8927 19.2455C56.9467 19.3739 56.9745 19.5114 56.9744 19.6503Z" fill="#A6D9E7"/>
<path d="M59.4688 39.2907C59.4688 39.4999 59.4058 39.7044 59.2877 39.8783C59.1696 40.0523 59.0018 40.1878 58.8054 40.2679C58.609 40.348 58.3929 40.3689 58.1844 40.3281C57.9759 40.2873 57.7844 40.1865 57.6341 40.0386C57.4838 39.8907 57.3815 39.7022 57.34 39.4971C57.2985 39.2919 57.3198 39.0792 57.4011 38.886C57.4825 38.6927 57.6202 38.5275 57.797 38.4113C57.9737 38.2951 58.1815 38.233 58.3941 38.233C58.5352 38.233 58.675 38.2603 58.8054 38.3134C58.9359 38.3666 59.0544 38.4445 59.1542 38.5427C59.254 38.6409 59.3331 38.7575 59.3871 38.8859C59.4411 39.0142 59.4689 39.1518 59.4688 39.2907Z" fill="#A6D9E7"/>
<path d="M18.3077 19.6503C18.3077 19.8595 18.2447 20.064 18.1266 20.238C18.0085 20.4119 17.8406 20.5475 17.6442 20.6275C17.4479 20.7076 17.2318 20.7285 17.0233 20.6877C16.8148 20.6469 16.6233 20.5462 16.473 20.3982C16.3227 20.2503 16.2203 20.0619 16.1789 19.8567C16.1374 19.6515 16.1587 19.4388 16.24 19.2456C16.3214 19.0523 16.4591 18.8871 16.6359 18.7709C16.8126 18.6547 17.0204 18.5927 17.233 18.5927C17.518 18.5927 17.7914 18.7041 17.9929 18.9024C18.1945 19.1008 18.3077 19.3698 18.3077 19.6503Z" fill="#A6D9E7"/>
<path d="M44.5011 15.1494C44.5011 15.3586 44.438 15.563 44.3199 15.737C44.2018 15.9109 44.034 16.0465 43.8376 16.1265C43.6412 16.2066 43.4251 16.2275 43.2166 16.1867C43.0082 16.1459 42.8167 16.0452 42.6663 15.8973C42.516 15.7493 42.4137 15.5609 42.3722 15.3557C42.3307 15.1505 42.352 14.9379 42.4334 14.7446C42.5147 14.5513 42.6525 14.3861 42.8292 14.2699C43.006 14.1537 43.2137 14.0917 43.4263 14.0917C43.5674 14.0917 43.7072 14.119 43.8376 14.1722C43.968 14.2253 44.0865 14.3032 44.1863 14.4015C44.2861 14.4997 44.3652 14.6163 44.4192 14.7446C44.4733 14.8729 44.5011 15.0105 44.5011 15.1494Z" fill="#A6D9E7"/>
<path d="M40.8344 35.0963C40.8344 35.0757 40.8402 35.0571 40.8402 35.0359C40.8402 34.7437 40.7817 34.4544 40.668 34.1845C40.5544 33.9146 40.3878 33.6694 40.1779 33.4629C39.9679 33.2563 39.7187 33.0925 39.4444 32.9808C39.1701 32.869 38.8761 32.8116 38.5793 32.8116H31.1866C30.8897 32.8116 30.5957 32.869 30.3214 32.9808C30.0471 33.0925 29.7979 33.2563 29.5879 33.4629C29.378 33.6694 29.2114 33.9146 29.0978 34.1845C28.9841 34.4544 28.9256 34.7437 28.9256 35.0359C28.9256 35.0565 28.9308 35.0759 28.9315 35.0963C26.5352 36.3956 24.6461 38.4423 23.5613 40.914C22.4766 43.3858 22.2578 46.1424 22.9394 48.75C23.6211 51.3575 25.1645 53.668 27.3266 55.3177C29.4888 56.9674 32.147 57.8627 34.8829 57.8627C37.6188 57.8627 40.277 56.9674 42.4392 55.3177C44.6014 53.668 46.1447 51.3575 46.8264 48.75C47.508 46.1424 47.2892 43.3858 46.2045 40.914C45.1197 38.4423 43.2306 36.3956 40.8344 35.0963ZM34.8826 53.4949C33.3199 53.4948 31.7924 53.0386 30.4932 52.1841C29.194 51.3296 28.1815 50.1151 27.5836 48.6943C26.9857 47.2734 26.8294 45.71 27.1344 44.2018C27.4394 42.6935 28.192 41.3081 29.297 40.2208C30.4021 39.1334 31.81 38.393 33.3426 38.0931C34.8752 37.7932 36.4638 37.9473 37.9075 38.5359C39.3511 39.1245 40.585 40.1212 41.4531 41.3999C42.3212 42.6786 42.7845 44.1819 42.7844 45.7198C42.782 47.7814 41.9487 49.7578 40.4673 51.2155C38.9859 52.6731 36.9774 53.4929 34.8826 53.4949Z" fill="#ECAD31"/>
<g opacity="0.06">
<g opacity="0.06">
<g opacity="0.06">
<path opacity="0.06" d="M40.834 35.0969C40.834 35.0763 40.8399 35.0569 40.8399 35.0365C40.8398 34.4465 40.6016 33.8806 40.1776 33.4634C39.7537 33.0461 39.1787 32.8117 38.5791 32.8116H35.3823C35.9819 32.8118 36.5569 33.0462 36.9809 33.4635C37.4049 33.8807 37.6432 34.4466 37.6433 35.0367C37.6433 35.0573 37.6374 35.0767 37.6366 35.0971C39.9128 36.3292 41.735 38.2379 42.8426 40.5504C43.9503 42.8629 44.2867 45.4609 43.8039 47.9729C43.3211 50.4849 42.0437 52.7824 40.1542 54.537C38.2648 56.2916 35.8602 57.4134 33.2839 57.7422C33.8136 57.814 34.3475 57.8521 34.8822 57.8562C37.6176 57.8569 40.2755 56.9624 42.4375 55.3134C44.5996 53.6643 46.143 51.3545 46.8247 48.7476C47.5065 46.1406 47.2879 43.3845 46.2033 40.9132C45.1188 38.4419 43.2299 36.3958 40.834 35.0969Z" fill="#070203"/>
</g>
</g>
</g>
<ellipse opacity="0.7" cx="38.1939" cy="28.8219" rx="2.91042" ry="2.86422" fill="url(#paint1_radial)"/>
<ellipse opacity="0.7" cx="29.6186" cy="23.2469" rx="2.65056" ry="2.60849" fill="url(#paint2_radial)"/>
<g filter="url(#filter0_d)">
<path d="M38.0997 27.5794C38.2045 27.3005 38.599 27.3005 38.7038 27.5794L38.8549 27.9811C38.888 28.0692 38.958 28.1385 39.0465 28.1707L39.44 28.314C39.7231 28.4171 39.7231 28.8175 39.44 28.9205L39.0465 29.0638C38.958 29.0961 38.888 29.1653 38.8549 29.2535L38.7038 29.6552C38.599 29.934 38.2045 29.934 38.0997 29.6552L37.9486 29.2535C37.9155 29.1653 37.8455 29.0961 37.757 29.0638L37.3635 28.9205C37.0804 28.8175 37.0804 28.4171 37.3635 28.314L37.757 28.1707C37.8455 28.1385 37.9155 28.0692 37.9486 27.9811L38.0997 27.5794Z" fill="white"/>
</g>
<g filter="url(#filter1_d)">
<path d="M29.4722 22.3625C29.577 22.0836 29.9715 22.0836 30.0763 22.3625L30.1431 22.5402C30.1763 22.6283 30.2463 22.6976 30.3348 22.7298L30.5007 22.7902C30.7837 22.8933 30.7837 23.2937 30.5007 23.3967L30.3348 23.4571C30.2463 23.4894 30.1763 23.5586 30.1431 23.6468L30.0763 23.8245C29.9715 24.1033 29.577 24.1033 29.4722 23.8245L29.4053 23.6468C29.3722 23.5586 29.3022 23.4894 29.2137 23.4571L29.0478 23.3967C28.7648 23.2937 28.7648 22.8933 29.0478 22.7902L29.2137 22.7298C29.3022 22.6976 29.3722 22.6283 29.4053 22.5402L29.4722 22.3625Z" fill="white"/>
</g>
<defs>
<filter id="filter0_d" x="30.6966" y="20.9157" width="15.4102" height="15.4031" filterUnits="userSpaceOnUse" color-interpolation-filters="sRGB">
<feFlood flood-opacity="0" result="BackgroundImageFix"/>
<feColorMatrix in="SourceAlpha" type="matrix" values="0 0 0 0 0 0 0 0 0 0 0 0 0 0 0 0 0 0 127 0"/>
<feOffset/>
<feGaussianBlur stdDeviation="3.22727"/>
<feColorMatrix type="matrix" values="0 0 0 0 1 0 0 0 0 1 0 0 0 0 1 0 0 0 0.25 0"/>
<feBlend mode="normal" in2="BackgroundImageFix" result="effect1_dropShadow"/>
<feBlend mode="normal" in="SourceGraphic" in2="effect1_dropShadow" result="shape"/>
</filter>
<filter id="filter1_d" x="22.3809" y="15.6988" width="14.7865" height="14.7894" filterUnits="userSpaceOnUse" color-interpolation-filters="sRGB">
<feFlood flood-opacity="0" result="BackgroundImageFix"/>
<feColorMatrix in="SourceAlpha" type="matrix" values="0 0 0 0 0 0 0 0 0 0 0 0 0 0 0 0 0 0 127 0"/>
<feOffset/>
<feGaussianBlur stdDeviation="3.22727"/>
<feColorMatrix type="matrix" values="0 0 0 0 1 0 0 0 0 1 0 0 0 0 1 0 0 0 0.25 0"/>
<feBlend mode="normal" in2="BackgroundImageFix" result="effect1_dropShadow"/>
<feBlend mode="normal" in="SourceGraphic" in2="effect1_dropShadow" result="shape"/>
</filter>
<linearGradient id="paint0_linear" x1="35" y1="0" x2="35" y2="70" gradientUnits="userSpaceOnUse">
<stop stop-color="#FFF5E6"/>
<stop offset="1" stop-color="#FFE4BB"/>
</linearGradient>
<radialGradient id="paint1_radial" cx="0" cy="0" r="1" gradientUnits="userSpaceOnUse" gradientTransform="translate(38.1939 28.8219) rotate(90) scale(2.86422 2.91042)">
<stop stop-color="white"/>
<stop offset="1" stop-color="white" stop-opacity="0"/>
</radialGradient>
<radialGradient id="paint2_radial" cx="0" cy="0" r="1" gradientUnits="userSpaceOnUse" gradientTransform="translate(29.6186 23.2469) rotate(90) scale(2.60849 2.65056)">
<stop stop-color="white"/>
<stop offset="1" stop-color="white" stop-opacity="0"/>
</radialGradient>
</defs>
</svg>
