<svg width="70" height="70" viewBox="0 0 70 70" fill="none" xmlns="http://www.w3.org/2000/svg">
<path d="M0 15.9091C0 7.12274 7.12274 0 15.9091 0H54.0909C62.8773 0 70 7.12274 70 15.9091V54.0909C70 62.8773 62.8773 70 54.0909 70H15.9091C7.12274 70 0 62.8773 0 54.0909V15.9091Z" fill="url(#paint0_linear)"/>
<path d="M18.1056 29.8562L20.027 30.4976C20.1255 30.5303 20.2112 30.5932 20.2719 30.6774C20.3327 30.7616 20.3654 30.8627 20.3654 30.9665C20.3654 31.0703 20.3327 31.1715 20.2719 31.2556C20.2112 31.3398 20.1255 31.4027 20.027 31.4354L18.1056 32.0776C18.0327 32.1013 17.9664 32.142 17.9122 32.1962C17.858 32.2504 17.8174 32.3166 17.7936 32.3895L17.1508 34.3119C17.1178 34.4102 17.0548 34.4956 16.9707 34.5561C16.8865 34.6167 16.7855 34.6492 16.6818 34.6492C16.5782 34.6492 16.4772 34.6167 16.393 34.5561C16.3089 34.4956 16.2459 34.4102 16.2129 34.3119L15.5715 32.3895C15.5474 32.3168 15.5067 32.2507 15.4525 32.1966C15.3983 32.1424 15.3323 32.1017 15.2596 32.0776L13.3389 31.4354C13.2403 31.4028 13.1544 31.34 13.0936 31.2558C13.0327 31.1716 13 31.0704 13 30.9665C13 30.8626 13.0327 30.7614 13.0936 30.6772C13.1544 30.593 13.2403 30.5302 13.3389 30.4976L15.2596 29.8562C15.3323 29.8321 15.3983 29.7913 15.4525 29.7372C15.5067 29.683 15.5474 29.617 15.5715 29.5442L16.2129 27.6228C16.2455 27.5242 16.3084 27.4384 16.3926 27.3775C16.4767 27.3167 16.578 27.2839 16.6818 27.2839C16.7857 27.2839 16.8869 27.3167 16.9711 27.3775C17.0553 27.4384 17.1182 27.5242 17.1508 27.6228L17.7939 29.5442C17.8176 29.6171 17.8583 29.6834 17.9125 29.7376C17.9667 29.7918 18.0329 29.8325 18.1058 29.8562" fill="#F3C976"/>
<path d="M48.057 19.638L49.9794 20.2794C50.0776 20.3124 50.1631 20.3754 50.2236 20.4595C50.2841 20.5437 50.3167 20.6447 50.3167 20.7483C50.3167 20.852 50.2841 20.953 50.2236 21.0371C50.1631 21.1213 50.0776 21.1843 49.9794 21.2173L48.057 21.8594C47.9841 21.8833 47.918 21.924 47.8638 21.9782C47.8096 22.0323 47.7689 22.0985 47.745 22.1713L47.1029 24.0937C47.0699 24.192 47.0069 24.2774 46.9228 24.338C46.8386 24.3985 46.7376 24.431 46.634 24.431C46.5303 24.431 46.4293 24.3985 46.3451 24.338C46.261 24.2774 46.198 24.192 46.165 24.0937L45.5236 22.1713C45.4998 22.0985 45.4591 22.0323 45.4049 21.9782C45.3507 21.924 45.2845 21.8833 45.2117 21.8594L43.2893 21.2173C43.1908 21.1845 43.1051 21.1216 43.0443 21.0375C42.9836 20.9533 42.9509 20.8521 42.9509 20.7483C42.9509 20.6445 42.9836 20.5434 43.0443 20.4592C43.1051 20.375 43.1908 20.3121 43.2893 20.2794L45.2117 19.638C45.2844 19.6139 45.3505 19.5732 45.4046 19.519C45.4588 19.4648 45.4995 19.3988 45.5236 19.3261L46.165 17.4037C46.1977 17.3052 46.2607 17.2195 46.3448 17.1587C46.429 17.098 46.5302 17.0653 46.634 17.0653C46.7377 17.0653 46.8389 17.098 46.9231 17.1587C47.0072 17.2195 47.0702 17.3052 47.1029 17.4037L47.745 19.3261C47.7691 19.3988 47.8099 19.4648 47.864 19.519C47.9182 19.5732 47.9843 19.6139 48.057 19.638Z" fill="#F3C976"/>
<path d="M55.9197 34.6503C55.9197 34.8997 55.8457 35.1435 55.7072 35.3509C55.5686 35.5583 55.3716 35.72 55.1412 35.8154C54.9108 35.9109 54.6572 35.9358 54.4126 35.8872C54.1679 35.8385 53.9432 35.7184 53.7668 35.542C53.5905 35.3657 53.4704 35.141 53.4217 34.8963C53.373 34.6517 53.398 34.3981 53.4935 34.1677C53.5889 33.9372 53.7506 33.7403 53.9579 33.6017C54.1653 33.4631 54.4092 33.3892 54.6586 33.3892C54.8242 33.3891 54.9882 33.4217 55.1413 33.485C55.2943 33.5484 55.4334 33.6413 55.5505 33.7584C55.6676 33.8755 55.7605 34.0146 55.8238 34.1676C55.8872 34.3206 55.9198 34.4847 55.9197 34.6503Z" fill="#A6D9E7"/>
<path d="M37.9805 15.2611C37.9805 15.5105 37.9065 15.7544 37.768 15.9618C37.6294 16.1692 37.4324 16.3308 37.202 16.4262C36.9715 16.5217 36.718 16.5467 36.4733 16.498C36.2287 16.4494 36.004 16.3292 35.8276 16.1529C35.6513 15.9765 35.5311 15.7518 35.4825 15.5072C35.4338 15.2625 35.4588 15.009 35.5542 14.7785C35.6497 14.5481 35.8113 14.3511 36.0187 14.2125C36.2261 14.074 36.4699 14 36.7194 14C36.885 13.9999 37.049 14.0325 37.2021 14.0959C37.3551 14.1592 37.4941 14.2521 37.6113 14.3692C37.7284 14.4863 37.8213 14.6254 37.8846 14.7784C37.948 14.9315 37.9806 15.0955 37.9805 15.2611Z" fill="#A6D9E7"/>
<path d="M26.1875 18.5401C26.1875 18.7895 26.1136 19.0333 25.975 19.2407C25.8364 19.4481 25.6395 19.6097 25.409 19.7052C25.1786 19.8006 24.925 19.8256 24.6804 19.7769C24.4357 19.7283 24.211 19.6082 24.0347 19.4318C23.8583 19.2554 23.7382 19.0307 23.6895 18.7861C23.6409 18.5415 23.6658 18.2879 23.7613 18.0574C23.8567 17.827 24.0184 17.63 24.2258 17.4915C24.4332 17.3529 24.677 17.2789 24.9264 17.2789C25.092 17.2789 25.2561 17.3114 25.4091 17.3748C25.5621 17.4382 25.7012 17.531 25.8183 17.6482C25.9354 17.7653 26.0283 17.9043 26.0917 18.0574C26.155 18.2104 26.1876 18.3744 26.1875 18.5401Z" fill="#A6D9E7"/>
<path d="M41.8178 27.4917C41.8178 27.4678 41.8245 27.4471 41.8245 27.4227C41.8244 26.7396 41.5529 26.0845 41.0699 25.6015C40.5869 25.1185 39.9318 24.8471 39.2487 24.8469H30.8265C30.1433 24.8469 29.4881 25.1183 29.0051 25.6014C28.522 26.0844 28.2506 26.7396 28.2506 27.4227C28.2506 27.4466 28.2566 27.469 28.2573 27.4917C25.5274 28.9959 23.3752 31.3651 22.1393 34.2265C20.9035 37.088 20.6543 40.2791 21.4309 43.2977C22.2074 46.3163 23.9657 48.9909 26.429 50.9007C28.8923 52.8105 31.9207 53.8469 35.0376 53.8469C38.1544 53.8469 41.1828 52.8105 43.6461 50.9007C46.1094 48.9909 47.8677 46.3163 48.6443 43.2977C49.4208 40.2791 49.1716 37.088 47.9358 34.2265C46.7 31.3651 44.5477 28.9959 41.8178 27.4917ZM35.0377 48.7911C33.2574 48.7911 31.517 48.2631 30.0368 47.274C28.5565 46.2849 27.4028 44.8791 26.7215 43.2343C26.0403 41.5895 25.8621 39.7796 26.2094 38.0335C26.5568 36.2874 27.4142 34.6835 28.6731 33.4247C29.932 32.1659 31.5359 31.3087 33.2821 30.9614C35.0282 30.6142 36.8381 30.7926 38.4828 31.474C40.1276 32.1553 41.5333 33.3092 42.5223 34.7895C43.5113 36.2699 44.0391 38.0102 44.0389 39.7905C44.0361 42.1769 43.0869 44.4647 41.3994 46.1521C39.7119 47.8394 37.424 48.7885 35.0377 48.7911Z" fill="#FFC15E"/>
<g opacity="0.06">
<g opacity="0.06">
<g opacity="0.06">
<path opacity="0.06" d="M42.1898 27.4945C42.1898 27.4706 42.1965 27.4491 42.1965 27.4255C42.1965 26.7418 41.925 26.0862 41.4416 25.6028C40.9582 25.1195 40.3026 24.8479 39.619 24.8479H35.9752C36.6588 24.848 37.3143 25.1196 37.7977 25.603C38.2811 26.0863 38.5527 26.7419 38.5528 27.4255C38.5528 27.4493 38.5461 27.4718 38.5451 27.4945C41.1404 28.9216 43.218 31.1327 44.481 33.8117C45.744 36.4907 46.1277 39.5004 45.5772 42.4105C45.0267 45.3207 43.5703 47.9823 41.4161 50.0149C39.2619 52.0475 36.5202 53.3471 33.583 53.7277C36.8295 54.1551 40.1234 53.4349 42.8953 51.6915C45.6671 49.9481 47.7429 47.2912 48.7637 44.1798C49.7845 41.0684 49.6862 37.6982 48.4859 34.6516C47.2855 31.605 45.0586 29.0734 42.1898 27.4945Z" fill="#070203"/>
</g>
</g>
</g>
<circle opacity="0.7" cx="38.4615" cy="28.121" r="2.78059" fill="url(#paint1_radial)"/>
<circle opacity="0.7" cx="26.0852" cy="51.0745" r="3.92553" fill="url(#paint2_radial)"/>
<g filter="url(#filter0_d)">
<path d="M38.2474 27.342C38.377 26.9916 38.8727 26.9916 39.0024 27.342C39.0432 27.4522 39.1301 27.5391 39.2403 27.5799C39.5907 27.7096 39.5907 28.2053 39.2403 28.3349C39.1301 28.3757 39.0432 28.4626 39.0024 28.5728C38.8727 28.9233 38.377 28.9233 38.2474 28.5728C38.2066 28.4626 38.1197 28.3757 38.0095 28.3349C37.6591 28.2053 37.6591 27.7096 38.0095 27.5799C38.1197 27.5391 38.2066 27.4522 38.2474 27.342Z" fill="white"/>
</g>
<g filter="url(#filter1_d)">
<path d="M25.8343 49.7247C25.9954 49.2893 26.6111 49.2893 26.7722 49.7247L26.8714 49.9928C26.922 50.1296 27.0299 50.2375 27.1668 50.2882L27.4349 50.3874C27.8702 50.5485 27.8702 51.1642 27.4349 51.3253L27.1668 51.4245C27.0299 51.4751 26.922 51.583 26.8714 51.7199L26.7722 51.988C26.6111 52.4233 25.9954 52.4233 25.8343 51.988L25.7351 51.7199C25.6844 51.583 25.5765 51.4751 25.4397 51.4245L25.1715 51.3253C24.7362 51.1642 24.7362 50.5485 25.1715 50.3874L25.4397 50.2882C25.5765 50.2375 25.6844 50.1296 25.7351 49.9928L25.8343 49.7247Z" fill="white" fill-opacity="0.8"/>
</g>
<defs>
<filter id="filter0_d" x="27.7466" y="17.0792" width="21.7564" height="21.7564" filterUnits="userSpaceOnUse" color-interpolation-filters="sRGB">
<feFlood flood-opacity="0" result="BackgroundImageFix"/>
<feColorMatrix in="SourceAlpha" type="matrix" values="0 0 0 0 0 0 0 0 0 0 0 0 0 0 0 0 0 0 127 0"/>
<feOffset/>
<feGaussianBlur stdDeviation="5"/>
<feColorMatrix type="matrix" values="0 0 0 0 1 0 0 0 0 1 0 0 0 0 1 0 0 0 0.25 0"/>
<feBlend mode="normal" in2="BackgroundImageFix" result="effect1_dropShadow"/>
<feBlend mode="normal" in="SourceGraphic" in2="effect1_dropShadow" result="shape"/>
</filter>
<filter id="filter1_d" x="14.845" y="39.3982" width="22.9163" height="22.9163" filterUnits="userSpaceOnUse" color-interpolation-filters="sRGB">
<feFlood flood-opacity="0" result="BackgroundImageFix"/>
<feColorMatrix in="SourceAlpha" type="matrix" values="0 0 0 0 0 0 0 0 0 0 0 0 0 0 0 0 0 0 127 0"/>
<feOffset/>
<feGaussianBlur stdDeviation="5"/>
<feColorMatrix type="matrix" values="0 0 0 0 1 0 0 0 0 1 0 0 0 0 1 0 0 0 0.25 0"/>
<feBlend mode="normal" in2="BackgroundImageFix" result="effect1_dropShadow"/>
<feBlend mode="normal" in="SourceGraphic" in2="effect1_dropShadow" result="shape"/>
</filter>
<linearGradient id="paint0_linear" x1="35" y1="0" x2="35" y2="70" gradientUnits="userSpaceOnUse">
<stop stop-color="#F7FEFF"/>
<stop offset="1" stop-color="#CDEDFF"/>
</linearGradient>
<radialGradient id="paint1_radial" cx="0" cy="0" r="1" gradientUnits="userSpaceOnUse" gradientTransform="translate(38.4615 28.121) rotate(90) scale(2.78059)">
<stop stop-color="white"/>
<stop offset="1" stop-color="white" stop-opacity="0"/>
</radialGradient>
<radialGradient id="paint2_radial" cx="0" cy="0" r="1" gradientUnits="userSpaceOnUse" gradientTransform="translate(26.0852 51.0745) rotate(90) scale(3.92553)">
<stop stop-color="white"/>
<stop offset="1" stop-color="white" stop-opacity="0"/>
</radialGradient>
</defs>
</svg>
