<svg width="73" height="74" viewBox="0 0 73 74" fill="none" xmlns="http://www.w3.org/2000/svg">
<mask id="mask0" mask-type="alpha" maskUnits="userSpaceOnUse" x="0" y="0" width="74" height="74">
<path d="M36.5156 29.2974C32.516 29.2974 29.2594 32.5524 29.2594 36.552C29.2594 40.5532 32.516 43.8098 36.5156 43.8098C40.5168 43.8098 43.7718 40.5532 43.7718 36.552C43.7718 32.5524 40.5168 29.2974 36.5156 29.2974ZM36.5156 29.2974C32.516 29.2974 29.2594 32.5524 29.2594 36.552C29.2594 40.5532 32.516 43.8098 36.5156 43.8098C40.5168 43.8098 43.7718 40.5532 43.7718 36.552C43.7718 32.5524 40.5168 29.2974 36.5156 29.2974ZM48.604 17.4668H24.4288C20.5702 17.4668 17.4304 20.6065 17.4304 24.4652V48.6404C17.4304 52.499 20.5702 55.6388 24.4288 55.6388H48.604C52.4627 55.6388 55.6025 52.499 55.6025 48.6404V24.4652C55.6025 20.6065 52.4627 17.4668 48.604 17.4668ZM36.5156 49.1191C29.5876 49.1191 23.9501 43.4816 23.9501 36.552C23.9501 29.624 29.5876 23.9865 36.5156 23.9865C43.4452 23.9865 49.0827 29.624 49.0827 36.552C49.0827 43.4816 43.4452 49.1191 36.5156 49.1191ZM49.4862 26.5851C47.8467 26.5851 46.5129 25.2514 46.5129 23.6118C46.5129 21.9723 47.8467 20.6386 49.4862 20.6386C51.1257 20.6386 52.4595 21.9723 52.4595 23.6118C52.4595 25.2514 51.1257 26.5851 49.4862 26.5851ZM36.5156 29.2974C32.516 29.2974 29.2594 32.5524 29.2594 36.552C29.2594 40.5532 32.516 43.8098 36.5156 43.8098C40.5168 43.8098 43.7718 40.5532 43.7718 36.552C43.7718 32.5524 40.5168 29.2974 36.5156 29.2974ZM48.604 17.4668H24.4288C20.5702 17.4668 17.4304 20.6065 17.4304 24.4652V48.6404C17.4304 52.499 20.5702 55.6388 24.4288 55.6388H48.604C52.4627 55.6388 55.6025 52.499 55.6025 48.6404V24.4652C55.6025 20.6065 52.4627 17.4668 48.604 17.4668ZM36.5156 49.1191C29.5876 49.1191 23.9501 43.4816 23.9501 36.552C23.9501 29.624 29.5876 23.9865 36.5156 23.9865C43.4452 23.9865 49.0827 29.624 49.0827 36.552C49.0827 43.4816 43.4452 49.1191 36.5156 49.1191ZM49.4862 26.5851C47.8467 26.5851 46.5129 25.2514 46.5129 23.6118C46.5129 21.9723 47.8467 20.6386 49.4862 20.6386C51.1257 20.6386 52.4595 21.9723 52.4595 23.6118C52.4595 25.2514 51.1257 26.5851 49.4862 26.5851ZM36.5156 29.2974C32.516 29.2974 29.2594 32.5524 29.2594 36.552C29.2594 40.5532 32.516 43.8098 36.5156 43.8098C40.5168 43.8098 43.7718 40.5532 43.7718 36.552C43.7718 32.5524 40.5168 29.2974 36.5156 29.2974ZM0.0327148 0.0690918V73.0365H73.0001V0.0690918H0.0327148ZM60.9117 48.6404C60.9117 55.4275 55.3911 60.9481 48.604 60.9481H24.4288C17.6417 60.9481 12.1211 55.4275 12.1211 48.6404V24.4652C12.1211 17.6781 17.6417 12.1575 24.4288 12.1575H48.604C55.3911 12.1575 60.9117 17.6781 60.9117 24.4652V48.6404ZM48.604 17.4668H24.4288C20.5702 17.4668 17.4304 20.6065 17.4304 24.4652V48.6404C17.4304 52.499 20.5702 55.6388 24.4288 55.6388H48.604C52.4627 55.6388 55.6025 52.499 55.6025 48.6404V24.4652C55.6025 20.6065 52.4627 17.4668 48.604 17.4668ZM36.5156 49.1191C29.5876 49.1191 23.9501 43.4816 23.9501 36.552C23.9501 29.624 29.5876 23.9865 36.5156 23.9865C43.4452 23.9865 49.0827 29.624 49.0827 36.552C49.0827 43.4816 43.4452 49.1191 36.5156 49.1191ZM49.4862 26.5851C47.8467 26.5851 46.5129 25.2514 46.5129 23.6118C46.5129 21.9723 47.8467 20.6386 49.4862 20.6386C51.1257 20.6386 52.4595 21.9723 52.4595 23.6118C52.4595 25.2514 51.1257 26.5851 49.4862 26.5851ZM36.5156 29.2974C32.516 29.2974 29.2594 32.5524 29.2594 36.552C29.2594 40.5532 32.516 43.8098 36.5156 43.8098C40.5168 43.8098 43.7718 40.5532 43.7718 36.552C43.7718 32.5524 40.5168 29.2974 36.5156 29.2974ZM36.5156 29.2974C32.516 29.2974 29.2594 32.5524 29.2594 36.552C29.2594 40.5532 32.516 43.8098 36.5156 43.8098C40.5168 43.8098 43.7718 40.5532 43.7718 36.552C43.7718 32.5524 40.5168 29.2974 36.5156 29.2974ZM36.5156 29.2974C32.516 29.2974 29.2594 32.5524 29.2594 36.552C29.2594 40.5532 32.516 43.8098 36.5156 43.8098C40.5168 43.8098 43.7718 40.5532 43.7718 36.552C43.7718 32.5524 40.5168 29.2974 36.5156 29.2974ZM48.604 17.4668H24.4288C20.5702 17.4668 17.4304 20.6065 17.4304 24.4652V48.6404C17.4304 52.499 20.5702 55.6388 24.4288 55.6388H48.604C52.4627 55.6388 55.6025 52.499 55.6025 48.6404V24.4652C55.6025 20.6065 52.4627 17.4668 48.604 17.4668ZM36.5156 49.1191C29.5876 49.1191 23.9501 43.4816 23.9501 36.552C23.9501 29.624 29.5876 23.9865 36.5156 23.9865C43.4452 23.9865 49.0827 29.624 49.0827 36.552C49.0827 43.4816 43.4452 49.1191 36.5156 49.1191ZM49.4862 26.5851C47.8467 26.5851 46.5129 25.2514 46.5129 23.6118C46.5129 21.9723 47.8467 20.6386 49.4862 20.6386C51.1257 20.6386 52.4595 21.9723 52.4595 23.6118C52.4595 25.2514 51.1257 26.5851 49.4862 26.5851ZM36.5156 29.2974C32.516 29.2974 29.2594 32.5524 29.2594 36.552C29.2594 40.5532 32.516 43.8098 36.5156 43.8098C40.5168 43.8098 43.7718 40.5532 43.7718 36.552C43.7718 32.5524 40.5168 29.2974 36.5156 29.2974ZM36.5156 29.2974C32.516 29.2974 29.2594 32.5524 29.2594 36.552C29.2594 40.5532 32.516 43.8098 36.5156 43.8098C40.5168 43.8098 43.7718 40.5532 43.7718 36.552C43.7718 32.5524 40.5168 29.2974 36.5156 29.2974ZM36.5156 29.2974C32.516 29.2974 29.2594 32.5524 29.2594 36.552C29.2594 40.5532 32.516 43.8098 36.5156 43.8098C40.5168 43.8098 43.7718 40.5532 43.7718 36.552C43.7718 32.5524 40.5168 29.2974 36.5156 29.2974ZM48.604 17.4668H24.4288C20.5702 17.4668 17.4304 20.6065 17.4304 24.4652V48.6404C17.4304 52.499 20.5702 55.6388 24.4288 55.6388H48.604C52.4627 55.6388 55.6025 52.499 55.6025 48.6404V24.4652C55.6025 20.6065 52.4627 17.4668 48.604 17.4668ZM36.5156 49.1191C29.5876 49.1191 23.9501 43.4816 23.9501 36.552C23.9501 29.624 29.5876 23.9865 36.5156 23.9865C43.4452 23.9865 49.0827 29.624 49.0827 36.552C49.0827 43.4816 43.4452 49.1191 36.5156 49.1191ZM49.4862 26.5851C47.8467 26.5851 46.5129 25.2514 46.5129 23.6118C46.5129 21.9723 47.8467 20.6386 49.4862 20.6386C51.1257 20.6386 52.4595 21.9723 52.4595 23.6118C52.4595 25.2514 51.1257 26.5851 49.4862 26.5851ZM36.5156 29.2974C32.516 29.2974 29.2594 32.5524 29.2594 36.552C29.2594 40.5532 32.516 43.8098 36.5156 43.8098C40.5168 43.8098 43.7718 40.5532 43.7718 36.552C43.7718 32.5524 40.5168 29.2974 36.5156 29.2974Z" fill="#3B3B3B"/>
</mask>
<g mask="url(#mask0)">
<path d="M56.0311 0.0690918H17.0019C7.63007 0.0690918 0.0327148 7.66645 0.0327148 17.0383V56.0675C0.0327148 65.4393 7.63007 73.0367 17.0019 73.0367H56.0311C65.4029 73.0367 73.0003 65.4393 73.0003 56.0675V17.0383C73.0003 7.66645 65.4029 0.0690918 56.0311 0.0690918Z" fill="#4DA3F3"/>
</g>
</svg>
