<svg width="205" height="72" viewBox="0 0 205 72" fill="none" xmlns="http://www.w3.org/2000/svg">
<rect x="10.0918" y="18.501" width="52.1392" height="52.9801" rx="10" fill="url(#paint0_linear)"/>
<path fill-rule="evenodd" clip-rule="evenodd" d="M36.1564 18.2675L12.9204 41.5036C9.96467 44.4593 5.17251 44.4593 2.21679 41.5036C-0.738929 38.5479 -0.73893 33.7557 2.21679 30.8L30.8 2.2168C32.2767 0.740039 34.2119 0.00111187 36.1474 1.2298e-05C38.089 -0.00347678 40.0316 0.735448 41.5129 2.21679L70.0961 30.8C73.0518 33.7557 73.0518 38.5478 70.0961 41.5036C67.1404 44.4593 62.3482 44.4593 59.3925 41.5036L36.1564 18.2675Z" fill="url(#paint1_linear)"/>
<path d="M64.333 12.6144C64.333 17.7233 60.1914 21.8649 55.0825 21.8649C49.9736 21.8649 45.832 17.7233 45.832 12.6144C45.832 7.50548 49.9736 3.36389 55.0825 3.36389C60.1914 3.36389 64.333 7.50548 64.333 12.6144Z" fill="url(#paint2_linear)"/>
<path d="M84.005 17.0684H106.117C106.999 17.0684 107.44 17.7125 107.44 19.0006C107.44 21.4725 106.593 22.7084 104.901 22.7084H98.9758V24.1706C98.9758 25.4239 99.7517 26.9384 101.303 28.7139C102.855 30.4547 104.883 32.0213 107.387 33.4139C108.621 34.2843 108.762 35.468 107.81 36.965C106.717 38.6362 105.553 39.1236 104.319 38.4273C100.757 36.7562 97.8649 34.6847 95.6431 32.2128C93.5271 34.9632 90.6352 37.2958 86.9674 39.2106C85.7331 39.9069 84.5869 39.4195 83.5289 37.7484C82.5414 36.2513 82.6649 35.0676 83.8992 34.1973C86.4032 32.6306 88.3428 30.8899 89.7183 28.975C91.0937 27.0254 91.7814 25.4239 91.7814 24.1706V22.7084H84.005V17.0684ZM119.924 32.4217C119.924 37.1565 118.531 39.5239 115.745 39.5239H114.793C113.523 39.5239 112.889 38.9147 112.889 37.6962V15.2406H119.924V32.4217ZM96.4366 41.3517V46.5739H112.889V41.3517H119.924V51.9006C119.924 58.4458 118.232 61.7184 114.846 61.7184H95.3786C91.4287 61.7184 89.4538 59.8036 89.4538 55.9739V41.3517H96.4366ZM98.341 56.1306H111.354C112.377 56.1306 112.889 55.1036 112.889 53.0495V52.0573H96.4366V54.3028C96.4366 55.5213 97.0714 56.1306 98.341 56.1306Z" fill="url(#paint3_linear)"/>
<path d="M121.796 36.9128H165.228C166.109 36.9128 166.55 37.5569 166.55 38.845C166.55 41.3865 165.704 42.6573 164.011 42.6573H149.146V46.6262C149.146 50.3165 147.929 52.1617 145.496 52.1617H144.015C142.745 52.1617 142.11 51.5525 142.11 50.3339V42.6573H121.796V36.9128ZM140.576 15.2406H147.771V16.4417C147.771 19.401 148.881 21.7162 151.103 23.3873C153.325 25.0584 156.693 26.5554 161.207 27.8784C162.547 28.2962 162.882 29.358 162.212 31.0639C161.436 32.8743 160.396 33.6228 159.091 33.3095C152.637 31.3599 147.947 29.1317 145.02 26.625C144.702 26.3465 144.42 26.068 144.173 25.7895L143.327 26.625C140.4 29.1317 135.709 31.3425 129.255 33.2573C127.951 33.6054 126.91 32.8743 126.134 31.0639C125.464 29.358 125.799 28.2787 127.139 27.8262C131.654 26.538 135.022 25.0584 137.243 23.3873C139.465 21.7162 140.576 19.401 140.576 16.4417V15.2406ZM128.25 55.7128V47.0962H135.286V53.885C135.286 55.1036 135.903 55.7128 137.138 55.7128H159.567C160.449 55.7128 160.89 56.3221 160.89 57.5406C160.89 60.1517 160.043 61.4573 158.351 61.4573H134.175C130.225 61.4573 128.25 59.5424 128.25 55.7128Z" fill="url(#paint4_linear)"/>
<path d="M181.065 16.285C182.97 16.285 184.68 16.581 186.197 17.1728C187.713 17.7299 188.983 18.4436 190.006 19.3139C191.028 20.2191 191.804 21.3158 192.333 22.6039C192.898 23.8921 193.18 25.2673 193.18 26.7295C193.18 28.1569 192.898 29.5147 192.333 30.8028C191.804 32.0562 191.028 33.1354 190.006 34.0406C188.983 34.9458 187.713 35.6943 186.197 36.2862C184.68 36.8432 182.97 37.1217 181.065 37.1217C179.267 37.1217 177.609 36.8432 176.093 36.2862C174.576 35.6943 173.289 34.9458 172.231 34.0406C171.173 33.1354 170.38 32.0562 169.851 30.8028C169.322 29.5147 169.057 28.1569 169.057 26.7295C169.057 25.2673 169.322 23.8921 169.851 22.6039C170.38 21.3158 171.173 20.2191 172.231 19.3139C173.289 18.4436 174.576 17.7299 176.093 17.1728C177.609 16.581 179.267 16.285 181.065 16.285ZM181.065 31.325C181.806 31.325 182.494 31.2206 183.129 31.0117C183.799 30.768 184.398 30.4199 184.927 29.9673C185.456 29.5495 185.844 29.0447 186.091 28.4528C186.338 27.8262 186.461 27.1821 186.461 26.5206C186.461 25.9287 186.338 25.3195 186.091 24.6928C185.844 24.0662 185.456 23.5439 184.927 23.1262C184.398 22.7084 183.799 22.395 183.129 22.1862C182.494 21.9425 181.806 21.8206 181.065 21.8206C180.36 21.8206 179.672 21.9425 179.002 22.1862C178.332 22.395 177.75 22.7084 177.257 23.1262C176.763 23.5439 176.375 24.0662 176.093 24.6928C175.846 25.3195 175.723 25.9287 175.723 26.5206C175.723 27.1821 175.846 27.8262 176.093 28.4528C176.375 29.0447 176.763 29.5495 177.257 29.9673C177.75 30.4199 178.332 30.768 179.002 31.0117C179.672 31.2206 180.36 31.325 181.065 31.325ZM204.871 55.1384C204.871 59.8732 203.495 62.2406 200.744 62.2406H199.739C198.47 62.2406 197.835 61.6313 197.835 60.4128V15.2406H204.871V55.1384ZM166.835 40.0984H194.343C195.26 40.0984 195.719 40.7425 195.719 42.0306C195.719 44.5721 194.872 45.8428 193.18 45.8428H185.192V54.6162C185.192 59.351 183.799 61.7184 181.013 61.7184H180.06C178.791 61.7184 178.156 61.1091 178.156 59.8906V45.8428H166.835V40.0984Z" fill="url(#paint5_linear)"/>
<defs>
<linearGradient id="paint0_linear" x1="36.1614" y1="18.501" x2="36.1614" y2="71.4811" gradientUnits="userSpaceOnUse">
<stop stop-color="white"/>
<stop offset="1" stop-color="#EDEDED"/>
</linearGradient>
<linearGradient id="paint1_linear" x1="19.9912" y1="6.95645" x2="56.9932" y2="43.9585" gradientUnits="userSpaceOnUse">
<stop stop-color="#5CABF4"/>
<stop offset="1" stop-color="#298FEE"/>
</linearGradient>
<linearGradient id="paint2_linear" x1="56.344" y1="5.88675" x2="56.344" y2="24.3878" gradientUnits="userSpaceOnUse">
<stop stop-color="#FFD056"/>
<stop offset="1" stop-color="#E9A800"/>
</linearGradient>
<linearGradient id="paint3_linear" x1="84.7873" y1="19.0248" x2="200.522" y2="65.8424" gradientUnits="userSpaceOnUse">
<stop stop-color="#8D8D8D"/>
<stop offset="1" stop-color="#333434"/>
</linearGradient>
<linearGradient id="paint4_linear" x1="84.7873" y1="19.0248" x2="200.522" y2="65.8424" gradientUnits="userSpaceOnUse">
<stop stop-color="#8D8D8D"/>
<stop offset="1" stop-color="#333434"/>
</linearGradient>
<linearGradient id="paint5_linear" x1="84.7873" y1="19.0248" x2="200.522" y2="65.8424" gradientUnits="userSpaceOnUse">
<stop stop-color="#8D8D8D"/>
<stop offset="1" stop-color="#333434"/>
</linearGradient>
</defs>
</svg>
