<svg width="20" height="16" viewBox="0 0 20 16" fill="none" xmlns="http://www.w3.org/2000/svg">
<path fill-rule="evenodd" clip-rule="evenodd" d="M10.163 8.81665C10.2704 9.07317 10.4272 9.30185 10.6228 9.48737L16.9743 15.511C17.2382 15.7612 17.5632 15.9236 17.9101 15.979C18.2571 16.0343 18.6114 15.98 18.9307 15.8228C19.2499 15.6655 19.5206 15.4119 19.7103 15.0923C19.8999 14.7727 20.0005 14.4006 20 14.0206L20 1.97938C20.0005 1.59941 19.8999 1.22734 19.7103 0.90772C19.5206 0.5881 19.2499 0.334479 18.9307 0.177224C18.6114 0.0199691 18.2571 -0.034252 17.9101 0.0210497C17.5632 0.0763523 17.2382 0.238836 16.9743 0.489044L10.6228 6.51263C10.4272 6.69815 10.2704 6.92683 10.163 7.18336C10.0556 7.43988 10 7.71831 10 8L10 1.97938C10.0005 1.59941 9.8999 1.22734 9.71025 0.907721C9.5206 0.588101 9.24994 0.33448 8.93068 0.177225C8.61142 0.01997 8.25709 -0.0342511 7.91012 0.0210506C7.56315 0.0763532 7.23825 0.238836 6.97431 0.489045L0.622846 6.51263C0.4272 6.69815 0.270414 6.92683 0.162992 7.18336C0.0555718 7.43988 -7.24008e-07 7.71831 -6.99382e-07 8C-6.74756e-07 8.28169 0.0555719 8.56013 0.162992 8.81665C0.270414 9.07317 0.4272 9.30185 0.622846 9.48737L6.97431 15.511C7.23825 15.7612 7.56315 15.9236 7.91012 15.979C8.25709 16.0343 8.61142 15.98 8.93069 15.8228C9.24994 15.6655 9.5206 15.4119 9.71025 15.0923C9.8999 14.7727 10.0005 14.4006 10 14.0206L10 8C10 8.28169 10.0556 8.56012 10.163 8.81665Z" fill="#2C2C2C"/>
</svg>
