<svg width="10" height="16" viewBox="0 0 10 16" fill="none" xmlns="http://www.w3.org/2000/svg">
<path d="M9.37728 6.51263C9.57292 6.69815 9.72971 6.92683 9.83713 7.18335C9.94455 7.43988 10.0001 7.71831 10.0001 8C10.0001 8.28169 9.94455 8.56012 9.83713 8.81664C9.72971 9.07317 9.57292 9.30185 9.37727 9.48737L3.02581 15.511C2.76187 15.7612 2.43697 15.9236 2.09 15.9789C1.74303 16.0343 1.3887 15.98 1.06944 15.8228C0.750176 15.6655 0.479517 15.4119 0.28987 15.0923C0.100223 14.7727 -0.00037447 14.4006 0.000123365 14.0206L0.000123891 1.97938C-0.00037391 1.59941 0.100223 1.22734 0.28987 0.90772C0.479518 0.5881 0.750176 0.334478 1.06944 0.177223C1.3887 0.0199683 1.74303 -0.0342543 2.09 0.0210483C2.43697 0.076351 2.76187 0.238835 3.02581 0.489044L9.37728 6.51263Z" fill="#2C2C2C"/>
</svg>
