<svg width="74" height="74" viewBox="0 0 74 74" fill="none" xmlns="http://www.w3.org/2000/svg">
<g clip-path="url(#clip0)">
<path d="M56.873 0.0690918H17.8439C8.47211 0.0690918 0.874756 7.66645 0.874756 17.0383V56.0673C0.874756 65.4391 8.47212 73.0365 17.8439 73.0365H56.873C66.2448 73.0365 73.8422 65.4391 73.8422 56.0673V17.0383C73.8422 7.66644 66.2448 0.0690918 56.873 0.0690918Z" fill="#4DA3F3"/>
<path d="M10.5419 54.1579C15.398 57.2378 21.1585 59.0201 27.3335 59.0201C44.6813 59.0201 58.744 44.9558 58.744 27.6096C58.744 27.1765 58.7349 26.7466 58.7182 26.318C59.3457 25.8242 63.2264 22.7137 64.1777 20.7141C64.1777 20.7141 61.0262 22.0238 57.9418 22.3324C57.9357 22.3324 57.9282 22.3338 57.9221 22.3338C57.9221 22.3338 57.9282 22.3308 57.9388 22.3232C58.223 22.1333 62.1963 19.4286 62.7343 16.2059C62.7343 16.2059 60.5052 17.3957 57.3842 18.4366C56.8675 18.6082 56.3266 18.7769 55.769 18.9334C53.7572 16.7863 50.8976 15.4462 47.7234 15.4462C41.6349 15.4462 36.7012 20.3784 36.7012 26.4623C36.7012 27.3208 36.8 28.1564 36.9869 28.9587C36.136 28.9238 23.1794 28.1974 14.365 17.5231C14.365 17.5231 9.09702 24.7148 17.5043 32.11C17.5043 32.11 14.9486 32.0082 12.7437 30.6908C12.7437 30.6908 11.9339 39.4034 21.4548 41.631C21.4548 41.631 19.5814 42.3406 16.5926 41.8347C16.5926 41.8347 18.264 48.8744 26.723 49.5323C26.723 49.5323 20.034 55.5749 10.5388 54.1571L10.5419 54.1579Z" fill="white"/>
</g>
<defs>
<clipPath id="clip0">
<rect width="72.9674" height="72.9674" fill="white" transform="translate(0.874756 0.0690918)"/>
</clipPath>
</defs>
</svg>
