<svg width="82" height="97" viewBox="0 0 82 97" fill="none" xmlns="http://www.w3.org/2000/svg">
<mask id="mask0" mask-type="alpha" maskUnits="userSpaceOnUse" x="41" y="58" width="41" height="39">
<path d="M41 58.1949H82V96.9985H41V58.1949Z" fill="url(#paint0_linear)"/>
</mask>
<g mask="url(#mask0)">
<path d="M7.89982 65.8927C8.20395 64.5608 9.38867 63.6161 10.7549 63.6161H71.9773C73.3435 63.6161 74.5282 64.5608 74.8324 65.8927L81.1825 93.7034C81.6011 95.5368 80.2079 97.2839 78.3274 97.2839H4.40479C2.52425 97.2839 1.13108 95.5368 1.5497 93.7034L7.89982 65.8927Z" fill="url(#paint1_linear)"/>
</g>
<mask id="mask1" mask-type="alpha" maskUnits="userSpaceOnUse" x="0" y="58" width="41" height="39">
<path d="M41 58.1949H0V96.9985H41V58.1949Z" fill="url(#paint2_linear)"/>
</mask>
<g mask="url(#mask1)">
<path d="M74.1002 65.8927C73.7961 64.5608 72.6113 63.6161 71.2451 63.6161H10.0227C8.6565 63.6161 7.47179 64.5608 7.16765 65.8927L0.817535 93.7034C0.398918 95.5368 1.79208 97.2839 3.67262 97.2839H77.5952C79.4757 97.2839 80.8689 95.5368 80.4503 93.7034L74.1002 65.8927Z" fill="url(#paint3_linear)"/>
</g>
<path fill-rule="evenodd" clip-rule="evenodd" d="M41.3475 83.1949C47.3531 83.1949 71.5763 60.2797 71.5763 30.7288C71.5763 14.0339 58.0424 0.5 41.3475 0.5C24.6526 0.5 11.1187 14.0339 11.1187 30.7288C11.1187 60.2797 35.3419 83.1949 41.3475 83.1949ZM41.6949 41.5C48.2194 41.5 53.5085 36.2109 53.5085 29.6864C53.5085 23.162 48.2194 17.8729 41.6949 17.8729C35.1705 17.8729 29.8814 23.162 29.8814 29.6864C29.8814 36.2109 35.1705 41.5 41.6949 41.5Z" fill="url(#paint4_linear)"/>
<defs>
<linearGradient id="paint0_linear" x1="61.5" y1="58.1949" x2="61.5" y2="96.9985" gradientUnits="userSpaceOnUse">
<stop stop-color="#F8B2B2"/>
<stop offset="1" stop-color="#D56D6D"/>
</linearGradient>
<linearGradient id="paint1_linear" x1="41.3661" y1="63.6161" x2="41.3661" y2="97.2839" gradientUnits="userSpaceOnUse">
<stop stop-color="#E6E6E6"/>
<stop offset="1" stop-color="#BEB3B3"/>
</linearGradient>
<linearGradient id="paint2_linear" x1="20.5" y1="58.1949" x2="20.5" y2="96.9985" gradientUnits="userSpaceOnUse">
<stop stop-color="#F8B2B2"/>
<stop offset="1" stop-color="#D56D6D"/>
</linearGradient>
<linearGradient id="paint3_linear" x1="40.6339" y1="63.6161" x2="40.6339" y2="97.2839" gradientUnits="userSpaceOnUse">
<stop stop-color="#E6E6E6"/>
<stop offset="1" stop-color="#BEB3B3"/>
</linearGradient>
<linearGradient id="paint4_linear" x1="41.3475" y1="0.5" x2="41.3475" y2="83.1949" gradientUnits="userSpaceOnUse">
<stop stop-color="#FF8989"/>
<stop offset="1" stop-color="#CC3434"/>
</linearGradient>
</defs>
</svg>
