<svg xmlns="http://www.w3.org/2000/svg" width="71.757" height="73.555" viewBox="0 0 71.757 73.555">
    <path fill="#c3c3c3" d="M450 135.534c0-6.337 6.961-11.516 18.8-14.2a42.82 42.82 0 0 1-5.6-17.993c-.86-12.766 8.7-24.34 20.88-25.273a22.489 22.489 0 0 1 17.237 6.012 22.951 22.951 0 0 1 7.29 16.756 41.978 41.978 0 0 1-5.665 20.5c11.7 2.675 18.812 7.943 18.812 14.2 0 10.405-18.485 16.02-35.878 16.02S450 145.939 450 135.534zm5.771 0c0 4.17 11.728 10.226 30.108 10.226s30.107-6.056 30.107-10.226c0-2.924-5.72-6.943-16.352-8.979a65.224 65.224 0 0 1-9.933 10.958 5.83 5.83 0 0 1-7.658.015 65.457 65.457 0 0 1-9.927-10.967c-10.621 2.039-16.345 6.07-16.345 8.973zm28.752-51.687c-9.087.7-16.214 9.446-15.561 19.1 1 14.817 12.132 26.063 16.873 30.21 5.165-4.469 17-16.536 17-32.322a17.131 17.131 0 0 0-5.442-12.5 16.769 16.769 0 0 0-11.521-4.539c-.446-.001-.896.016-1.35.051zm-8.916 17.132a10.272 10.272 0 1 1 10.272 10.313 10.305 10.305 0 0 1-10.272-10.313zm5.771 0a4.5 4.5 0 1 0 4.5-4.519 4.516 4.516 0 0 0-4.5 4.519z" transform="translate(-450 -78)"/>
</svg>
