<svg width="52" height="61" viewBox="0 0 52 61" fill="none" xmlns="http://www.w3.org/2000/svg">
<mask id="mask0" mask-type="alpha" maskUnits="userSpaceOnUse" x="25" y="36" width="27" height="25">
<path d="M25.8145 36.3262H51.6291V60.758H25.8145V36.3262Z" fill="url(#paint0_linear)"/>
</mask>
<g mask="url(#mask0)">
<path d="M4.97347 41.1729C5.16496 40.3343 5.91089 39.7395 6.77111 39.7395H45.3183C46.1785 39.7395 46.9245 40.3343 47.1159 41.1729L51.1141 58.6833C51.3777 59.8376 50.5005 60.9376 49.3165 60.9376H2.77291C1.58887 60.9376 0.7117 59.8376 0.975272 58.6833L4.97347 41.1729Z" fill="url(#paint1_linear)"/>
</g>
<mask id="mask1" mask-type="alpha" maskUnits="userSpaceOnUse" x="0" y="36" width="26" height="25">
<path d="M25.8145 36.3262H-0.000219345V60.758H25.8145V36.3262Z" fill="url(#paint2_linear)"/>
</mask>
<g mask="url(#mask1)">
<path d="M46.6549 41.1729C46.4635 40.3343 45.7175 39.7395 44.8573 39.7395H6.31011C5.44989 39.7395 4.70396 40.3343 4.51247 41.1729L0.514271 58.6833C0.250698 59.8376 1.12787 60.9376 2.31191 60.9376H48.8555C50.0395 60.9376 50.9167 59.8376 50.6531 58.6833L46.6549 41.1729Z" fill="url(#paint3_linear)"/>
</g>
<path fill-rule="evenodd" clip-rule="evenodd" d="M26.0333 52.0669C29.8146 52.0669 45.0662 37.6389 45.0662 19.0329C45.0662 8.5213 36.5449 0 26.0333 0C15.5218 0 7.00049 8.5213 7.00049 19.0329C7.00049 37.6389 22.2521 52.0669 26.0333 52.0669ZM26.2524 25.8147C30.3604 25.8147 33.6906 22.4846 33.6906 18.3766C33.6906 14.2686 30.3604 10.9385 26.2524 10.9385C22.1445 10.9385 18.8143 14.2686 18.8143 18.3766C18.8143 22.4846 22.1445 25.8147 26.2524 25.8147Z" fill="url(#paint4_linear)"/>
<defs>
<linearGradient id="paint0_linear" x1="38.7218" y1="36.3262" x2="38.7218" y2="60.758" gradientUnits="userSpaceOnUse">
<stop stop-color="#F8B2B2"/>
<stop offset="1" stop-color="#D56D6D"/>
</linearGradient>
<linearGradient id="paint1_linear" x1="26.0447" y1="39.7395" x2="26.0447" y2="60.9376" gradientUnits="userSpaceOnUse">
<stop stop-color="#E6E6E6"/>
<stop offset="1" stop-color="#BEB3B3"/>
</linearGradient>
<linearGradient id="paint2_linear" x1="12.9071" y1="36.3262" x2="12.9071" y2="60.758" gradientUnits="userSpaceOnUse">
<stop stop-color="#F8B2B2"/>
<stop offset="1" stop-color="#D56D6D"/>
</linearGradient>
<linearGradient id="paint3_linear" x1="25.5837" y1="39.7395" x2="25.5837" y2="60.9376" gradientUnits="userSpaceOnUse">
<stop stop-color="#E6E6E6"/>
<stop offset="1" stop-color="#BEB3B3"/>
</linearGradient>
<linearGradient id="paint4_linear" x1="26.0333" y1="0" x2="26.0333" y2="52.0669" gradientUnits="userSpaceOnUse">
<stop stop-color="#FF8989"/>
<stop offset="1" stop-color="#CC3434"/>
</linearGradient>
</defs>
</svg>
