<svg width="99" height="110" viewBox="0 0 99 110" fill="none" xmlns="http://www.w3.org/2000/svg">
<path d="M61 60.5C61 58.2909 62.7909 56.5 65 56.5H80C82.2091 56.5 84 58.2909 84 60.5V102.5C84 104.709 82.2091 106.5 80 106.5H65C62.7909 106.5 61 104.709 61 102.5V60.5Z" fill="url(#paint0_linear)"/>
<path d="M34 38.5C34 36.2909 35.7909 34.5 38 34.5H53C55.2091 34.5 57 36.2909 57 38.5V102.5C57 104.709 55.2091 106.5 53 106.5H38C35.7909 106.5 34 104.709 34 102.5V38.5Z" fill="url(#paint1_linear)"/>
<path d="M7 57.5C7 55.2909 8.79086 53.5 11 53.5H26C28.2091 53.5 30 55.2909 30 57.5V102.5C30 104.709 28.2091 106.5 26 106.5H11C8.79086 106.5 7 104.709 7 102.5V57.5Z" fill="url(#paint2_linear)"/>
<path d="M0 106C0 103.791 1.79086 102 4 102H87C89.2091 102 91 103.791 91 106C91 108.209 89.2091 110 87 110H4C1.79086 110 0 108.209 0 106Z" fill="#C4C4C4"/>
<path fill-rule="evenodd" clip-rule="evenodd" d="M46.682 1.31802C44.9246 -0.43934 42.0754 -0.43934 40.318 1.31802L10.318 31.318C8.56066 33.0754 8.56066 35.9246 10.318 37.682C12.0754 39.4393 14.9246 39.4393 16.682 37.682L43.5 10.864L70.318 37.682C72.0754 39.4393 74.9246 39.4393 76.682 37.682L90 24.364V27.5C90 29.9853 92.0147 32 94.5 32C96.9853 32 99 29.9853 99 27.5V13.5C99 11.0147 96.9853 9 94.5 9H80.5C78.0147 9 76 11.0147 76 13.5C76 15.9853 78.0147 18 80.5 18H83.636L73.5 28.136L46.682 1.31802Z" fill="url(#paint3_linear)"/>
<defs>
<linearGradient id="paint0_linear" x1="72.5" y1="56.5" x2="72.5" y2="106.5" gradientUnits="userSpaceOnUse">
<stop stop-color="#6BAFFF"/>
<stop offset="1" stop-color="#1868C6"/>
</linearGradient>
<linearGradient id="paint1_linear" x1="45.5" y1="34.5" x2="45.5" y2="106.5" gradientUnits="userSpaceOnUse">
<stop stop-color="#6BAFFF"/>
<stop offset="1" stop-color="#1868C6"/>
</linearGradient>
<linearGradient id="paint2_linear" x1="18.5" y1="53.5" x2="18.5" y2="106.5" gradientUnits="userSpaceOnUse">
<stop stop-color="#6BAFFF"/>
<stop offset="1" stop-color="#1868C6"/>
</linearGradient>
<linearGradient id="paint3_linear" x1="11" y1="2" x2="98.5" y2="35.5" gradientUnits="userSpaceOnUse">
<stop stop-color="#FFB986"/>
<stop offset="1" stop-color="#EE933E"/>
</linearGradient>
</defs>
</svg>
