<svg width="66" height="71" viewBox="0 0 66 71" fill="none" xmlns="http://www.w3.org/2000/svg">
<rect x="40.2358" y="37.2679" width="15.171" height="32.9804" rx="4" fill="url(#paint0_linear)"/>
<rect x="22.4268" y="22.7565" width="15.171" height="47.4917" rx="4" fill="url(#paint1_linear)"/>
<rect x="4.61719" y="35.2891" width="15.171" height="34.9592" rx="4" fill="url(#paint2_linear)"/>
<rect y="64.9713" width="60.0243" height="5.27686" rx="2.63843" fill="#C4C4C4"/>
<path fill-rule="evenodd" clip-rule="evenodd" d="M30.7918 0.869375C29.6327 -0.289792 27.7533 -0.289792 26.5941 0.869375L6.8059 20.6576C5.64673 21.8168 5.64673 23.6962 6.8059 24.8553C7.96507 26.0145 9.84445 26.0145 11.0036 24.8553L28.693 7.16595L46.3824 24.8553C47.5415 26.0145 49.4209 26.0145 50.5801 24.8553L59.3648 16.0706V18.1392C59.3648 19.7785 60.6938 21.1075 62.3331 21.1075C63.9724 21.1075 65.3013 19.7785 65.3013 18.1392V8.90473C65.3013 7.26542 63.9724 5.9365 62.3331 5.9365H53.0986C51.4593 5.9365 50.1303 7.26542 50.1303 8.90473C50.1303 10.544 51.4593 11.873 53.0986 11.873H55.167L48.4812 18.5587L30.7918 0.869375Z" fill="url(#paint3_linear)"/>
<defs>
<linearGradient id="paint0_linear" x1="47.8213" y1="37.2679" x2="47.8213" y2="70.2483" gradientUnits="userSpaceOnUse">
<stop stop-color="#6BAFFF"/>
<stop offset="1" stop-color="#1868C6"/>
</linearGradient>
<linearGradient id="paint1_linear" x1="30.0122" y1="22.7565" x2="30.0122" y2="70.2482" gradientUnits="userSpaceOnUse">
<stop stop-color="#6BAFFF"/>
<stop offset="1" stop-color="#1868C6"/>
</linearGradient>
<linearGradient id="paint2_linear" x1="12.2027" y1="35.2891" x2="12.2027" y2="70.2483" gradientUnits="userSpaceOnUse">
<stop stop-color="#6BAFFF"/>
<stop offset="1" stop-color="#1868C6"/>
</linearGradient>
<linearGradient id="paint3_linear" x1="7.25574" y1="1.31922" x2="64.9715" y2="23.4161" gradientUnits="userSpaceOnUse">
<stop stop-color="#FFB986"/>
<stop offset="1" stop-color="#EE933E"/>
</linearGradient>
</defs>
</svg>
