<svg width="60" height="60" viewBox="0 0 60 60" fill="none" xmlns="http://www.w3.org/2000/svg">
<path d="M0.455566 10C0.455566 4.47716 4.93272 0 10.4556 0H28.9046V28.449H0.455566V10Z" fill="url(#paint0_linear)"/>
<path d="M0.455566 28.449H28.9046V56.898H10.4556C4.93273 56.898 0.455566 52.4208 0.455566 46.898V28.449Z" fill="url(#paint1_linear)"/>
<path d="M28.9043 0H47.3533C52.8761 0 57.3533 4.47715 57.3533 10V28.449H28.9043V0Z" fill="url(#paint2_linear)"/>
<rect x="26.2583" y="25.8025" width="33.7418" height="33.7418" rx="8" fill="url(#paint3_linear)"/>
<path fill-rule="evenodd" clip-rule="evenodd" d="M16.3343 9.59334C16.3343 8.67986 15.5938 7.93933 14.6803 7.93933C13.7668 7.93933 13.0263 8.67986 13.0263 9.59334V12.5706H10.049C9.13555 12.5706 8.39502 13.3111 8.39502 14.2246C8.39502 15.1381 9.13554 15.8786 10.049 15.8786H13.0263V18.8558C13.0263 19.7693 13.7668 20.5098 14.6803 20.5098C15.5938 20.5098 16.3343 19.7693 16.3343 18.8558V15.8786H19.3115C20.225 15.8786 20.9655 15.1381 20.9655 14.2246C20.9655 13.3111 20.225 12.5706 19.3115 12.5706H16.3343V9.59334Z" fill="white"/>
<path fill-rule="evenodd" clip-rule="evenodd" d="M19.1244 40.5682C19.7704 39.9222 19.7704 38.875 19.1244 38.229C18.4785 37.5831 17.4312 37.5831 16.7853 38.229L14.6801 40.3342L12.575 38.2291C11.9291 37.5831 10.8818 37.5831 10.2359 38.2291C9.58996 38.875 9.58996 39.9223 10.2359 40.5682L12.341 42.6733L10.2357 44.7786C9.58981 45.4245 9.58981 46.4718 10.2357 47.1177C10.8817 47.7636 11.9289 47.7636 12.5749 47.1177L14.6801 45.0124L16.7854 47.1177C17.4314 47.7637 18.4786 47.7637 19.1246 47.1177C19.7705 46.4718 19.7705 45.4246 19.1246 44.7786L17.0193 42.6733L19.1244 40.5682Z" fill="white"/>
<path fill-rule="evenodd" clip-rule="evenodd" d="M37.923 36.9851C36.8285 36.983 35.9429 37.8686 35.945 38.9631C35.947 40.0576 36.836 40.9466 37.9305 40.9486L49.0283 40.9695C50.1228 40.9715 51.0084 40.0859 51.0063 38.9914C51.0043 37.8969 50.1153 37.008 49.0208 37.0059L37.923 36.9851ZM37.9379 44.9121C36.8434 44.91 35.9578 45.7956 35.9598 46.8901C35.9619 47.9846 36.8508 48.8735 37.9453 48.8756L49.0432 48.8964C50.1376 48.8985 51.0232 48.0129 51.0212 46.9184C51.0191 45.8239 50.1302 44.935 49.0357 44.9329L37.9379 44.9121Z" fill="white"/>
<path d="M36.8438 14.2246C36.8438 13.3111 37.5843 12.5706 38.4978 12.5706H47.7602C48.6737 12.5706 49.4142 13.3111 49.4142 14.2246C49.4142 15.1381 48.6737 15.8786 47.7602 15.8786H38.4978C37.5843 15.8786 36.8438 15.1381 36.8438 14.2246Z" fill="white"/>
<defs>
<linearGradient id="paint0_linear" x1="14.6801" y1="0" x2="14.6801" y2="28.449" gradientUnits="userSpaceOnUse">
<stop stop-color="#BDBCBC"/>
<stop offset="1" stop-color="#818181"/>
</linearGradient>
<linearGradient id="paint1_linear" x1="14.6801" y1="28.449" x2="14.6801" y2="56.898" gradientUnits="userSpaceOnUse">
<stop stop-color="#555555"/>
<stop offset="1" stop-color="#313131"/>
</linearGradient>
<linearGradient id="paint2_linear" x1="43.1288" y1="0" x2="43.1288" y2="28.449" gradientUnits="userSpaceOnUse">
<stop stop-color="#767676"/>
<stop offset="1" stop-color="#5A5A5A"/>
</linearGradient>
<linearGradient id="paint3_linear" x1="43.1292" y1="25.8025" x2="43.1292" y2="59.5443" gradientUnits="userSpaceOnUse">
<stop stop-color="#73FFEE"/>
<stop offset="1" stop-color="#25D9C3"/>
</linearGradient>
</defs>
</svg>
