<svg width="92" height="96" viewBox="0 0 92 96" fill="none" xmlns="http://www.w3.org/2000/svg">
<path d="M0 26.5C0 18.2157 6.71573 11.5 15 11.5H77C85.2843 11.5 92 18.2157 92 26.5V80.5C92 88.7843 85.2843 95.5 77 95.5H15C6.71573 95.5 0 88.7843 0 80.5V26.5Z" fill="url(#paint0_linear)"/>
<path d="M0 26.5C0 18.2157 6.71573 11.5 15 11.5H77C85.2843 11.5 92 18.2157 92 26.5V42.5H0V26.5Z" fill="url(#paint1_linear)"/>
<path d="M18 4.5C18 2.29086 19.7909 0.5 22 0.5C24.2091 0.5 26 2.29086 26 4.5V11.5H18V4.5Z" fill="url(#paint2_linear)"/>
<path d="M65 4.5C65 2.29086 66.7909 0.5 69 0.5C71.2091 0.5 73 2.29086 73 4.5V11.5H65V4.5Z" fill="url(#paint3_linear)"/>
<circle cx="19" cy="57.5" r="5" fill="url(#paint4_linear)"/>
<circle cx="19" cy="77.5" r="5" fill="url(#paint5_linear)"/>
<circle cx="46" cy="57.5" r="5" fill="url(#paint6_linear)"/>
<circle cx="46" cy="77.5" r="5" fill="url(#paint7_linear)"/>
<circle cx="73" cy="57.5" r="5" fill="url(#paint8_linear)"/>
<defs>
<linearGradient id="paint0_linear" x1="5.99772e-07" y1="22" x2="81" y2="95.5" gradientUnits="userSpaceOnUse">
<stop stop-color="white"/>
<stop offset="1" stop-color="#EAEAEA"/>
</linearGradient>
<linearGradient id="paint1_linear" x1="46" y1="11.5" x2="46" y2="42.5" gradientUnits="userSpaceOnUse">
<stop stop-color="#EB3737"/>
<stop offset="1" stop-color="#C90C0C"/>
</linearGradient>
<linearGradient id="paint2_linear" x1="22" y1="0.5" x2="22" y2="11.5" gradientUnits="userSpaceOnUse">
<stop stop-color="#6A6A6A"/>
<stop offset="1" stop-color="#2F2E2E"/>
</linearGradient>
<linearGradient id="paint3_linear" x1="69" y1="0.5" x2="69" y2="11.5" gradientUnits="userSpaceOnUse">
<stop stop-color="#6A6A6A"/>
<stop offset="1" stop-color="#2F2E2E"/>
</linearGradient>
<linearGradient id="paint4_linear" x1="19" y1="52.5" x2="19" y2="62.5" gradientUnits="userSpaceOnUse">
<stop stop-color="#6A6A6A"/>
<stop offset="1" stop-color="#2F2E2E"/>
</linearGradient>
<linearGradient id="paint5_linear" x1="19" y1="72.5" x2="19" y2="82.5" gradientUnits="userSpaceOnUse">
<stop stop-color="#6A6A6A"/>
<stop offset="1" stop-color="#2F2E2E"/>
</linearGradient>
<linearGradient id="paint6_linear" x1="46" y1="52.5" x2="46" y2="62.5" gradientUnits="userSpaceOnUse">
<stop stop-color="#6A6A6A"/>
<stop offset="1" stop-color="#2F2E2E"/>
</linearGradient>
<linearGradient id="paint7_linear" x1="46" y1="72.5" x2="46" y2="82.5" gradientUnits="userSpaceOnUse">
<stop stop-color="#6A6A6A"/>
<stop offset="1" stop-color="#2F2E2E"/>
</linearGradient>
<linearGradient id="paint8_linear" x1="73" y1="52.5" x2="73" y2="62.5" gradientUnits="userSpaceOnUse">
<stop stop-color="#6A6A6A"/>
<stop offset="1" stop-color="#2F2E2E"/>
</linearGradient>
</defs>
</svg>
