<svg width="70" height="70" viewBox="0 0 70 70" fill="none" xmlns="http://www.w3.org/2000/svg">
<path d="M0 15.9091C0 7.12274 7.12274 0 15.9091 0H54.0909C62.8773 0 70 7.12274 70 15.9091V54.0909C70 62.8773 62.8773 70 54.0909 70H15.9091C7.12274 70 0 62.8773 0 54.0909V15.9091Z" fill="url(#paint0_linear)"/>
<path d="M18.0548 26.4562L19.958 27.0912C20.0555 27.1235 20.1403 27.1858 20.2005 27.2692C20.2606 27.3525 20.2929 27.4526 20.2929 27.5554C20.2929 27.6581 20.2606 27.7583 20.2005 27.8416C20.1403 27.925 20.0555 27.9872 19.958 28.0196L18.0548 28.6553C17.9828 28.6792 17.9174 28.7195 17.8638 28.7732C17.8102 28.8268 17.7698 28.8922 17.7459 28.9642L17.111 30.8674C17.0783 30.9647 17.0158 31.0492 16.9325 31.1092C16.8491 31.1691 16.749 31.2013 16.6464 31.2013C16.5437 31.2013 16.4436 31.1691 16.3603 31.1092C16.2769 31.0492 16.2145 30.9647 16.1818 30.8674L15.5478 28.9642C15.5238 28.8921 15.4833 28.8266 15.4295 28.773C15.3757 28.7194 15.3101 28.6791 15.238 28.6553L13.3355 28.0204C13.2379 27.9881 13.1529 27.9259 13.0927 27.8425C13.0324 27.7592 13 27.659 13 27.5561C13 27.4533 13.0324 27.3531 13.0927 27.2697C13.1529 27.1864 13.2379 27.1242 13.3355 27.0919L15.2377 26.4569C15.3098 26.433 15.3753 26.3927 15.4291 26.3391C15.4829 26.2855 15.5234 26.2201 15.5475 26.1481L16.1815 24.2449C16.2141 24.1475 16.2765 24.0627 16.3599 24.0027C16.4433 23.9427 16.5434 23.9104 16.6461 23.9104C16.7489 23.9104 16.849 23.9427 16.9324 24.0027C17.0157 24.0627 17.0781 24.1475 17.1107 24.2449L17.7457 26.1481C17.7698 26.2199 17.8102 26.2852 17.8638 26.3388C17.9174 26.3924 17.9827 26.4328 18.0545 26.4569" fill="#F3C976"/>
<path d="M49.0865 20.547L50.9897 21.182C51.0869 21.2146 51.1715 21.277 51.2314 21.3603C51.2913 21.4436 51.3236 21.5436 51.3236 21.6462C51.3236 21.7488 51.2913 21.8488 51.2314 21.9321C51.1715 22.0154 51.0869 22.0778 50.9897 22.1104L49.0865 22.7461C49.0145 22.77 48.9491 22.8104 48.8955 22.864C48.8418 22.9176 48.8015 22.983 48.7776 23.055L48.1419 24.9582C48.1093 25.0555 48.0469 25.14 47.9636 25.1999C47.8803 25.2599 47.7803 25.2921 47.6777 25.2921C47.5751 25.2921 47.4751 25.2599 47.3918 25.1999C47.3085 25.14 47.2461 25.0555 47.2135 24.9582L46.5785 23.055C46.5546 22.983 46.5143 22.9176 46.4607 22.864C46.407 22.8104 46.3416 22.77 46.2696 22.7461L44.3665 22.1104C44.2689 22.078 44.1841 22.0158 44.124 21.9324C44.0638 21.8491 44.0315 21.749 44.0315 21.6462C44.0315 21.5434 44.0638 21.4433 44.124 21.36C44.1841 21.2766 44.2689 21.2144 44.3665 21.182L46.2696 20.547C46.3416 20.5231 46.407 20.4828 46.4607 20.4292C46.5143 20.3755 46.5546 20.3101 46.5785 20.2382L47.2135 18.335C47.2459 18.2374 47.3081 18.1526 47.3915 18.0925C47.4748 18.0324 47.5749 18 47.6777 18C47.7805 18 47.8806 18.0324 47.9639 18.0925C48.0473 18.1526 48.1095 18.2374 48.1419 18.335L48.7776 20.2382C48.8015 20.3101 48.8418 20.3755 48.8955 20.4292C48.9491 20.4828 49.0145 20.5231 49.0865 20.547Z" fill="#F3C976"/>
<path d="M25.675 19.2489C25.675 19.4958 25.6018 19.7372 25.4646 19.9425C25.3274 20.1478 25.1324 20.3079 24.9043 20.4024C24.6761 20.4969 24.4251 20.5216 24.1829 20.4734C23.9407 20.4252 23.7183 20.3063 23.5437 20.1317C23.3691 19.9571 23.2501 19.7346 23.202 19.4925C23.1538 19.2503 23.1785 18.9992 23.273 18.7711C23.3675 18.543 23.5275 18.348 23.7329 18.2108C23.9382 18.0736 24.1796 18.0004 24.4265 18.0004C24.5905 18.0003 24.7528 18.0326 24.9044 18.0953C25.0559 18.158 25.1935 18.25 25.3095 18.3659C25.4254 18.4819 25.5174 18.6195 25.5801 18.771C25.6428 18.9225 25.6751 19.0849 25.675 19.2489Z" fill="#EAD7AC"/>
<path d="M51.3242 31.2013C51.3242 31.4482 51.251 31.6896 51.1138 31.8949C50.9766 32.1002 50.7816 32.2603 50.5534 32.3547C50.3253 32.4492 50.0743 32.474 49.8321 32.4258C49.5899 32.3776 49.3674 32.2587 49.1928 32.0841C49.0182 31.9095 48.8993 31.687 48.8511 31.4448C48.803 31.2027 48.8277 30.9516 48.9222 30.7235C49.0167 30.4954 49.1767 30.3004 49.382 30.1632C49.5873 30.026 49.8287 29.9528 50.0757 29.9528C50.2396 29.9527 50.402 29.9849 50.5535 30.0477C50.705 30.1104 50.8427 30.2023 50.9586 30.3183C51.0746 30.4342 51.1665 30.5719 51.2293 30.7234C51.292 30.8749 51.3242 31.0373 51.3242 31.2013Z" fill="#EAD7AC"/>
<path d="M41.3573 28.0732C41.3573 28.0493 41.3633 28.0285 41.3633 28.0042C41.3634 27.3212 41.0921 26.6662 40.6093 26.1832C40.1264 25.7001 39.4715 25.4287 38.7885 25.4285H30.3649C29.6819 25.4287 29.0269 25.7001 28.5441 26.1832C28.0612 26.6662 27.79 27.3212 27.7901 28.0042C27.7901 28.0281 27.7951 28.0505 27.7961 28.0732C25.0662 29.5774 22.9139 31.9466 21.6781 34.8081C20.4423 37.6695 20.1931 40.8606 20.9697 43.8792C21.7463 46.8978 23.5046 49.5725 25.9679 51.4823C28.4312 53.392 31.4596 54.4285 34.5765 54.4285C37.6933 54.4285 40.7218 53.392 43.185 51.4823C45.6483 49.5725 47.4066 46.8978 48.1832 43.8792C48.9598 40.8606 48.7106 37.6695 47.4748 34.8081C46.239 31.9466 44.0868 29.5774 41.3569 28.0732H41.3573ZM34.5765 49.3722C32.7962 49.3723 31.0559 48.8444 29.5756 47.8554C28.0953 46.8664 26.9415 45.4606 26.2602 43.8159C25.5789 42.1711 25.4006 40.3613 25.7479 38.6152C26.0952 36.8691 26.9525 35.2653 28.2114 34.0064C29.4703 32.7476 31.0742 31.8903 32.8202 31.5431C34.5663 31.1958 36.3762 31.3741 38.0209 32.0555C39.6656 32.7369 41.0714 33.8907 42.0604 35.371C43.0493 36.8513 43.5771 38.5916 43.577 40.3719C43.5742 42.7582 42.625 45.0459 40.9375 46.7332C39.2501 48.4205 36.9623 49.3696 34.576 49.3722" fill="#C78C49"/>
<g opacity="0.06">
<g opacity="0.06">
<g opacity="0.06">
<path opacity="0.06" d="M41.6032 28.0754C41.6032 28.0515 41.6099 28.03 41.6099 28.0064C41.6099 27.3227 41.3384 26.6669 40.8551 26.1832C40.3718 25.6996 39.7163 25.4276 39.0325 25.4271H35.3879C35.7266 25.4271 36.062 25.4938 36.3749 25.6235C36.6879 25.7531 36.9722 25.9431 37.2117 26.1826C37.4512 26.4221 37.6412 26.7064 37.7708 27.0193C37.9004 27.3323 37.9671 27.6677 37.9671 28.0064C37.9671 28.0303 37.9605 28.0527 37.9605 28.0754C40.5556 29.5025 42.6332 31.7136 43.896 34.3926C45.1589 37.0716 45.5424 40.0812 44.9917 42.9913C44.441 45.9013 42.9843 48.5627 40.8299 50.5951C38.6756 52.6274 35.9338 53.9265 32.9966 54.3067C36.243 54.7345 39.5369 54.0147 42.3089 52.2715C45.0809 50.5284 47.1567 47.8715 48.1775 44.7602C49.1984 41.6489 49.1001 38.2787 47.8996 35.2321C46.6992 32.1856 44.472 29.6543 41.6032 28.0756" fill="#070203"/>
</g>
</g>
</g>
<defs>
<linearGradient id="paint0_linear" x1="35" y1="0" x2="35" y2="70" gradientUnits="userSpaceOnUse">
<stop stop-color="#FFFBE6"/>
<stop offset="1" stop-color="#FFF0BB"/>
</linearGradient>
</defs>
</svg>
