<svg width="110" height="110" viewBox="0 0 110 110" fill="none" xmlns="http://www.w3.org/2000/svg">
<rect width="110" height="110" rx="25" fill="url(#paint0_linear)"/>
<path d="M45.8903 34.0911C45.3276 34.4076 44.8593 34.8641 44.5323 35.4149L41.5585 40.4248C41.1575 41.1032 40.9901 41.891 41.0814 42.6707H50.9824L45.8903 34.0911Z" fill="#CCE1F5"/>
<path d="M41.0828 42.6707C41.1638 43.3992 41.4669 44.0864 41.9522 44.6422L53.5555 57.9016C54.1269 58.551 54.915 58.9784 55.7781 59.1069L50.9833 42.6707H41.0828Z" fill="#85B9E4"/>
<path d="M71.6398 42.6707C71.7308 41.8912 71.5635 41.1035 71.1628 40.4251L68.1893 35.4149C67.8623 34.8641 67.394 34.4076 66.8313 34.0911L61.7393 42.6707H71.6398Z" fill="#CCE1F5"/>
<path d="M61.7396 42.6699L56.3612 33.6085L50.9824 42.6699H61.7396Z" fill="#CCE1F5"/>
<path d="M61.7393 42.6707L56.9446 59.1069C57.8077 58.9779 58.5958 58.5502 59.1671 57.9006L70.7708 44.6422C71.2551 44.0859 71.5581 43.3989 71.6402 42.6707H61.7393Z" fill="#85B9E4"/>
<path d="M66.8311 34.091C66.2711 33.775 65.6368 33.6088 64.9914 33.6089H56.3606L61.7394 42.6703L66.8311 34.091Z" fill="#ABCFEE"/>
<path d="M56.3619 33.6089H47.7298C47.0843 33.6088 46.4501 33.775 45.8901 34.091L50.9822 42.6703L56.3619 33.6089Z" fill="#ABCFEE"/>
<path d="M50.9824 42.6707L55.7772 59.1069C56.1636 59.1663 56.5571 59.1663 56.9436 59.1069L61.7396 42.6707H50.9824Z" fill="#ABCFEE"/>
<g opacity="0.06">
<g opacity="0.06">
<g opacity="0.06">
<path opacity="0.06" d="M71.1631 40.4247L68.1896 35.4148C67.863 34.8654 67.396 34.4097 66.835 34.0929C66.2741 33.7761 65.6386 33.6092 64.9919 33.6089H58.5441C59.1909 33.6092 59.8263 33.7761 60.3873 34.0929C60.9482 34.4097 61.4152 34.8654 61.7418 35.4148L64.7143 40.4247C65.1001 41.0811 65.2695 41.8391 65.1992 42.5942C65.1289 43.3493 64.8224 44.0643 64.3219 44.6408L53.1377 57.424L53.5555 57.9015C54.1266 58.5507 54.9143 58.978 55.777 59.1065C56.1639 59.167 56.558 59.167 56.9448 59.1065C57.8077 58.9777 58.5957 58.5505 59.1673 57.9015L70.7719 44.6408C71.2725 44.0643 71.579 43.3493 71.6493 42.5942C71.7195 41.8391 71.5501 41.0811 71.1644 40.4247" fill="#070203"/>
</g>
</g>
</g>
<path d="M27.241 50.4254L29.8142 51.2707C29.9461 51.3138 30.0609 51.3967 30.1422 51.5077C30.2236 51.6186 30.2673 51.7519 30.2673 51.8887C30.2673 52.0255 30.2236 52.1588 30.1422 52.2697C30.0609 52.3807 29.9461 52.4636 29.8142 52.5067L27.241 53.3546C27.144 53.3864 27.0557 53.44 26.9832 53.511C26.9107 53.5821 26.856 53.6687 26.8233 53.7641L25.9643 56.2978C25.9202 56.4273 25.8358 56.5398 25.7231 56.6196C25.6105 56.6994 25.4752 56.7423 25.3364 56.7423C25.1976 56.7423 25.0623 56.6994 24.9496 56.6196C24.8369 56.5398 24.7525 56.4273 24.7084 56.2978L23.8494 53.7641C23.8168 53.6685 23.762 53.5817 23.6893 53.5106C23.6166 53.4395 23.528 53.3861 23.4307 53.3546L20.8562 52.5083C20.7243 52.4652 20.6095 52.3823 20.5282 52.2714C20.4468 52.1604 20.4031 52.0271 20.4031 51.8903C20.4031 51.7535 20.4468 51.6202 20.5282 51.5093C20.6095 51.3983 20.7243 51.3154 20.8562 51.2723L23.4307 50.427C23.528 50.3952 23.6165 50.3415 23.6891 50.2701C23.7616 50.1988 23.8162 50.1117 23.8485 50.0159L24.7074 47.4822C24.7515 47.3527 24.8359 47.2402 24.9486 47.1604C25.0613 47.0806 25.1966 47.0377 25.3354 47.0377C25.4742 47.0377 25.6095 47.0806 25.7221 47.1604C25.8348 47.2402 25.9192 47.3527 25.9634 47.4822L26.8233 50.0142C26.8559 50.1101 26.9107 50.1972 26.9835 50.2685C27.0562 50.3399 27.1449 50.3936 27.2424 50.4254" fill="#F3C976"/>
<path d="M48.9046 20.851L51.4791 21.6963C51.6107 21.7398 51.7251 21.8228 51.8061 21.9337C51.8872 22.0446 51.9308 22.1777 51.9308 22.3143C51.9308 22.4509 51.8872 22.5841 51.8061 22.695C51.7251 22.8059 51.6107 22.8889 51.4791 22.9323L48.9046 23.7786C48.8075 23.8104 48.7192 23.864 48.6468 23.9352C48.5744 24.0064 48.5198 24.0932 48.4875 24.1888L47.6276 26.7224C47.5837 26.8522 47.4995 26.9652 47.3868 27.0452C47.274 27.1253 47.1386 27.1683 46.9996 27.1683C46.8606 27.1683 46.7251 27.1253 46.6124 27.0452C46.4997 26.9652 46.4154 26.8522 46.3716 26.7224L45.5127 24.1888C45.4801 24.093 45.4254 24.0061 45.3526 23.9349C45.2799 23.8637 45.1913 23.8102 45.0939 23.7786L42.5207 22.9333C42.3887 22.8904 42.2737 22.8075 42.1922 22.6966C42.1108 22.5856 42.0669 22.4522 42.0669 22.3153C42.0669 22.1784 42.1108 22.045 42.1922 21.934C42.2737 21.8231 42.3887 21.7402 42.5207 21.6973L45.0939 20.852C45.1914 20.8201 45.28 20.7662 45.3525 20.6946C45.4251 20.6229 45.4796 20.5356 45.5117 20.4395L46.3706 17.9062C46.4144 17.7764 46.4987 17.6635 46.6114 17.5834C46.7241 17.5034 46.8596 17.4603 46.9986 17.4603C47.1376 17.4603 47.2731 17.5034 47.3858 17.5834C47.4985 17.6635 47.5827 17.7764 47.6266 17.9062L48.4875 20.4386C48.5196 20.5346 48.5741 20.622 48.6466 20.6936C48.7192 20.7652 48.8077 20.8191 48.9053 20.851" fill="#F3C976"/>
<path d="M84.0827 47.2129L86.6572 48.0592C86.7888 48.1026 86.9032 48.1857 86.9843 48.2966C87.0653 48.4075 87.1089 48.5406 87.1089 48.6772C87.1089 48.8138 87.0653 48.9469 86.9843 49.0578C86.9032 49.1687 86.7888 49.2518 86.6572 49.2952L84.0827 50.1415C83.9853 50.1733 83.8968 50.227 83.8243 50.2985C83.7518 50.3699 83.6972 50.4571 83.665 50.553L82.805 53.0866C82.7609 53.2161 82.6765 53.3287 82.5638 53.4084C82.4511 53.4882 82.3159 53.5311 82.1771 53.5311C82.0383 53.5311 81.903 53.4882 81.7903 53.4084C81.6776 53.3287 81.5932 53.2161 81.5491 53.0866L80.6915 50.553C80.6588 50.4571 80.604 50.37 80.5312 50.2987C80.4585 50.2273 80.3699 50.1736 80.2724 50.1418L77.6992 49.2955C77.5671 49.2526 77.4522 49.1697 77.3707 49.0588C77.2892 48.9478 77.2454 48.8144 77.2454 48.6775C77.2454 48.5406 77.2892 48.4072 77.3707 48.2963C77.4522 48.1853 77.5671 48.1025 77.6992 48.0595L80.2724 47.2132C80.3697 47.1815 80.4582 47.1279 80.531 47.0567C80.6037 46.9855 80.6586 46.8987 80.6915 46.8031L81.5491 44.2694C81.5927 44.1395 81.6769 44.0263 81.7896 43.9462C81.9024 43.866 82.038 43.8228 82.1771 43.8228C82.3162 43.8228 82.4517 43.866 82.5645 43.9462C82.6772 44.0263 82.7614 44.1395 82.805 44.2694L83.665 46.8031C83.6974 46.8987 83.752 46.9856 83.8245 47.0568C83.8971 47.128 83.9855 47.1816 84.0827 47.2132" fill="#F3C976"/>
<path d="M91.077 32.6252C91.077 32.9539 90.9779 33.2752 90.7924 33.5486C90.6068 33.8219 90.343 34.0349 90.0344 34.1607C89.7258 34.2865 89.3862 34.3194 89.0586 34.2553C88.731 34.1912 88.4301 34.0329 88.1939 33.8004C87.9577 33.568 87.7968 33.2718 87.7317 32.9494C87.6665 32.627 87.7 32.2928 87.8278 31.9891C87.9556 31.6854 88.1721 31.4258 88.4498 31.2432C88.7275 31.0606 89.0541 30.9631 89.3881 30.9631C89.6099 30.963 89.8296 31.0059 90.0345 31.0894C90.2395 31.1729 90.4257 31.2953 90.5825 31.4497C90.7394 31.6041 90.8638 31.7873 90.9486 31.989C91.0335 32.1907 91.0771 32.4069 91.077 32.6252Z" fill="#A6D9E7"/>
<path d="M94.9969 63.4886C94.9969 63.8173 94.8979 64.1387 94.7123 64.412C94.5267 64.6854 94.2629 64.8984 93.9543 65.0242C93.6457 65.15 93.3062 65.1829 92.9785 65.1188C92.6509 65.0546 92.35 64.8963 92.1138 64.6639C91.8776 64.4314 91.7168 64.1353 91.6516 63.8129C91.5864 63.4905 91.6199 63.1563 91.7477 62.8526C91.8755 62.5489 92.092 62.2893 92.3697 62.1066C92.6475 61.924 92.974 61.8265 93.308 61.8265C93.5298 61.8265 93.7495 61.8694 93.9544 61.9529C94.1594 62.0364 94.3456 62.1588 94.5024 62.3132C94.6593 62.4675 94.7837 62.6508 94.8685 62.8525C94.9534 63.0542 94.997 63.2703 94.9969 63.4886Z" fill="#A6D9E7"/>
<path d="M30.3148 32.6252C30.3148 32.9539 30.2157 33.2752 30.0302 33.5486C29.8446 33.8219 29.5808 34.0349 29.2722 34.1607C28.9636 34.2865 28.624 34.3194 28.2964 34.2553C27.9688 34.1912 27.6679 34.0329 27.4317 33.8004C27.1955 33.568 27.0346 33.2718 26.9695 32.9494C26.9043 32.627 26.9377 32.2928 27.0656 31.9891C27.1934 31.6854 27.4099 31.4258 27.6876 31.2432C27.9653 31.0606 28.2919 30.9631 28.6259 30.9631C29.0738 30.9631 29.5034 31.1382 29.8201 31.4499C30.1369 31.7616 30.3148 32.1843 30.3148 32.6252Z" fill="#A6D9E7"/>
<path d="M71.4762 25.5523C71.4762 25.881 71.3771 26.2024 71.1915 26.4757C71.006 26.749 70.7422 26.962 70.4336 27.0878C70.125 27.2136 69.7854 27.2466 69.4578 27.1824C69.1302 27.1183 68.8292 26.96 68.5931 26.7275C68.3569 26.4951 68.196 26.1989 68.1308 25.8765C68.0657 25.5541 68.0991 25.2199 68.2269 24.9162C68.3548 24.6125 68.5712 24.3529 68.849 24.1703C69.1267 23.9877 69.4532 23.8902 69.7873 23.8902C70.0091 23.8902 70.2287 23.9332 70.4336 24.0167C70.6385 24.1002 70.8247 24.2227 70.9815 24.377C71.1383 24.5313 71.2627 24.7146 71.3476 24.9162C71.4325 25.1179 71.4762 25.334 71.4762 25.5523Z" fill="#A6D9E7"/>
<path d="M65.7139 56.8975C65.7139 56.8651 65.7231 56.8359 65.7231 56.8025C65.7231 56.3434 65.6311 55.8889 65.4525 55.4647C65.274 55.0406 65.0122 54.6552 64.6823 54.3307C64.3524 54.0061 63.9607 53.7487 63.5297 53.5731C63.0986 53.3975 62.6367 53.3072 62.1702 53.3073H50.5531C50.0866 53.3072 49.6246 53.3975 49.1936 53.5731C48.7625 53.7487 48.3709 54.0061 48.0409 54.3307C47.711 54.6552 47.4493 55.0406 47.2707 55.4647C47.0921 55.8889 47.0002 56.3434 47.0001 56.8025C47.0001 56.8349 47.0084 56.8654 47.0094 56.8975C43.2439 58.9393 40.2752 62.1554 38.5706 66.0396C36.8659 69.9239 36.5222 74.2557 37.5933 78.3532C38.6645 82.4508 41.0898 86.0816 44.4875 88.674C47.8852 91.2664 52.0624 92.6733 56.3616 92.6733C60.6609 92.6733 64.8381 91.2664 68.2358 88.674C71.6335 86.0816 74.0588 82.4508 75.1299 78.3532C76.2011 74.2557 75.8573 69.9239 74.1527 66.0396C72.448 62.1554 69.4794 58.9393 65.7139 56.8975ZM56.3611 85.8096C53.9055 85.8093 51.5052 85.0925 49.4636 83.7497C47.422 82.4069 45.8308 80.4985 44.8913 78.2657C43.9518 76.033 43.7061 73.5762 44.1854 71.2061C44.6647 68.8359 45.8473 66.6589 47.5838 64.9502C49.3203 63.2416 51.5327 62.078 53.9411 61.6067C56.3496 61.1355 58.8459 61.3776 61.1145 62.3025C63.3831 63.2275 65.3221 64.7937 66.6862 66.8031C68.0504 68.8125 68.7784 71.1749 68.7783 73.5915C68.7745 76.8312 67.465 79.937 65.1371 82.2276C62.8092 84.5182 59.653 85.8064 56.3611 85.8096Z" fill="#ECAD31"/>
<g opacity="0.06">
<g opacity="0.06">
<g opacity="0.06">
<path opacity="0.06" d="M65.7132 56.8984C65.7132 56.866 65.7225 56.8356 65.7225 56.8035C65.7224 55.8763 65.3481 54.9871 64.6818 54.3314C64.0156 53.6758 63.112 53.3074 62.1699 53.3073H57.1463C58.0886 53.3075 58.9922 53.6759 59.6584 54.3316C60.3247 54.9873 60.6991 55.8766 60.6993 56.8038C60.6993 56.8362 60.69 56.8667 60.6887 56.8988C64.2656 58.8349 67.129 61.8343 68.8697 65.4682C70.6103 69.1022 71.139 73.1847 70.3803 77.1321C69.6215 81.0796 67.6142 84.6899 64.6451 87.4471C61.676 90.2043 57.8972 91.9672 53.8489 92.4838C54.6813 92.5968 55.5202 92.6567 56.3605 92.663C60.6589 92.6642 64.8356 91.2584 68.2331 88.6671C71.6306 86.0758 74.056 82.4461 75.1273 78.3495C76.1986 74.2528 75.8551 69.9218 74.1508 66.0383C72.4465 62.1549 69.4782 58.9395 65.7132 56.8984Z" fill="#070203"/>
</g>
</g>
</g>
<ellipse opacity="0.7" cx="61.5647" cy="47.0377" rx="4.57351" ry="4.50092" fill="url(#paint1_radial)"/>
<ellipse opacity="0.7" cx="48.0892" cy="38.277" rx="4.16516" ry="4.09905" fill="url(#paint2_radial)"/>
<g filter="url(#filter0_d)">
<path d="M61.4233 45.0675C61.5857 44.6355 62.1969 44.6355 62.3593 45.0675L62.6045 45.7196C62.6558 45.8562 62.7643 45.9635 62.9014 46.0134L63.5413 46.2464C63.9798 46.4061 63.9798 47.0264 63.5413 47.1861L62.9014 47.4191C62.7643 47.469 62.6558 47.5764 62.6045 47.7129L62.3593 48.365C62.1969 48.797 61.5857 48.797 61.4233 48.365L61.1781 47.7129C61.1267 47.5764 61.0183 47.469 60.8812 47.4191L60.2413 47.1861C59.8028 47.0264 59.8028 46.4061 60.2413 46.2464L60.8812 46.0134C61.0183 45.9635 61.1267 45.8562 61.1781 45.7196L61.4233 45.0675Z" fill="white"/>
</g>
<g filter="url(#filter1_d)">
<path d="M47.8661 36.8695C48.0286 36.4374 48.6397 36.4374 48.8021 36.8695L48.915 37.1695C48.9663 37.3061 49.0748 37.4134 49.2119 37.4634L49.4941 37.5661C49.9326 37.7258 49.9326 38.3461 49.4941 38.5058L49.2119 38.6085C49.0748 38.6585 48.9663 38.7658 48.915 38.9024L48.8021 39.2025C48.6397 39.6345 48.0286 39.6345 47.8661 39.2025L47.7533 38.9024C47.7019 38.7658 47.5935 38.6585 47.4564 38.6085L47.1742 38.5058C46.7356 38.3461 46.7356 37.7258 47.1742 37.5661L47.4564 37.4634C47.5935 37.4134 47.7019 37.3061 47.7533 37.1695L47.8661 36.8695Z" fill="white"/>
</g>
<defs>
<filter id="filter0_d" x="49.9124" y="34.7435" width="23.9578" height="23.9455" filterUnits="userSpaceOnUse" color-interpolation-filters="sRGB">
<feFlood flood-opacity="0" result="BackgroundImageFix"/>
<feColorMatrix in="SourceAlpha" type="matrix" values="0 0 0 0 0 0 0 0 0 0 0 0 0 0 0 0 0 0 127 0"/>
<feOffset/>
<feGaussianBlur stdDeviation="5"/>
<feColorMatrix type="matrix" values="0 0 0 0 1 0 0 0 0 1 0 0 0 0 1 0 0 0 0.25 0"/>
<feBlend mode="normal" in2="BackgroundImageFix" result="effect1_dropShadow"/>
<feBlend mode="normal" in="SourceGraphic" in2="effect1_dropShadow" result="shape"/>
</filter>
<filter id="filter1_d" x="36.8452" y="26.5454" width="22.9777" height="22.9811" filterUnits="userSpaceOnUse" color-interpolation-filters="sRGB">
<feFlood flood-opacity="0" result="BackgroundImageFix"/>
<feColorMatrix in="SourceAlpha" type="matrix" values="0 0 0 0 0 0 0 0 0 0 0 0 0 0 0 0 0 0 127 0"/>
<feOffset/>
<feGaussianBlur stdDeviation="5"/>
<feColorMatrix type="matrix" values="0 0 0 0 1 0 0 0 0 1 0 0 0 0 1 0 0 0 0.25 0"/>
<feBlend mode="normal" in2="BackgroundImageFix" result="effect1_dropShadow"/>
<feBlend mode="normal" in="SourceGraphic" in2="effect1_dropShadow" result="shape"/>
</filter>
<linearGradient id="paint0_linear" x1="55" y1="0" x2="55" y2="110" gradientUnits="userSpaceOnUse">
<stop stop-color="#FFF5E6"/>
<stop offset="1" stop-color="#FFE4BB"/>
</linearGradient>
<radialGradient id="paint1_radial" cx="0" cy="0" r="1" gradientUnits="userSpaceOnUse" gradientTransform="translate(61.5647 47.0377) rotate(90) scale(4.50092 4.57351)">
<stop stop-color="white"/>
<stop offset="1" stop-color="white" stop-opacity="0"/>
</radialGradient>
<radialGradient id="paint2_radial" cx="0" cy="0" r="1" gradientUnits="userSpaceOnUse" gradientTransform="translate(48.0892 38.277) rotate(90) scale(4.09905 4.16516)">
<stop stop-color="white"/>
<stop offset="1" stop-color="white" stop-opacity="0"/>
</radialGradient>
</defs>
</svg>
