<svg width="73" height="74" viewBox="0 0 73 74" fill="none" xmlns="http://www.w3.org/2000/svg">
<mask id="mask0" mask-type="alpha" maskUnits="userSpaceOnUse" x="0" y="0" width="73" height="74">
<path d="M0.00463867 0.0690918V73.0365H38.8642V44.8507H29.3648V33.3445H38.8642V23.6813C38.8642 16.6536 44.5613 10.9565 51.589 10.9565H61.5199V21.3032H54.4139C52.1808 21.3032 50.3704 23.1136 50.3704 25.3466V33.3446H61.3414L59.8252 44.8509H50.3704V73.0365H72.972V0.0690918H0.00463867Z" fill="#3B3B3B"/>
</mask>
<g mask="url(#mask0)">
<path d="M56.003 0.0690918H16.9738C7.60199 0.0690918 0.00463867 7.66645 0.00463867 17.0383V56.0675C0.00463867 65.4393 7.60199 73.0367 16.9738 73.0367H56.003C65.3748 73.0367 72.9722 65.4393 72.9722 56.0675V17.0383C72.9722 7.66645 65.3748 0.0690918 56.003 0.0690918Z" fill="#4DA3F3"/>
</g>
</svg>
