<svg width="70" height="70" viewBox="0 0 70 70" fill="none" xmlns="http://www.w3.org/2000/svg">
<path d="M0 15.9091C0 7.12274 7.12274 0 15.9091 0H54.0909C62.8773 0 70 7.12274 70 15.9091V54.0909C70 62.8773 62.8773 70 54.0909 70H15.9091C7.12274 70 0 62.8773 0 54.0909V15.9091Z" fill="url(#paint0_linear)"/>
<path d="M41.536 29.5733C41.536 29.5474 41.5432 29.5248 41.5432 29.4983C41.5432 28.7557 41.2482 28.0434 40.7231 27.5183C40.1979 26.9931 39.4857 26.6981 38.743 26.6981H29.587C28.8443 26.6981 28.1321 26.9931 27.6069 27.5183C27.0818 28.0434 26.7868 28.7557 26.7868 29.4983C26.7868 29.5243 26.7933 29.5487 26.794 29.5733C23.8261 31.2086 21.4861 33.7843 20.1425 36.8952C18.7988 40.0061 18.5278 43.4755 19.372 46.7573C20.2163 50.0391 22.1278 52.9469 24.8059 55.0233C27.4839 57.0996 30.7764 58.2264 34.165 58.2264C37.5537 58.2264 40.8461 57.0996 43.5241 55.0233C46.2022 52.9469 48.1138 50.0391 48.958 46.7573C49.8022 43.4755 49.5312 40.0061 48.1876 36.8952C46.8439 33.7843 44.504 31.2086 41.536 29.5733ZM34.1646 52.7286C32.2292 52.7285 30.3374 52.1544 28.7282 51.0791C27.1191 50.0037 25.865 48.4753 25.1245 46.6872C24.384 44.8991 24.1904 42.9315 24.5681 41.0333C24.9458 39.1352 25.8779 37.3917 27.2466 36.0232C28.6152 34.6548 30.3589 33.723 32.2571 33.3456C34.1553 32.9681 36.1229 33.1621 37.9109 33.9029C39.6989 34.6436 41.227 35.898 42.3022 37.5073C43.3773 39.1166 43.951 41.0086 43.9509 42.9439C43.9479 45.5382 42.9159 48.0254 41.0814 49.8597C39.2469 51.6941 36.7597 52.7258 34.1654 52.7286" fill="#8BB84D"/>
<g opacity="0.06">
<g opacity="0.06">
<g opacity="0.06">
<path opacity="0.06" d="M41.5357 29.5742C41.5357 29.5482 41.5429 29.5249 41.5429 29.4992C41.5429 28.7563 41.248 28.0439 40.7229 27.5184C40.1978 26.9929 39.4856 26.6974 38.7427 26.6969H34.7837C35.5265 26.6974 36.2388 26.9929 36.7639 27.5184C37.289 28.0439 37.5839 28.7563 37.5839 29.4992C37.5839 29.5251 37.5767 29.5495 37.5756 29.5742C40.3952 31.1246 42.6524 33.5267 44.0245 36.4371C45.3967 39.3476 45.8136 42.6173 45.2155 45.779C44.6175 48.9406 43.0352 51.8322 40.6948 54.0404C38.3544 56.2486 35.3758 57.6604 32.1848 58.0738C35.712 58.5387 39.2907 57.7566 42.3024 55.8627C45.3141 53.9688 47.5694 51.0822 48.6786 47.7018C49.7877 44.3215 49.6809 40.6598 48.3766 37.3498C47.0724 34.0398 44.6526 31.2896 41.5357 29.5744" fill="#070203"/>
</g>
</g>
</g>
<path d="M40.7554 26.4109C42.3188 24.2427 42.0699 20.2297 41.7562 17.9088C41.7247 17.6689 41.6443 17.438 41.5202 17.2303C41.396 17.0226 41.2307 16.8426 41.0344 16.7012L32.1931 28.9657C34.6347 30.7267 38.4685 29.5832 40.7557 26.4106" fill="#698E25"/>
<path d="M32.1927 28.9657L41.035 16.7012C40.8386 16.5595 40.6153 16.4595 40.3788 16.4074C40.1422 16.3554 39.8975 16.3523 39.6598 16.3984C37.3583 16.8338 33.4729 17.8658 31.9096 20.0339C29.6226 23.2065 29.749 27.2049 32.1914 28.966" fill="#87AB3E"/>
<path d="M21.5515 19.9989C21.5514 20.2621 21.4733 20.5193 21.327 20.7381C21.1807 20.9568 20.9728 21.1273 20.7297 21.2279C20.4865 21.3285 20.219 21.3548 19.9609 21.3033C19.7028 21.2519 19.4657 21.1251 19.2797 20.9389C19.0937 20.7528 18.9671 20.5156 18.9158 20.2575C18.8646 19.9994 18.8911 19.7318 18.9919 19.4888C19.0927 19.2457 19.2633 19.0379 19.4822 18.8918C19.701 18.7457 19.9583 18.6677 20.2215 18.6678C20.3962 18.6679 20.5692 18.7023 20.7307 18.7693C20.8921 18.8362 21.0387 18.9342 21.1623 19.0579C21.2858 19.1815 21.3837 19.3282 21.4505 19.4897C21.5173 19.6511 21.5516 19.8242 21.5515 19.9989Z" fill="white"/>
<path d="M57 35.6515C56.9999 35.9147 56.9218 36.1719 56.7755 36.3907C56.6292 36.6094 56.4213 36.7799 56.1782 36.8805C55.935 36.9811 55.6674 37.0074 55.4094 36.9559C55.1513 36.9045 54.9142 36.7777 54.7282 36.5915C54.5422 36.4053 54.4156 36.1682 54.3643 35.9101C54.3131 35.652 54.3395 35.3844 54.4404 35.1413C54.5412 34.8982 54.7118 34.6905 54.9306 34.5444C55.1495 34.3983 55.4068 34.3203 55.67 34.3204C55.8447 34.3205 56.0177 34.3549 56.1792 34.4218C56.3406 34.4888 56.4872 34.5868 56.6107 34.7104C56.7343 34.8341 56.8322 34.9808 56.899 35.1423C56.9658 35.3037 57.0001 35.4768 57 35.6515Z" fill="white"/>
<path d="M33.5213 10.3311C33.5212 10.5943 33.443 10.8515 33.2967 11.0702C33.1504 11.289 32.9426 11.4594 32.6994 11.5601C32.4562 11.6607 32.1887 11.6869 31.9306 11.6355C31.6725 11.584 31.4355 11.4572 31.2495 11.2711C31.0634 11.0849 30.9368 10.8478 30.8856 10.5896C30.8343 10.3315 30.8608 10.064 30.9616 9.82091C31.0624 9.57781 31.233 9.37007 31.4519 9.22395C31.6708 9.07783 31.928 8.9999 32.1912 9C32.3659 9.00003 32.539 9.03449 32.7004 9.10141C32.8618 9.16833 33.0085 9.2664 33.132 9.39001C33.2555 9.51362 33.3534 9.66035 33.4202 9.82182C33.487 9.9833 33.5214 10.1563 33.5213 10.3311Z" fill="white"/>
<path d="M11.3909 31.5106L13.42 32.1875C13.5237 32.2223 13.6138 32.2888 13.6777 32.3777C13.7416 32.4665 13.776 32.5731 13.776 32.6825C13.776 32.7919 13.7416 32.8985 13.6777 32.9873C13.6138 33.0761 13.5237 33.1426 13.42 33.1774L11.3909 33.8552C11.3141 33.8806 11.2444 33.9236 11.1872 33.9808C11.1301 34.038 11.0871 34.1077 11.0616 34.1844L10.3839 36.2135C10.3491 36.3172 10.2826 36.4074 10.1938 36.4713C10.105 36.5352 9.99832 36.5695 9.88893 36.5695C9.77953 36.5695 9.6729 36.5352 9.58409 36.4713C9.49528 36.4074 9.42878 36.3172 9.39398 36.2135L8.71702 34.1844C8.69158 34.1077 8.64856 34.038 8.59139 33.9808C8.53422 33.9236 8.46449 33.8806 8.38775 33.8552L6.35712 33.1774C6.25315 33.1429 6.1627 33.0765 6.0986 32.9877C6.0345 32.8988 6 32.792 6 32.6825C6 32.5729 6.0345 32.4662 6.0986 32.3773C6.1627 32.2885 6.25315 32.2221 6.35712 32.1875L8.38619 31.5106C8.46293 31.4851 8.53267 31.4421 8.58983 31.385C8.647 31.3278 8.69002 31.2581 8.71546 31.1813L9.39294 29.153C9.42748 29.0491 9.49388 28.9586 9.58272 28.8945C9.67156 28.8304 9.77834 28.7959 9.88789 28.7959C9.99744 28.7959 10.1042 28.8304 10.193 28.8945C10.2819 28.9586 10.3483 29.0491 10.3828 29.153L11.0606 31.1821C11.0862 31.2588 11.1294 31.3284 11.1868 31.3855C11.2441 31.4425 11.314 31.4854 11.3909 31.5106Z" fill="white"/>
<path d="M53.2829 17.7003L55.312 18.3773C55.4157 18.4121 55.5058 18.4786 55.5697 18.5674C55.6336 18.6562 55.668 18.7628 55.668 18.8722C55.668 18.9816 55.6336 19.0883 55.5697 19.1771C55.5058 19.2659 55.4157 19.3324 55.312 19.3672L53.2829 20.0441C53.2061 20.0696 53.1364 20.1126 53.0792 20.1698C53.0221 20.2269 52.9791 20.2967 52.9536 20.3734L52.2759 22.4025C52.2413 22.5064 52.1749 22.5969 52.0861 22.661C51.9972 22.7251 51.8905 22.7596 51.7809 22.7596C51.6714 22.7596 51.5646 22.7251 51.4758 22.661C51.3869 22.5969 51.3205 22.5064 51.286 22.4025L50.609 20.3734C50.5836 20.2967 50.5406 20.2269 50.4834 20.1698C50.4262 20.1126 50.3565 20.0696 50.2797 20.0441L48.2507 19.3672C48.1467 19.3326 48.0563 19.2662 47.9922 19.1774C47.9281 19.0886 47.8936 18.9818 47.8936 18.8722C47.8936 18.7627 47.9281 18.6559 47.9922 18.5671C48.0563 18.4782 48.1467 18.4118 48.2507 18.3773L50.2797 17.7003C50.3566 17.6748 50.4264 17.6316 50.4836 17.5742C50.5408 17.5169 50.5837 17.4469 50.609 17.37L51.286 15.342C51.3205 15.238 51.3869 15.1476 51.4758 15.0835C51.5646 15.0194 51.6714 14.9849 51.7809 14.9849C51.8905 14.9849 51.9972 15.0194 52.0861 15.0835C52.1749 15.1476 52.2413 15.238 52.2759 15.342L52.9536 17.37C52.9789 17.4469 53.0219 17.5169 53.079 17.5742C53.1362 17.6316 53.206 17.6748 53.2829 17.7003Z" fill="white"/>
<defs>
<linearGradient id="paint0_linear" x1="35" y1="0" x2="35" y2="70" gradientUnits="userSpaceOnUse">
<stop stop-color="#FFF1F1"/>
<stop offset="1" stop-color="#FCE2E5"/>
</linearGradient>
</defs>
</svg>
