<svg width="51" height="51" viewBox="0 0 51 51" fill="none" xmlns="http://www.w3.org/2000/svg">
<path d="M38.67 0H11.72C5.24722 0 0 5.24722 0 11.72V38.67C0 45.1428 5.24722 50.39 11.72 50.39H38.67C45.1428 50.39 50.39 45.1428 50.39 38.67V11.72C50.39 5.24722 45.1428 0 38.67 0Z" fill="#4DA3F3"/>
<path fill-rule="evenodd" clip-rule="evenodd" d="M25.7293 11.0015C16.4304 11.0015 8.89136 16.9396 8.89136 24.2743C8.89136 29.0089 12.0478 33.1758 16.7824 35.5261C16.5212 36.4117 15.1247 41.2485 15.0679 41.6232C15.0679 41.6232 15.0339 41.907 15.2155 42.0206C15.3972 42.1341 15.6129 42.0433 15.6129 42.0433C16.1135 41.9687 21.0808 38.4967 22.4997 37.5049L22.4998 37.5048L22.7319 37.3427C23.697 37.479 24.6961 37.5471 25.718 37.5471C35.0169 37.5471 42.5559 31.609 42.5559 24.2743C42.5673 16.951 35.0282 11.0015 25.7293 11.0015ZM16.4191 28.9181C15.8854 28.9181 15.4426 28.498 15.4426 27.9871V22.2192H13.9326C13.4103 22.2192 12.9788 21.7878 12.9788 21.2655C12.9788 20.7432 13.4103 20.3118 13.9326 20.3118H18.9056C19.4279 20.3118 19.8593 20.7432 19.8593 21.2655C19.8593 21.7878 19.4279 22.2192 18.9056 22.2192H17.3955V27.9871C17.3955 28.498 16.9527 28.9181 16.4191 28.9181ZM24.1283 28.4639C24.2192 28.7364 24.5257 28.8954 24.9345 28.8954C25.1502 28.8954 25.3659 28.85 25.5816 28.7705C25.8428 28.6456 26.1039 28.305 25.8087 27.3853L23.4812 21.2769C23.3222 20.8 22.8226 20.3231 22.1868 20.3118C21.551 20.3231 21.0514 20.8 20.8924 21.2655L18.5649 27.3853C18.2697 28.2936 18.5195 28.6342 18.792 28.7591C18.9736 28.85 19.1893 28.8954 19.4051 28.8954C19.8138 28.8954 20.1204 28.7251 20.2112 28.4639L20.6881 27.2036H23.6515L24.1283 28.4639ZM22.1754 22.7302L23.1405 25.4892H21.2104L22.1754 22.7302ZM27.3529 28.7705C26.842 28.7705 26.4219 28.3731 26.4219 27.8849V21.2882C26.4219 20.7546 26.8647 20.3118 27.4097 20.3118C27.9547 20.3118 28.3975 20.7432 28.3975 21.2882V26.9993H30.4639C30.9748 26.9993 31.3949 27.3967 31.3949 27.8849C31.3949 28.3731 30.9748 28.7705 30.4639 28.7705H27.3529ZM31.7697 27.9189C31.7697 28.4639 32.2125 28.8954 32.7461 28.8954C33.2798 28.8954 33.7112 28.4639 33.7226 27.9189V25.7957L34.0632 25.4551L36.3453 28.4753C36.527 28.725 36.8108 28.8613 37.1174 28.8613C37.3218 28.8613 37.5261 28.7932 37.6965 28.6683C37.9008 28.5207 38.0371 28.2936 38.0711 28.0324C38.1166 27.7827 38.0484 27.5215 37.8895 27.3172L35.4938 24.1494L37.7078 21.924C37.8668 21.7764 37.9349 21.5607 37.9235 21.3336C37.9122 21.1065 37.81 20.8908 37.6397 20.7205C37.458 20.5388 37.2082 20.4366 36.9698 20.4366C36.7654 20.4366 36.5724 20.5161 36.4362 20.6524L33.7226 23.366V21.2768C33.7226 20.7318 33.2911 20.3004 32.7461 20.3004C32.2011 20.3004 31.7697 20.7432 31.7697 21.2768V27.9189Z" fill="white"/>
</svg>
