<svg width="10" height="16" viewBox="0 0 10 16" fill="none" xmlns="http://www.w3.org/2000/svg">
<path d="M0.622846 9.48737C0.4272 9.30185 0.270413 9.07317 0.162992 8.81665C0.055572 8.56012 -3.37378e-07 8.28169 -3.49691e-07 8C-3.62004e-07 7.71831 0.0555719 7.43988 0.162992 7.18336C0.270413 6.92683 0.4272 6.69815 0.622846 6.51263L6.97431 0.489044C7.23825 0.238835 7.56315 0.0763527 7.91012 0.0210501C8.25709 -0.0342525 8.61142 0.0199686 8.93069 0.177224C9.24994 0.334479 9.5206 0.5881 9.71025 0.907719C9.8999 1.22734 10.0005 1.59941 10 1.97938L10 14.0206C10.0005 14.4006 9.8999 14.7727 9.71025 15.0923C9.5206 15.4119 9.24995 15.6655 8.93069 15.8228C8.61143 15.98 8.2571 16.0343 7.91012 15.979C7.56315 15.9236 7.23825 15.7612 6.97432 15.511L0.622846 9.48737Z" fill="#2C2C2C"/>
</svg>
