<svg width="20" height="16" viewBox="0 0 20 16" fill="none" xmlns="http://www.w3.org/2000/svg">
<path fill-rule="evenodd" clip-rule="evenodd" d="M9.83713 7.18336C9.72971 6.92683 9.57292 6.69815 9.37728 6.51263L3.02581 0.489044C2.76187 0.238835 2.43697 0.0763514 2.09 0.0210487C1.74303 -0.034254 1.3887 0.0199686 1.06944 0.177224C0.750177 0.334479 0.479519 0.588101 0.289871 0.90772C0.100224 1.22734 -0.000373602 1.59941 0.000124437 1.97938L0.000123911 14.0206C-0.000374162 14.4006 0.100223 14.7727 0.289871 15.0923C0.479518 15.4119 0.750176 15.6655 1.06944 15.8228C1.3887 15.98 1.74303 16.0343 2.09 15.979C2.43697 15.9236 2.76187 15.7612 3.02581 15.511L9.37728 9.48737C9.57292 9.30185 9.72971 9.07317 9.83713 8.81665C9.94455 8.56012 10.0001 8.28169 10.0001 8L10.0001 14.0206C9.99963 14.4006 10.1002 14.7727 10.2899 15.0923C10.4795 15.4119 10.7502 15.6655 11.0694 15.8228C11.3887 15.98 11.743 16.0343 12.09 15.979C12.437 15.9236 12.7619 15.7612 13.0258 15.511L19.3773 9.48737C19.5729 9.30185 19.7297 9.07317 19.8371 8.81665C19.9445 8.56012 20.0001 8.28169 20.0001 8C20.0001 7.71831 19.9445 7.43988 19.8371 7.18336C19.7297 6.92683 19.5729 6.69815 19.3773 6.51263L13.0258 0.489044C12.7619 0.238835 12.437 0.0763514 12.09 0.0210487C11.743 -0.034254 11.3887 0.0199686 11.0694 0.177224C10.7502 0.334479 10.4795 0.588101 10.2899 0.90772C10.1002 1.22734 9.99963 1.59941 10.0001 1.97938L10.0001 8C10.0001 7.71831 9.94455 7.43988 9.83713 7.18336Z" fill="#2C2C2C"/>
</svg>
