<svg width="70" height="70" viewBox="0 0 70 70" fill="none" xmlns="http://www.w3.org/2000/svg">
<path d="M0 15.9091C0 7.12274 7.12274 0 15.9091 0H54.0909C62.8773 0 70 7.12274 70 15.9091V54.0909C70 62.8773 62.8773 70 54.0909 70H15.9091C7.12274 70 0 62.8773 0 54.0909V15.9091Z" fill="url(#paint0_linear)"/>
<path d="M20.99 25.7438L22.8709 26.3713C22.967 26.4036 23.0506 26.4652 23.1098 26.5475C23.169 26.6299 23.2009 26.7287 23.2009 26.8301C23.2009 26.9315 23.169 27.0304 23.1098 27.1127C23.0506 27.195 22.967 27.2567 22.8709 27.2889L20.99 27.9172C20.9188 27.9408 20.8542 27.9806 20.8012 28.0336C20.7482 28.0866 20.7083 28.1513 20.6847 28.2224L20.0565 30.1033C20.0242 30.1995 19.9626 30.2831 19.8802 30.3423C19.7979 30.4015 19.6991 30.4333 19.5977 30.4333C19.4963 30.4333 19.3974 30.4015 19.3151 30.3423C19.2328 30.2831 19.1711 30.1995 19.1389 30.1033L18.5113 28.2224C18.4877 28.1513 18.4479 28.0866 18.3949 28.0336C18.3419 27.9806 18.2772 27.9408 18.2061 27.9172L16.3237 27.2889C16.2273 27.2569 16.1435 27.1954 16.0841 27.113C16.0247 27.0306 15.9927 26.9317 15.9927 26.8301C15.9927 26.7286 16.0247 26.6296 16.0841 26.5472C16.1435 26.4649 16.2273 26.4033 16.3237 26.3713L18.2046 25.7438C18.2758 25.7202 18.3404 25.6803 18.3934 25.6273C18.4464 25.5743 18.4863 25.5097 18.5099 25.4385L19.1379 23.5583C19.1699 23.462 19.2315 23.3781 19.3138 23.3187C19.3962 23.2593 19.4951 23.2273 19.5967 23.2273C19.6983 23.2273 19.7972 23.2593 19.8796 23.3187C19.9619 23.3781 20.0235 23.462 20.0555 23.5583L20.6838 25.4393C20.7075 25.5104 20.7476 25.5749 20.8008 25.6278C20.8539 25.6807 20.9187 25.7204 20.99 25.7438Z" fill="#E8DAC7"/>
<path d="M47.3962 17.5172L49.2772 18.1447C49.3733 18.177 49.4569 18.2386 49.5161 18.321C49.5753 18.4033 49.6072 18.5021 49.6072 18.6035C49.6072 18.705 49.5753 18.8038 49.5161 18.8861C49.4569 18.9684 49.3733 19.0301 49.2772 19.0623L47.3962 19.6899C47.3251 19.7135 47.2604 19.7533 47.2075 19.8063C47.1545 19.8593 47.1146 19.924 47.091 19.9951L46.4627 21.876C46.4307 21.9724 46.3692 22.0563 46.2868 22.1157C46.2045 22.1751 46.1055 22.2071 46.0039 22.2071C45.9024 22.2071 45.8034 22.1751 45.7211 22.1157C45.6387 22.0563 45.5771 21.9724 45.5451 21.876L44.9176 19.9951C44.894 19.924 44.8541 19.8593 44.8011 19.8063C44.7481 19.7533 44.6835 19.7135 44.6124 19.6899L42.7314 19.0623C42.6351 19.0303 42.5512 18.9688 42.4918 18.8864C42.4324 18.8041 42.4004 18.7051 42.4004 18.6035C42.4004 18.502 42.4324 18.403 42.4918 18.3207C42.5512 18.2383 42.6351 18.1768 42.7314 18.1447L44.6124 17.5172C44.6836 17.4935 44.7483 17.4535 44.8013 17.4003C44.8543 17.3472 44.8941 17.2823 44.9176 17.211L45.5451 15.331C45.5771 15.2347 45.6387 15.1508 45.7211 15.0914C45.8034 15.032 45.9024 15 46.0039 15C46.1055 15 46.2045 15.032 46.2868 15.0914C46.3692 15.1508 46.4307 15.2347 46.4627 15.331L47.091 17.211C47.1145 17.2823 47.1543 17.3472 47.2073 17.4003C47.2603 17.4535 47.325 17.4935 47.3962 17.5172Z" fill="#E8DAC7"/>
<path d="M28.0103 19.3864C28.0102 19.6303 27.9378 19.8688 27.8022 20.0715C27.6666 20.2743 27.4739 20.4323 27.2485 20.5256C27.023 20.6189 26.775 20.6432 26.5358 20.5955C26.2965 20.5478 26.0768 20.4303 25.9044 20.2577C25.732 20.0851 25.6146 19.8653 25.5671 19.626C25.5196 19.3868 25.5441 19.1388 25.6375 18.9134C25.731 18.6881 25.8891 18.4955 26.092 18.3601C26.2949 18.2246 26.5334 18.1524 26.7774 18.1525C26.9393 18.1525 27.0997 18.1844 27.2494 18.2465C27.399 18.3085 27.535 18.3994 27.6495 18.514C27.764 18.6286 27.8548 18.7646 27.9167 18.9143C27.9786 19.064 28.0104 19.2244 28.0103 19.3864Z" fill="#EAD7AC"/>
<path d="M54.709 32.3748C54.7089 32.6187 54.6365 32.8572 54.5009 33.0599C54.3653 33.2627 54.1726 33.4207 53.9472 33.514C53.7218 33.6073 53.4738 33.6316 53.2345 33.5839C52.9953 33.5362 52.7755 33.4187 52.6031 33.2461C52.4307 33.0736 52.3133 32.8537 52.2658 32.6145C52.2183 32.3752 52.2428 32.1272 52.3363 31.9018C52.4297 31.6765 52.5879 31.4839 52.7908 31.3485C52.9936 31.213 53.2321 31.1408 53.4761 31.1409C53.6381 31.1409 53.7985 31.1728 53.9481 31.2349C54.0977 31.2969 54.2337 31.3878 54.3482 31.5024C54.4627 31.617 54.5535 31.753 54.6154 31.9027C54.6773 32.0524 54.7091 32.2128 54.709 32.3748Z" fill="#EAD7AC"/>
<path d="M42.4167 27.4191C42.4167 27.3953 42.4233 27.3738 42.4233 27.3492C42.4232 26.6662 42.1517 26.0113 41.6687 25.5284C41.1856 25.0456 40.5306 24.7744 39.8476 24.7744H31.4249C31.0867 24.7743 30.7518 24.8408 30.4393 24.9702C30.1268 25.0995 29.8429 25.2892 29.6037 25.5283C29.3645 25.7674 29.1748 26.0513 29.0453 26.3637C28.9159 26.6761 28.8492 27.011 28.8492 27.3492C28.8492 27.3731 28.8551 27.3955 28.8551 27.4191C26.1252 28.9233 23.973 31.2926 22.7372 34.154C21.5014 37.0154 21.2522 40.2066 22.0288 43.2252C22.8054 46.2438 24.5637 48.9184 27.027 50.8282C29.4902 52.738 32.5187 53.7744 35.6355 53.7744C38.7524 53.7744 41.7808 52.738 44.2441 50.8282C46.7074 48.9184 48.4657 46.2438 49.2423 43.2252C50.0189 40.2066 49.7697 37.0154 48.5339 34.154C47.2981 31.2926 45.1458 28.9233 42.4159 27.4191H42.4167ZM35.6355 48.7172C33.8553 48.7172 32.115 48.1893 30.6347 47.2003C29.1545 46.2112 28.0007 44.8055 27.3195 43.1607C26.6382 41.5159 26.4599 39.7061 26.8073 37.96C27.1546 36.214 28.0119 34.6101 29.2708 33.3513C30.5297 32.0925 32.1336 31.2353 33.8796 30.8881C35.6257 30.5408 37.4356 30.7191 39.0803 31.4005C40.725 32.0819 42.1307 33.2357 43.1197 34.716C44.1087 36.1963 44.6364 37.9366 44.6363 39.7169C44.6337 42.1032 43.6845 44.3911 41.9971 46.0784C40.3096 47.7658 38.0217 48.7148 35.6353 48.7172" fill="#CFC2AF"/>
<g opacity="0.06">
<g opacity="0.06">
<g opacity="0.06">
<path opacity="0.06" d="M42.5773 27.4404C42.5773 27.4164 42.585 27.3938 42.585 27.3699C42.5845 26.6813 42.3106 26.0211 41.8235 25.5343C41.3364 25.0476 40.6759 24.7742 39.9873 24.7742H36.3181C36.6589 24.7742 36.9965 24.8413 37.3114 24.9718C37.6264 25.1022 37.9125 25.2934 38.1535 25.5345C38.3946 25.7755 38.5858 26.0616 38.7162 26.3766C38.8467 26.6915 38.9138 27.0291 38.9138 27.3699C38.9138 27.394 38.9078 27.4166 38.9071 27.4404C41.5203 28.8779 43.6122 31.1047 44.8838 33.8025C46.1554 36.5003 46.5416 39.5311 45.9871 42.4616C45.4327 45.3921 43.966 48.0723 41.7967 50.1191C39.6275 52.1659 36.8667 53.4746 33.9089 53.858C37.1785 54.2891 40.4959 53.5642 43.2877 51.8087C46.0795 50.0532 48.1702 47.3774 49.1984 44.244C50.2266 41.1105 50.1276 37.7162 48.9186 34.648C47.7096 31.5797 45.4666 29.0303 42.5773 27.4404Z" fill="#070203"/>
</g>
</g>
</g>
<defs>
<linearGradient id="paint0_linear" x1="35" y1="0" x2="35" y2="70" gradientUnits="userSpaceOnUse">
<stop stop-color="#FFFCF8"/>
<stop offset="1" stop-color="#F3E4DC"/>
</linearGradient>
</defs>
</svg>
