<svg width="800" height="400" viewBox="0 0 800 400" fill="none" xmlns="http://www.w3.org/2000/svg">
<rect width="800" height="400" fill="#2F2F2F"/>
<path d="M108.505 271.732C107.953 272.043 107.493 272.491 107.172 273.031L104.255 277.946C103.861 278.612 103.697 279.385 103.787 280.15H113.5L108.505 271.732Z" fill="#CCE1F5"/>
<path d="M103.788 280.149C103.868 280.864 104.165 281.538 104.641 282.084L116.025 295.092C116.585 295.729 117.358 296.148 118.205 296.274L113.501 280.149H103.788Z" fill="#85B9E4"/>
<path d="M133.767 280.15C133.856 279.385 133.692 278.612 133.299 277.946L130.381 273.031C130.061 272.491 129.601 272.043 129.049 271.732L124.053 280.15H133.767Z" fill="#CCE1F5"/>
<path d="M124.054 280.149L118.777 271.259L113.5 280.149H124.054Z" fill="#CCE1F5"/>
<path d="M124.054 280.149L119.35 296.274C120.197 296.148 120.97 295.728 121.53 295.091L132.914 282.084C133.389 281.538 133.687 280.864 133.767 280.149H124.054Z" fill="#85B9E4"/>
<path d="M129.049 271.732C128.499 271.422 127.877 271.259 127.244 271.259H118.777L124.053 280.149L129.049 271.732Z" fill="#ABCFEE"/>
<path d="M118.778 271.259H110.309C109.676 271.259 109.054 271.422 108.505 271.732L113.5 280.149L118.778 271.259Z" fill="#ABCFEE"/>
<path d="M113.5 280.149L118.204 296.274C118.583 296.333 118.97 296.333 119.349 296.274L124.054 280.149H113.5Z" fill="#ABCFEE"/>
<g opacity="0.06">
<g opacity="0.06">
<g opacity="0.06">
<path opacity="0.06" d="M133.299 277.946L130.381 273.031C130.061 272.492 129.603 272.045 129.052 271.734C128.502 271.423 127.879 271.26 127.244 271.259H120.919C121.553 271.26 122.176 271.423 122.727 271.734C123.277 272.045 123.735 272.492 124.056 273.031L126.972 277.946C127.35 278.59 127.517 279.334 127.448 280.074C127.379 280.815 127.078 281.517 126.587 282.082L115.615 294.623L116.024 295.092C116.585 295.729 117.358 296.148 118.204 296.274C118.583 296.333 118.97 296.333 119.35 296.274C120.196 296.148 120.969 295.728 121.53 295.092L132.915 282.082C133.406 281.517 133.707 280.815 133.776 280.074C133.844 279.334 133.678 278.59 133.3 277.946" fill="#070203"/>
</g>
</g>
</g>
<path d="M90.2085 287.757L92.7329 288.587C92.8623 288.629 92.9749 288.71 93.0547 288.819C93.1345 288.928 93.1774 289.059 93.1774 289.193C93.1774 289.327 93.1345 289.458 93.0547 289.567C92.9749 289.676 92.8623 289.757 92.7329 289.799L90.2085 290.631C90.1132 290.662 90.0266 290.715 89.9555 290.784C89.8844 290.854 89.8307 290.939 89.7986 291.033L88.9559 293.518C88.9126 293.645 88.8298 293.756 88.7193 293.834C88.6087 293.912 88.476 293.955 88.3398 293.955C88.2037 293.955 88.0709 293.912 87.9604 293.834C87.8498 293.756 87.7671 293.645 87.7238 293.518L86.8811 291.033C86.8491 290.939 86.7953 290.854 86.724 290.784C86.6527 290.714 86.5658 290.662 86.4703 290.631L83.9445 289.801C83.8151 289.758 83.7025 289.677 83.6227 289.568C83.5429 289.459 83.5 289.329 83.5 289.194C83.5 289.06 83.5429 288.929 83.6227 288.821C83.7025 288.712 83.8151 288.63 83.9445 288.588L86.4703 287.759C86.5658 287.728 86.6526 287.675 86.7237 287.605C86.7949 287.535 86.8485 287.45 86.8801 287.356L87.7228 284.87C87.7661 284.743 87.8489 284.632 87.9594 284.554C88.07 284.476 88.2027 284.434 88.3389 284.434C88.475 284.434 88.6078 284.476 88.7183 284.554C88.8289 284.632 88.9117 284.743 88.955 284.87L89.7986 287.354C89.8306 287.448 89.8844 287.533 89.9558 287.603C90.0271 287.673 90.1141 287.726 90.2098 287.757" fill="#F3C976"/>
<path d="M111.462 258.743L113.988 259.572C114.117 259.615 114.229 259.697 114.309 259.805C114.388 259.914 114.431 260.045 114.431 260.179C114.431 260.313 114.388 260.443 114.309 260.552C114.229 260.661 114.117 260.742 113.988 260.785L111.462 261.615C111.367 261.646 111.28 261.699 111.209 261.769C111.138 261.839 111.085 261.924 111.053 262.018L110.209 264.503C110.166 264.631 110.084 264.741 109.973 264.82C109.862 264.899 109.729 264.941 109.593 264.941C109.457 264.941 109.324 264.899 109.213 264.82C109.103 264.741 109.02 264.631 108.977 264.503L108.134 262.018C108.102 261.924 108.049 261.838 107.977 261.769C107.906 261.699 107.819 261.646 107.723 261.615L105.199 260.786C105.069 260.744 104.957 260.663 104.877 260.554C104.797 260.445 104.754 260.314 104.754 260.18C104.754 260.045 104.797 259.914 104.877 259.806C104.957 259.697 105.069 259.616 105.199 259.573L107.723 258.744C107.819 258.713 107.906 258.66 107.977 258.59C108.048 258.519 108.102 258.434 108.133 258.339L108.976 255.854C109.019 255.727 109.102 255.616 109.212 255.537C109.323 255.459 109.456 255.417 109.592 255.417C109.728 255.417 109.861 255.459 109.972 255.537C110.083 255.616 110.165 255.727 110.208 255.854L111.053 258.338C111.084 258.433 111.138 258.518 111.209 258.589C111.28 258.659 111.367 258.712 111.463 258.743" fill="#F3C976"/>
<path d="M145.974 284.606L148.5 285.436C148.629 285.479 148.741 285.56 148.821 285.669C148.9 285.778 148.943 285.908 148.943 286.042C148.943 286.176 148.9 286.307 148.821 286.416C148.741 286.524 148.629 286.606 148.5 286.649L145.974 287.479C145.878 287.51 145.792 287.563 145.72 287.633C145.649 287.703 145.596 287.788 145.564 287.882L144.72 290.368C144.677 290.495 144.594 290.606 144.484 290.684C144.373 290.762 144.241 290.804 144.104 290.804C143.968 290.804 143.835 290.762 143.725 290.684C143.614 290.606 143.532 290.495 143.488 290.368L142.647 287.882C142.615 287.788 142.561 287.703 142.49 287.633C142.418 287.563 142.331 287.51 142.236 287.479L139.711 286.649C139.582 286.607 139.469 286.525 139.389 286.417C139.309 286.308 139.266 286.177 139.266 286.043C139.266 285.908 139.309 285.777 139.389 285.668C139.469 285.56 139.582 285.478 139.711 285.436L142.236 284.606C142.331 284.575 142.418 284.522 142.489 284.452C142.561 284.383 142.615 284.297 142.647 284.204L143.488 281.718C143.531 281.59 143.614 281.479 143.724 281.401C143.835 281.322 143.968 281.28 144.104 281.28C144.241 281.28 144.374 281.322 144.484 281.401C144.595 281.479 144.678 281.59 144.72 281.718L145.564 284.204C145.596 284.297 145.65 284.383 145.721 284.452C145.792 284.522 145.879 284.575 145.974 284.606" fill="#F3C976"/>
<path d="M152.836 270.294C152.836 270.617 152.738 270.932 152.556 271.2C152.374 271.468 152.116 271.677 151.813 271.801C151.51 271.924 151.177 271.956 150.855 271.894C150.534 271.831 150.239 271.675 150.007 271.447C149.775 271.219 149.618 270.929 149.554 270.612C149.49 270.296 149.523 269.968 149.648 269.67C149.773 269.372 149.986 269.118 150.258 268.938C150.531 268.759 150.851 268.664 151.179 268.664C151.396 268.664 151.612 268.706 151.813 268.788C152.014 268.87 152.197 268.99 152.35 269.141C152.504 269.293 152.626 269.472 152.71 269.67C152.793 269.868 152.836 270.08 152.836 270.294Z" fill="#A6D9E7"/>
<path d="M156.681 300.573C156.681 300.896 156.584 301.211 156.402 301.479C156.22 301.747 155.961 301.956 155.658 302.08C155.356 302.203 155.022 302.235 154.701 302.172C154.38 302.109 154.084 301.954 153.853 301.726C153.621 301.498 153.463 301.208 153.399 300.891C153.335 300.575 153.368 300.247 153.493 299.949C153.619 299.651 153.831 299.396 154.104 299.217C154.376 299.038 154.697 298.943 155.024 298.943C155.242 298.942 155.457 298.985 155.658 299.066C155.859 299.148 156.042 299.268 156.196 299.42C156.35 299.571 156.472 299.751 156.555 299.949C156.638 300.147 156.681 300.359 156.681 300.573Z" fill="#A6D9E7"/>
<path d="M93.2244 270.294C93.2244 270.617 93.1272 270.932 92.9451 271.2C92.7631 271.468 92.5043 271.677 92.2015 271.801C91.8988 271.924 91.5656 271.956 91.2442 271.894C90.9228 271.831 90.6276 271.675 90.3959 271.447C90.1641 271.219 90.0063 270.929 89.9424 270.612C89.8785 270.296 89.9113 269.968 90.0367 269.67C90.1621 269.372 90.3745 269.118 90.6469 268.938C90.9194 268.759 91.2398 268.664 91.5675 268.664C92.0069 268.664 92.4283 268.835 92.7391 269.141C93.0498 269.447 93.2244 269.862 93.2244 270.294Z" fill="#A6D9E7"/>
<path d="M133.606 263.355C133.606 263.678 133.509 263.993 133.327 264.261C133.144 264.529 132.886 264.738 132.583 264.862C132.28 264.985 131.947 265.017 131.626 264.954C131.304 264.892 131.009 264.736 130.777 264.508C130.546 264.28 130.388 263.99 130.324 263.673C130.26 263.357 130.293 263.029 130.418 262.731C130.544 262.433 130.756 262.179 131.028 261.999C131.301 261.82 131.621 261.725 131.949 261.725C132.166 261.725 132.382 261.767 132.583 261.849C132.784 261.931 132.967 262.051 133.121 262.202C133.274 262.354 133.396 262.533 133.48 262.731C133.563 262.929 133.606 263.141 133.606 263.355Z" fill="#A6D9E7"/>
<path d="M127.953 294.107C127.953 294.075 127.962 294.046 127.962 294.014C127.962 293.563 127.872 293.117 127.697 292.701C127.521 292.285 127.265 291.907 126.941 291.589C126.617 291.27 126.233 291.018 125.81 290.845C125.387 290.673 124.934 290.585 124.476 290.585H113.079C112.622 290.585 112.168 290.673 111.746 290.845C111.323 291.018 110.938 291.27 110.615 291.589C110.291 291.907 110.034 292.285 109.859 292.701C109.684 293.117 109.594 293.563 109.594 294.014C109.594 294.045 109.602 294.075 109.603 294.107C105.909 296.11 102.996 299.265 101.324 303.076C99.6514 306.886 99.3141 311.136 100.365 315.156C101.416 319.176 103.795 322.738 107.129 325.281C110.462 327.825 114.56 329.205 118.778 329.205C122.996 329.205 127.094 327.825 130.427 325.281C133.76 322.738 136.14 319.176 137.191 315.156C138.242 311.136 137.904 306.886 136.232 303.076C134.56 299.265 131.647 296.11 127.953 294.107ZM118.777 322.471C116.368 322.471 114.013 321.768 112.01 320.45C110.007 319.133 108.446 317.261 107.525 315.07C106.603 312.88 106.362 310.47 106.832 308.144C107.302 305.819 108.463 303.683 110.166 302.007C111.87 300.331 114.04 299.189 116.403 298.727C118.766 298.265 121.215 298.502 123.441 299.409C125.666 300.317 127.569 301.853 128.907 303.825C130.245 305.796 130.959 308.114 130.959 310.485C130.956 313.663 129.671 316.71 127.387 318.957C125.103 321.204 122.007 322.468 118.777 322.471Z" fill="#ECAD31"/>
<g opacity="0.06">
<g opacity="0.06">
<g opacity="0.06">
<path opacity="0.06" d="M127.952 294.108C127.952 294.076 127.961 294.046 127.961 294.015C127.961 293.105 127.594 292.233 126.941 291.589C126.287 290.946 125.4 290.585 124.476 290.585H119.548C120.472 290.585 121.359 290.946 122.012 291.59C122.666 292.233 123.033 293.105 123.033 294.015C123.033 294.047 123.024 294.077 123.023 294.108C126.532 296.008 129.341 298.95 131.049 302.515C132.757 306.08 133.275 310.086 132.531 313.958C131.787 317.831 129.817 321.373 126.904 324.078C123.992 326.783 120.284 328.512 116.313 329.019C117.129 329.13 117.952 329.189 118.777 329.195C122.994 329.196 127.091 327.817 130.425 325.275C133.758 322.733 136.137 319.172 137.188 315.152C138.239 311.133 137.902 306.884 136.23 303.075C134.558 299.265 131.646 296.11 127.952 294.108Z" fill="#070203"/>
</g>
</g>
</g>
<ellipse opacity="0.7" cx="123.882" cy="284.434" rx="4.48689" ry="4.41567" fill="url(#paint0_radial)"/>
<ellipse opacity="0.7" cx="110.662" cy="275.839" rx="4.08628" ry="4.02142" fill="url(#paint1_radial)"/>
<g filter="url(#filter0_d)">
<path d="M123.737 282.518C123.899 282.088 124.507 282.088 124.668 282.518L124.901 283.138C124.952 283.273 125.06 283.38 125.197 283.43L125.803 283.651C126.24 283.81 126.24 284.427 125.803 284.586L125.197 284.807C125.06 284.857 124.952 284.963 124.901 285.099L124.668 285.718C124.507 286.148 123.899 286.148 123.737 285.718L123.504 285.099C123.453 284.963 123.345 284.857 123.209 284.807L122.602 284.586C122.166 284.427 122.166 283.81 122.602 283.651L123.209 283.43C123.345 283.38 123.453 283.273 123.504 283.138L123.737 282.518Z" fill="white"/>
</g>
<g filter="url(#filter1_d)">
<path d="M110.436 274.475C110.598 274.046 111.206 274.046 111.368 274.475L111.471 274.749C111.522 274.885 111.63 274.992 111.766 275.042L112.022 275.135C112.458 275.294 112.458 275.911 112.022 276.07L111.766 276.163C111.63 276.213 111.522 276.32 111.471 276.455L111.368 276.729C111.206 277.159 110.598 277.159 110.436 276.729L110.333 276.455C110.282 276.32 110.174 276.213 110.038 276.163L109.782 276.07C109.346 275.911 109.346 275.294 109.782 275.135L110.038 275.042C110.174 274.992 110.282 274.885 110.333 274.749L110.436 274.475Z" fill="white"/>
</g>
<path d="M233.204 289.028L236.167 290.017C236.318 290.068 236.451 290.165 236.544 290.294C236.638 290.424 236.688 290.58 236.688 290.74C236.688 290.9 236.638 291.056 236.544 291.186C236.451 291.316 236.318 291.413 236.167 291.463L233.204 292.453C233.092 292.49 232.99 292.552 232.906 292.636C232.823 292.719 232.76 292.821 232.723 292.934L231.732 295.898C231.682 296.049 231.584 296.181 231.455 296.274C231.325 296.367 231.169 296.418 231.009 296.418C230.85 296.418 230.694 296.367 230.564 296.274C230.435 296.181 230.337 296.049 230.287 295.898L229.298 292.934C229.261 292.822 229.198 292.72 229.114 292.636C229.031 292.553 228.929 292.49 228.817 292.453L225.856 291.463C225.704 291.413 225.571 291.316 225.478 291.186C225.384 291.056 225.333 290.9 225.333 290.74C225.333 290.58 225.384 290.424 225.478 290.294C225.571 290.164 225.704 290.067 225.856 290.017L228.817 289.028C228.929 288.991 229.031 288.928 229.114 288.845C229.198 288.761 229.261 288.659 229.298 288.547L230.287 285.585C230.337 285.433 230.434 285.301 230.564 285.207C230.693 285.113 230.849 285.063 231.009 285.063C231.17 285.063 231.326 285.113 231.455 285.207C231.585 285.301 231.682 285.433 231.732 285.585L232.724 288.547C232.76 288.66 232.823 288.762 232.907 288.845C232.99 288.929 233.092 288.992 233.205 289.028" fill="#F3C976"/>
<path d="M279.38 273.275L282.343 274.264C282.495 274.315 282.626 274.412 282.72 274.542C282.813 274.671 282.863 274.827 282.863 274.987C282.863 275.147 282.813 275.302 282.72 275.432C282.626 275.562 282.495 275.659 282.343 275.71L279.38 276.7C279.267 276.737 279.165 276.799 279.082 276.883C278.998 276.966 278.935 277.068 278.899 277.181L277.909 280.144C277.858 280.296 277.761 280.428 277.631 280.521C277.501 280.614 277.346 280.664 277.186 280.664C277.026 280.664 276.87 280.614 276.74 280.521C276.611 280.428 276.514 280.296 276.463 280.144L275.474 277.181C275.437 277.068 275.374 276.966 275.291 276.883C275.207 276.799 275.105 276.737 274.993 276.7L272.029 275.71C271.877 275.659 271.745 275.562 271.652 275.433C271.558 275.303 271.508 275.147 271.508 274.987C271.508 274.827 271.558 274.671 271.652 274.541C271.745 274.411 271.877 274.314 272.029 274.264L274.993 273.275C275.105 273.238 275.207 273.175 275.29 273.092C275.374 273.008 275.437 272.906 275.474 272.794L276.463 269.831C276.513 269.679 276.61 269.547 276.74 269.453C276.87 269.359 277.026 269.309 277.186 269.309C277.346 269.309 277.502 269.359 277.631 269.453C277.761 269.547 277.858 269.679 277.909 269.831L278.899 272.794C278.936 272.906 278.999 273.008 279.082 273.092C279.166 273.175 279.267 273.238 279.38 273.275Z" fill="#F3C976"/>
<path d="M291.501 296.419C291.501 296.804 291.387 297.18 291.174 297.499C290.96 297.819 290.656 298.068 290.301 298.215C289.946 298.363 289.555 298.401 289.178 298.326C288.801 298.251 288.454 298.066 288.182 297.794C287.91 297.522 287.725 297.176 287.65 296.798C287.575 296.421 287.614 296.03 287.761 295.675C287.908 295.32 288.157 295.016 288.477 294.803C288.797 294.589 289.172 294.475 289.557 294.475C289.812 294.475 290.065 294.525 290.301 294.623C290.537 294.72 290.751 294.864 290.932 295.044C291.113 295.225 291.256 295.439 291.353 295.675C291.451 295.911 291.501 296.164 291.501 296.419Z" fill="#A6D9E7"/>
<path d="M263.845 266.528C263.845 266.912 263.731 267.288 263.517 267.608C263.304 267.927 263 268.177 262.645 268.324C262.289 268.471 261.898 268.509 261.521 268.434C261.144 268.359 260.798 268.174 260.526 267.902C260.254 267.63 260.069 267.284 259.994 266.907C259.919 266.53 259.957 266.139 260.104 265.784C260.252 265.428 260.501 265.125 260.82 264.911C261.14 264.697 261.516 264.583 261.901 264.583C262.156 264.583 262.409 264.633 262.645 264.731C262.881 264.829 263.095 264.972 263.276 265.153C263.456 265.333 263.599 265.548 263.697 265.783C263.795 266.019 263.845 266.272 263.845 266.528Z" fill="#A6D9E7"/>
<path d="M245.664 271.583C245.664 271.967 245.55 272.343 245.336 272.663C245.123 272.983 244.819 273.232 244.464 273.379C244.108 273.526 243.718 273.565 243.34 273.49C242.963 273.414 242.617 273.229 242.345 272.957C242.073 272.686 241.888 272.339 241.813 271.962C241.738 271.585 241.776 271.194 241.923 270.839C242.071 270.483 242.32 270.18 242.64 269.966C242.959 269.752 243.335 269.638 243.72 269.638C243.975 269.638 244.228 269.689 244.464 269.786C244.7 269.884 244.914 270.027 245.095 270.208C245.275 270.388 245.418 270.603 245.516 270.838C245.614 271.074 245.664 271.327 245.664 271.583Z" fill="#A6D9E7"/>
<path d="M269.761 285.383C269.761 285.346 269.771 285.314 269.771 285.277C269.771 284.224 269.352 283.214 268.608 282.469C267.863 281.724 266.853 281.306 265.8 281.306H252.816C251.763 281.306 250.753 281.724 250.008 282.469C249.263 283.213 248.845 284.223 248.845 285.277C248.845 285.313 248.854 285.348 248.855 285.383C244.646 287.702 241.328 291.355 239.423 295.766C237.518 300.177 237.134 305.097 238.331 309.751C239.528 314.404 242.239 318.528 246.036 321.472C249.834 324.416 254.503 326.014 259.308 326.014C264.113 326.014 268.782 324.416 272.579 321.472C276.377 318.528 279.088 314.404 280.285 309.751C281.482 305.097 281.098 300.177 279.193 295.766C277.287 291.355 273.969 287.702 269.761 285.383ZM259.308 318.22C256.563 318.22 253.88 317.406 251.598 315.881C249.316 314.356 247.538 312.189 246.487 309.653C245.437 307.117 245.162 304.327 245.698 301.635C246.233 298.943 247.555 296.47 249.496 294.53C251.437 292.589 253.91 291.267 256.602 290.732C259.293 290.197 262.084 290.472 264.619 291.522C267.155 292.573 269.322 294.352 270.847 296.634C272.372 298.916 273.185 301.599 273.185 304.344C273.181 308.023 271.717 311.55 269.116 314.151C266.514 316.752 262.987 318.216 259.308 318.22Z" fill="#FFC15E"/>
<g opacity="0.06">
<g opacity="0.06">
<g opacity="0.06">
<path opacity="0.06" d="M270.334 285.387C270.334 285.35 270.344 285.317 270.344 285.281C270.344 284.227 269.926 283.216 269.181 282.471C268.435 281.726 267.425 281.307 266.371 281.307H260.753C261.807 281.307 262.818 281.726 263.563 282.471C264.308 283.216 264.727 284.227 264.727 285.281C264.727 285.318 264.717 285.352 264.715 285.387C268.716 287.587 271.919 290.996 273.866 295.126C275.813 299.256 276.405 303.896 275.556 308.383C274.708 312.869 272.462 316.973 269.141 320.106C265.82 323.24 261.594 325.243 257.065 325.83C262.07 326.489 267.148 325.379 271.422 322.691C275.695 320.003 278.895 315.907 280.469 311.11C282.043 306.314 281.891 301.118 280.041 296.421C278.19 291.724 274.757 287.821 270.334 285.387Z" fill="#070203"/>
</g>
</g>
</g>
<circle opacity="0.7" cx="264.586" cy="286.353" r="4.28674" fill="url(#paint2_radial)"/>
<circle opacity="0.7" cx="245.506" cy="321.74" r="6.05186" fill="url(#paint3_radial)"/>
<g filter="url(#filter2_d)">
<path d="M264.256 285.152C264.456 284.612 265.221 284.612 265.42 285.152C265.483 285.322 265.617 285.456 265.787 285.519C266.327 285.719 266.327 286.483 265.787 286.683C265.617 286.746 265.483 286.88 265.42 287.05C265.221 287.59 264.456 287.59 264.256 287.05C264.194 286.88 264.06 286.746 263.89 286.683C263.349 286.483 263.349 285.719 263.89 285.519C264.06 285.456 264.194 285.322 264.256 285.152Z" fill="white"/>
</g>
<g filter="url(#filter3_d)">
<path d="M245.12 319.659C245.368 318.988 246.317 318.988 246.565 319.659L246.718 320.072C246.796 320.283 246.963 320.45 247.174 320.528L247.587 320.681C248.258 320.929 248.258 321.878 247.587 322.126L247.174 322.279C246.963 322.358 246.796 322.524 246.718 322.735L246.565 323.148C246.317 323.819 245.368 323.819 245.12 323.148L244.967 322.735C244.889 322.524 244.722 322.358 244.511 322.279L244.098 322.126C243.427 321.878 243.427 320.929 244.098 320.681L244.511 320.528C244.722 320.45 244.889 320.283 244.967 320.072L245.12 319.659Z" fill="white" fill-opacity="0.8"/>
</g>
<path d="M377.943 282.688L380.843 283.656C380.991 283.705 381.12 283.8 381.211 283.927C381.302 284.054 381.352 284.207 381.352 284.363C381.352 284.519 381.302 284.672 381.211 284.799C381.12 284.926 380.991 285.021 380.843 285.07L377.943 286.039C377.833 286.075 377.734 286.137 377.652 286.218C377.57 286.3 377.509 286.4 377.472 286.509L376.504 289.409C376.454 289.557 376.359 289.686 376.232 289.778C376.105 289.869 375.953 289.918 375.797 289.918C375.64 289.918 375.488 289.869 375.361 289.778C375.234 289.686 375.139 289.557 375.089 289.409L374.122 286.509C374.085 286.4 374.024 286.3 373.942 286.218C373.861 286.137 373.761 286.075 373.651 286.039L370.749 285.07C370.601 285.021 370.471 284.926 370.38 284.799C370.288 284.672 370.239 284.52 370.239 284.363C370.239 284.206 370.288 284.054 370.38 283.927C370.471 283.8 370.601 283.705 370.749 283.656L373.649 282.688C373.759 282.652 373.858 282.59 373.94 282.509C374.022 282.427 374.083 282.327 374.12 282.218L375.088 279.319C375.137 279.17 375.232 279.041 375.359 278.95C375.486 278.858 375.639 278.809 375.795 278.809C375.952 278.809 376.104 278.858 376.231 278.95C376.358 279.041 376.453 279.17 376.502 279.319L377.471 282.219C377.508 282.328 377.569 282.428 377.651 282.509C377.733 282.591 377.833 282.652 377.943 282.688Z" fill="#E8DAC7"/>
<path d="M418.653 270.006L421.552 270.973C421.701 271.023 421.83 271.118 421.921 271.245C422.012 271.372 422.061 271.524 422.061 271.68C422.061 271.837 422.012 271.989 421.921 272.116C421.83 272.243 421.701 272.338 421.552 272.388L418.653 273.355C418.543 273.392 418.443 273.453 418.362 273.535C418.28 273.616 418.218 273.716 418.182 273.826L417.214 276.726C417.164 276.874 417.069 277.003 416.942 277.095C416.815 277.187 416.663 277.236 416.506 277.236C416.35 277.236 416.197 277.187 416.07 277.095C415.943 277.003 415.848 276.874 415.799 276.726L414.831 273.826C414.795 273.716 414.734 273.616 414.652 273.535C414.57 273.453 414.471 273.392 414.361 273.355L411.461 272.388C411.313 272.338 411.183 272.244 411.092 272.117C411 271.99 410.951 271.837 410.951 271.68C410.951 271.524 411 271.371 411.092 271.244C411.183 271.117 411.313 271.022 411.461 270.973L414.361 270.006C414.471 269.969 414.57 269.907 414.652 269.826C414.734 269.744 414.795 269.644 414.831 269.534L415.799 266.635C415.848 266.487 415.943 266.358 416.07 266.266C416.197 266.174 416.35 266.125 416.506 266.125C416.663 266.125 416.815 266.174 416.942 266.266C417.069 266.358 417.164 266.487 417.214 266.635L418.182 269.534C418.218 269.644 418.28 269.744 418.361 269.826C418.443 269.907 418.543 269.969 418.653 270.006Z" fill="#E8DAC7"/>
<path d="M388.766 272.887C388.766 273.263 388.654 273.631 388.445 273.944C388.236 274.256 387.939 274.5 387.591 274.644C387.244 274.787 386.862 274.825 386.493 274.751C386.124 274.678 385.785 274.497 385.519 274.231C385.254 273.965 385.073 273.626 384.999 273.257C384.926 272.888 384.964 272.506 385.108 272.158C385.252 271.811 385.496 271.514 385.809 271.305C386.121 271.096 386.489 270.985 386.865 270.985C387.115 270.985 387.362 271.034 387.593 271.13C387.824 271.226 388.033 271.366 388.21 271.542C388.386 271.719 388.526 271.929 388.622 272.159C388.717 272.39 388.766 272.638 388.766 272.887Z" fill="#EAD7AC"/>
<path d="M429.927 292.911C429.926 293.287 429.815 293.655 429.606 293.967C429.397 294.28 429.099 294.524 428.752 294.667C428.404 294.811 428.022 294.849 427.653 294.775C427.284 294.702 426.946 294.521 426.68 294.254C426.414 293.988 426.233 293.65 426.16 293.281C426.087 292.912 426.124 292.529 426.268 292.182C426.413 291.835 426.656 291.538 426.969 291.329C427.282 291.12 427.65 291.009 428.026 291.009C428.275 291.009 428.523 291.058 428.753 291.154C428.984 291.249 429.194 291.39 429.37 291.566C429.547 291.743 429.687 291.953 429.782 292.183C429.878 292.414 429.927 292.661 429.927 292.911Z" fill="#EAD7AC"/>
<path d="M410.976 285.271C410.976 285.234 410.986 285.201 410.986 285.163C410.986 284.11 410.567 283.101 409.823 282.356C409.078 281.612 408.068 281.194 407.015 281.194H394.03C393.509 281.194 392.993 281.296 392.511 281.496C392.029 281.695 391.591 281.987 391.223 282.356C390.854 282.725 390.561 283.162 390.362 283.644C390.162 284.126 390.059 284.642 390.059 285.163C390.059 285.2 390.069 285.235 390.069 285.271C385.86 287.59 382.542 291.243 380.637 295.654C378.732 300.065 378.347 304.985 379.545 309.639C380.742 314.292 383.453 318.416 387.25 321.36C391.048 324.304 395.716 325.902 400.522 325.902C405.327 325.902 409.996 324.304 413.793 321.36C417.591 318.416 420.302 314.292 421.499 309.639C422.696 304.985 422.312 300.065 420.407 295.654C418.501 291.243 415.183 287.59 410.975 285.271H410.976ZM400.522 318.106C397.777 318.106 395.094 317.292 392.812 315.767C390.53 314.242 388.751 312.075 387.701 309.539C386.651 307.004 386.376 304.213 386.911 301.522C387.447 298.83 388.769 296.357 390.709 294.417C392.65 292.476 395.123 291.154 397.815 290.619C400.507 290.084 403.297 290.359 405.832 291.409C408.368 292.459 410.535 294.238 412.06 296.52C413.584 298.803 414.398 301.486 414.398 304.23C414.394 307.909 412.931 311.436 410.329 314.038C407.728 316.639 404.2 318.102 400.521 318.106" fill="#CFC2AF"/>
<g opacity="0.06">
<g opacity="0.06">
<g opacity="0.06">
<path opacity="0.06" d="M411.223 285.304C411.223 285.267 411.235 285.232 411.235 285.195C411.234 284.134 410.812 283.116 410.061 282.365C409.31 281.615 408.292 281.193 407.23 281.193H401.574C402.099 281.193 402.62 281.297 403.105 281.498C403.591 281.699 404.032 281.994 404.403 282.366C404.775 282.737 405.07 283.178 405.271 283.664C405.472 284.149 405.576 284.67 405.576 285.195C405.576 285.232 405.566 285.267 405.565 285.304C409.594 287.52 412.819 290.953 414.779 295.112C416.74 299.271 417.335 303.944 416.48 308.462C415.625 312.979 413.364 317.111 410.02 320.267C406.676 323.422 402.42 325.44 397.86 326.031C402.9 326.696 408.015 325.578 412.319 322.872C416.623 320.165 419.846 316.04 421.431 311.209C423.016 306.379 422.863 301.146 421 296.416C419.136 291.685 415.678 287.755 411.223 285.304Z" fill="#070203"/>
</g>
</g>
</g>
<path d="M513.834 283.787L516.769 284.765C516.919 284.815 517.05 284.911 517.142 285.04C517.235 285.168 517.285 285.323 517.285 285.481C517.285 285.64 517.235 285.794 517.142 285.922C517.05 286.051 516.919 286.147 516.769 286.197L513.834 287.177C513.723 287.214 513.623 287.276 513.54 287.359C513.457 287.441 513.395 287.542 513.358 287.653L512.379 290.587C512.329 290.737 512.233 290.868 512.104 290.96C511.976 291.052 511.821 291.102 511.663 291.102C511.505 291.102 511.351 291.052 511.222 290.96C511.094 290.868 510.997 290.737 510.947 290.587L509.969 287.653C509.933 287.542 509.87 287.441 509.787 287.358C509.704 287.276 509.603 287.213 509.492 287.177L506.559 286.198C506.408 286.148 506.277 286.052 506.184 285.924C506.092 285.795 506.042 285.641 506.042 285.482C506.042 285.324 506.092 285.169 506.184 285.041C506.277 284.912 506.408 284.816 506.559 284.767L509.491 283.788C509.603 283.751 509.704 283.689 509.787 283.606C509.869 283.523 509.932 283.423 509.969 283.312L510.947 280.377C510.997 280.227 511.093 280.097 511.221 280.004C511.35 279.912 511.504 279.862 511.663 279.862C511.821 279.862 511.976 279.912 512.104 280.004C512.233 280.097 512.329 280.227 512.379 280.377L513.358 283.312C513.395 283.422 513.457 283.523 513.54 283.606C513.623 283.688 513.723 283.751 513.834 283.788" fill="#F3C976"/>
<path d="M561.675 274.677L564.609 275.656C564.759 275.706 564.89 275.802 564.982 275.93C565.074 276.059 565.124 276.213 565.124 276.371C565.124 276.529 565.074 276.684 564.982 276.812C564.89 276.94 564.759 277.037 564.609 277.087L561.675 278.067C561.564 278.104 561.463 278.166 561.381 278.249C561.298 278.331 561.236 278.432 561.199 278.543L560.219 281.477C560.169 281.627 560.072 281.758 559.944 281.85C559.816 281.942 559.661 281.992 559.503 281.992C559.345 281.992 559.191 281.942 559.062 281.85C558.934 281.758 558.838 281.627 558.788 281.477L557.809 278.543C557.772 278.432 557.71 278.331 557.627 278.249C557.544 278.166 557.443 278.104 557.332 278.067L554.398 277.087C554.248 277.037 554.117 276.941 554.025 276.813C553.932 276.684 553.882 276.53 553.882 276.371C553.882 276.213 553.932 276.058 554.025 275.93C554.117 275.801 554.248 275.705 554.398 275.656L557.332 274.677C557.443 274.64 557.544 274.578 557.627 274.495C557.71 274.412 557.772 274.311 557.809 274.2L558.788 271.266C558.837 271.116 558.933 270.985 559.062 270.893C559.19 270.8 559.345 270.75 559.503 270.75C559.662 270.75 559.816 270.8 559.944 270.893C560.073 270.985 560.169 271.116 560.219 271.266L561.199 274.2C561.236 274.311 561.298 274.412 561.381 274.495C561.463 274.578 561.564 274.64 561.675 274.677Z" fill="#F3C976"/>
<path d="M525.582 272.675C525.582 273.056 525.469 273.428 525.258 273.745C525.046 274.061 524.746 274.308 524.394 274.454C524.042 274.599 523.655 274.637 523.282 274.563C522.908 274.489 522.566 274.305 522.296 274.036C522.027 273.767 521.844 273.424 521.77 273.051C521.695 272.677 521.733 272.29 521.879 271.939C522.025 271.587 522.271 271.286 522.588 271.075C522.905 270.863 523.277 270.75 523.657 270.75C523.91 270.75 524.16 270.8 524.394 270.897C524.628 270.993 524.84 271.135 525.019 271.314C525.197 271.493 525.339 271.705 525.436 271.939C525.533 272.172 525.582 272.422 525.582 272.675Z" fill="#EAD7AC"/>
<path d="M565.125 291.102C565.125 291.483 565.012 291.855 564.8 292.171C564.589 292.488 564.288 292.735 563.936 292.88C563.585 293.026 563.198 293.064 562.824 292.99C562.451 292.915 562.108 292.732 561.839 292.463C561.57 292.194 561.386 291.851 561.312 291.477C561.238 291.104 561.276 290.717 561.422 290.365C561.567 290.014 561.814 289.713 562.131 289.502C562.447 289.29 562.819 289.177 563.2 289.177C563.453 289.177 563.703 289.227 563.937 289.323C564.17 289.42 564.382 289.562 564.561 289.741C564.74 289.919 564.882 290.132 564.978 290.365C565.075 290.599 565.125 290.849 565.125 291.102Z" fill="#EAD7AC"/>
<path d="M549.759 286.279C549.759 286.243 549.769 286.211 549.769 286.173C549.769 285.12 549.351 284.11 548.606 283.366C547.862 282.621 546.852 282.202 545.799 282.202H532.813C531.76 282.202 530.75 282.621 530.006 283.366C529.261 284.11 528.843 285.12 528.843 286.173C528.843 286.21 528.851 286.244 528.852 286.279C524.644 288.598 521.326 292.251 519.421 296.662C517.515 301.074 517.131 305.993 518.328 310.647C519.526 315.301 522.236 319.424 526.034 322.368C529.832 325.313 534.5 326.91 539.306 326.91C544.111 326.91 548.78 325.313 552.577 322.368C556.375 319.424 559.085 315.301 560.283 310.647C561.48 305.993 561.096 301.074 559.19 296.662C557.285 292.251 553.967 288.598 549.759 286.279H549.759ZM539.306 319.115C536.561 319.115 533.878 318.302 531.596 316.777C529.314 315.252 527.535 313.085 526.485 310.549C525.434 308.014 525.159 305.224 525.695 302.532C526.23 299.84 527.552 297.367 529.493 295.426C531.433 293.486 533.906 292.164 536.598 291.629C539.29 291.093 542.08 291.368 544.616 292.419C547.151 293.469 549.319 295.248 550.843 297.53C552.368 299.812 553.182 302.495 553.181 305.24C553.177 308.919 551.714 312.446 549.112 315.047C546.511 317.648 542.984 319.111 539.305 319.115" fill="#C78C49"/>
<g opacity="0.06">
<g opacity="0.06">
<g opacity="0.06">
<path opacity="0.06" d="M550.138 286.283C550.138 286.246 550.149 286.213 550.149 286.177C550.149 285.122 549.73 284.112 548.985 283.366C548.24 282.62 547.229 282.201 546.175 282.2H540.556C541.079 282.2 541.596 282.303 542.078 282.503C542.56 282.703 542.999 282.996 543.368 283.365C543.737 283.734 544.03 284.172 544.23 284.655C544.43 285.137 544.533 285.654 544.533 286.177C544.533 286.213 544.522 286.248 544.522 286.283C548.523 288.483 551.726 291.892 553.673 296.022C555.62 300.152 556.211 304.792 555.362 309.278C554.513 313.765 552.268 317.868 548.946 321.001C545.625 324.134 541.398 326.137 536.87 326.723C541.875 327.382 546.953 326.273 551.226 323.585C555.5 320.898 558.7 316.802 560.274 312.005C561.848 307.209 561.696 302.013 559.845 297.316C557.995 292.62 554.561 288.717 550.138 286.283" fill="#070203"/>
</g>
</g>
</g>
<path d="M685.872 284.183C685.872 284.146 685.883 284.113 685.883 284.076C685.883 283.018 685.463 282.003 684.714 281.255C683.966 280.507 682.952 280.087 681.894 280.087H668.851C667.793 280.087 666.778 280.507 666.03 281.255C665.282 282.003 664.862 283.018 664.862 284.076C664.862 284.113 664.871 284.147 664.872 284.183C660.644 286.512 657.311 290.181 655.397 294.613C653.482 299.044 653.096 303.987 654.299 308.662C655.502 313.337 658.225 317.479 662.04 320.437C665.855 323.395 670.545 325 675.372 325C680.199 325 684.89 323.395 688.705 320.437C692.52 317.479 695.243 313.337 696.445 308.662C697.648 303.987 697.262 299.044 695.348 294.613C693.434 290.181 690.1 286.512 685.872 284.183ZM675.372 317.168C672.615 317.168 669.92 316.35 667.627 314.818C665.335 313.286 663.549 311.109 662.494 308.562C661.439 306.015 661.163 303.212 661.701 300.508C662.239 297.804 663.567 295.32 665.517 293.371C667.466 291.421 669.95 290.094 672.654 289.556C675.358 289.019 678.161 289.295 680.708 290.35C683.255 291.405 685.432 293.192 686.964 295.485C688.495 297.777 689.313 300.472 689.313 303.229C689.308 306.925 687.838 310.468 685.225 313.081C682.612 315.694 679.068 317.164 675.373 317.168" fill="#8BB84D"/>
<g opacity="0.06">
<g opacity="0.06">
<g opacity="0.06">
<path opacity="0.06" d="M685.872 284.184C685.872 284.147 685.882 284.113 685.882 284.077C685.882 283.019 685.462 282.004 684.714 281.255C683.966 280.507 682.952 280.086 681.893 280.085H676.254C677.312 280.086 678.326 280.507 679.074 281.255C679.822 282.004 680.243 283.019 680.243 284.077C680.243 284.114 680.232 284.149 680.231 284.184C684.247 286.392 687.463 289.814 689.417 293.96C691.372 298.106 691.966 302.764 691.114 307.268C690.262 311.772 688.008 315.891 684.674 319.037C681.34 322.182 677.097 324.194 672.551 324.783C677.576 325.445 682.674 324.331 686.964 321.633C691.254 318.935 694.467 314.823 696.047 310.007C697.627 305.192 697.475 299.976 695.617 295.26C693.759 290.545 690.312 286.627 685.872 284.184" fill="#070203"/>
</g>
</g>
</g>
<path d="M684.761 279.678C686.988 276.589 686.633 270.872 686.186 267.566C686.141 267.224 686.027 266.895 685.85 266.599C685.673 266.304 685.438 266.047 685.158 265.846L672.563 283.317C676.041 285.826 681.503 284.197 684.761 279.677" fill="#698E25"/>
<path d="M672.563 283.317L685.159 265.846C684.879 265.644 684.561 265.501 684.224 265.427C683.887 265.353 683.538 265.349 683.2 265.414C679.921 266.035 674.386 267.505 672.159 270.593C668.901 275.113 669.081 280.809 672.561 283.317" fill="#87AB3E"/>
<path d="M657.404 270.543C657.404 270.918 657.292 271.285 657.084 271.596C656.876 271.908 656.579 272.151 656.233 272.294C655.887 272.437 655.505 272.475 655.138 272.402C654.77 272.328 654.433 272.148 654.168 271.882C653.903 271.617 653.722 271.279 653.649 270.912C653.576 270.544 653.614 270.163 653.757 269.817C653.901 269.47 654.144 269.174 654.456 268.966C654.768 268.758 655.134 268.647 655.509 268.647C655.758 268.647 656.004 268.696 656.234 268.792C656.464 268.887 656.673 269.027 656.849 269.203C657.025 269.379 657.165 269.588 657.26 269.818C657.355 270.048 657.404 270.294 657.404 270.543Z" fill="white"/>
<path d="M707.902 292.841C707.901 293.216 707.79 293.582 707.582 293.894C707.373 294.206 707.077 294.448 706.731 294.592C706.384 294.735 706.003 294.773 705.636 294.699C705.268 294.626 704.93 294.445 704.665 294.18C704.4 293.915 704.22 293.577 704.147 293.209C704.074 292.842 704.112 292.461 704.255 292.114C704.399 291.768 704.642 291.472 704.954 291.264C705.265 291.056 705.632 290.945 706.007 290.945C706.256 290.945 706.502 290.994 706.732 291.089C706.962 291.185 707.171 291.324 707.347 291.5C707.523 291.677 707.663 291.886 707.758 292.116C707.853 292.346 707.902 292.592 707.902 292.841Z" fill="white"/>
<path d="M674.455 256.771C674.455 257.146 674.344 257.513 674.135 257.824C673.927 258.136 673.631 258.379 673.284 258.522C672.938 258.665 672.557 258.703 672.189 258.629C671.821 258.556 671.484 258.375 671.219 258.11C670.954 257.845 670.773 257.507 670.7 257.14C670.627 256.772 670.665 256.391 670.809 256.044C670.952 255.698 671.195 255.402 671.507 255.194C671.819 254.986 672.185 254.875 672.56 254.875C672.809 254.875 673.056 254.924 673.286 255.019C673.516 255.115 673.725 255.254 673.9 255.431C674.076 255.607 674.216 255.816 674.311 256.046C674.406 256.276 674.455 256.522 674.455 256.771Z" fill="white"/>
<path d="M642.93 286.942L645.82 287.907C645.968 287.956 646.096 288.051 646.187 288.177C646.278 288.304 646.327 288.456 646.327 288.612C646.327 288.767 646.278 288.919 646.187 289.046C646.096 289.172 645.968 289.267 645.82 289.317L642.93 290.282C642.82 290.318 642.721 290.38 642.639 290.461C642.558 290.543 642.497 290.642 642.46 290.751L641.495 293.642C641.445 293.789 641.351 293.918 641.224 294.009C641.098 294.1 640.946 294.149 640.79 294.149C640.634 294.149 640.482 294.1 640.356 294.009C640.229 293.918 640.134 293.789 640.085 293.642L639.121 290.751C639.084 290.642 639.023 290.543 638.942 290.461C638.86 290.38 638.761 290.318 638.651 290.282L635.759 289.317C635.611 289.267 635.482 289.173 635.39 289.046C635.299 288.92 635.25 288.768 635.25 288.612C635.25 288.456 635.299 288.303 635.39 288.177C635.482 288.05 635.611 287.956 635.759 287.907L638.649 286.942C638.759 286.906 638.858 286.845 638.939 286.763C639.021 286.682 639.082 286.582 639.118 286.473L640.083 283.584C640.133 283.436 640.227 283.307 640.354 283.215C640.48 283.124 640.632 283.075 640.788 283.075C640.945 283.075 641.097 283.124 641.223 283.215C641.35 283.307 641.444 283.436 641.494 283.584L642.459 286.474C642.496 286.583 642.557 286.683 642.639 286.764C642.72 286.845 642.82 286.906 642.93 286.942Z" fill="white"/>
<path d="M702.607 267.269L705.497 268.233C705.645 268.283 705.773 268.378 705.864 268.504C705.955 268.631 706.004 268.782 706.004 268.938C706.004 269.094 705.955 269.246 705.864 269.373C705.773 269.499 705.645 269.594 705.497 269.643L702.607 270.608C702.497 270.644 702.398 270.705 702.316 270.787C702.235 270.868 702.174 270.967 702.137 271.077L701.172 273.967C701.123 274.115 701.028 274.244 700.902 274.336C700.775 274.427 700.623 274.476 700.467 274.476C700.311 274.476 700.159 274.427 700.032 274.336C699.906 274.244 699.811 274.115 699.762 273.967L698.797 271.077C698.761 270.967 698.7 270.868 698.619 270.787C698.537 270.705 698.438 270.644 698.328 270.608L695.438 269.643C695.29 269.594 695.161 269.5 695.07 269.373C694.978 269.246 694.929 269.094 694.929 268.938C694.929 268.782 694.978 268.63 695.07 268.504C695.161 268.377 695.29 268.282 695.438 268.233L698.328 267.269C698.438 267.232 698.537 267.171 698.619 267.089C698.7 267.008 698.761 266.908 698.797 266.798L699.762 263.909C699.811 263.761 699.906 263.632 700.032 263.541C700.159 263.45 700.311 263.401 700.467 263.401C700.623 263.401 700.775 263.45 700.902 263.541C701.028 263.632 701.123 263.761 701.172 263.909L702.137 266.798C702.173 266.908 702.235 267.008 702.316 267.089C702.398 267.171 702.497 267.232 702.607 267.269Z" fill="white"/>
<path d="M133.318 115.35H155.068C155.501 115.35 155.718 115.633 155.718 116.2C155.718 117.467 155.335 118.1 154.568 118.1H145.918V122.5C145.918 127.067 147.001 130.867 149.168 133.9C151.368 136.9 153.935 139.233 156.868 140.9C157.368 141.233 157.401 141.783 156.968 142.55C156.501 143.383 156.001 143.633 155.468 143.3C151.968 141.467 148.968 138.85 146.468 135.45C145.601 134.25 144.885 132.95 144.318 131.55C143.751 133.05 143.018 134.433 142.118 135.7C139.618 139.267 136.618 141.967 133.118 143.8C132.551 144.133 132.068 143.883 131.668 143.05C131.201 142.283 131.251 141.717 131.818 141.35C134.718 139.717 137.251 137.317 139.418 134.15C141.585 130.95 142.668 127.067 142.668 122.5V118.1H133.318V115.35ZM166.518 153.7C166.518 155.967 165.901 157.1 164.668 157.1H164.218C163.651 157.1 163.368 156.817 163.368 156.25V113.1H166.518V153.7ZM178.736 116.35V113.6H206.336C207.202 113.6 207.636 114.067 207.636 115V117.05C207.636 120.217 207.069 123.867 205.936 128C205.802 128.567 205.402 128.85 204.736 128.85H202.786C203.919 124.683 204.486 120.8 204.486 117.2V116.35H178.736ZM212.536 131.35C212.936 131.35 213.136 131.65 213.136 132.25C213.136 133.483 212.752 134.1 211.986 134.1H172.736V131.35H212.536ZM207.386 151.9C207.386 155.033 206.619 156.6 205.086 156.6H181.186C179.386 156.6 178.486 155.683 178.486 153.85V140H205.986C206.919 140 207.386 140.45 207.386 141.35V151.9ZM203.486 153.85C203.986 153.85 204.236 153.367 204.236 152.4V142.75H181.636V153C181.636 153.567 181.919 153.85 182.486 153.85H203.486ZM266.543 135.45C266.543 137.717 265.927 138.85 264.693 138.85H264.243C263.677 138.85 263.393 138.567 263.393 138V113.1H266.543V123.1H273.243C273.677 123.1 273.893 123.4 273.893 124C273.893 125.233 273.51 125.85 272.743 125.85H266.543V135.45ZM234.243 114.85H253.843C254.243 114.85 254.443 115.133 254.443 115.7C254.443 116.967 254.06 117.6 253.293 117.6H237.393V130.1C237.393 130.667 237.677 130.95 238.243 130.95H258.593C258.993 130.95 259.193 131.25 259.193 131.85C259.193 133.083 258.81 133.7 258.043 133.7H236.893C235.127 133.7 234.243 132.783 234.243 130.95V114.85ZM252.843 139.1C254.877 139.1 256.743 139.35 258.443 139.85C260.177 140.35 261.627 141 262.793 141.8C263.927 142.6 264.793 143.583 265.393 144.75C265.993 145.883 266.293 147.067 266.293 148.3C266.293 149.6 265.993 150.817 265.393 151.95C264.793 153.083 263.927 154.067 262.793 154.9C261.627 155.7 260.177 156.35 258.443 156.85C256.743 157.35 254.877 157.6 252.843 157.6C250.777 157.6 248.893 157.35 247.193 156.85C245.527 156.35 244.11 155.7 242.943 154.9C241.743 154.067 240.827 153.083 240.193 151.95C239.56 150.817 239.243 149.6 239.243 148.3C239.243 147.067 239.56 145.883 240.193 144.75C240.827 143.583 241.743 142.6 242.943 141.8C244.11 141 245.527 140.35 247.193 139.85C248.893 139.35 250.777 139.1 252.843 139.1ZM252.743 154.85C254.177 154.85 255.527 154.683 256.793 154.35C258.06 154.017 259.16 153.55 260.093 152.95C261.027 152.35 261.76 151.633 262.293 150.8C262.86 149.967 263.143 149.133 263.143 148.3C263.143 147.433 262.86 146.6 262.293 145.8C261.76 144.967 261.027 144.267 260.093 143.7C259.16 143.133 258.06 142.683 256.793 142.35C255.527 142.017 254.177 141.85 252.743 141.85C251.243 141.85 249.843 142.017 248.543 142.35C247.277 142.683 246.193 143.133 245.293 143.7C244.36 144.267 243.643 144.967 243.143 145.8C242.643 146.6 242.393 147.433 242.393 148.3C242.393 149.133 242.643 149.967 243.143 150.8C243.643 151.633 244.36 152.35 245.293 152.95C246.193 153.55 247.277 154.017 248.543 154.35C249.843 154.683 251.243 154.85 252.743 154.85ZM285.961 114.35H289.211V119C289.211 122.233 290.328 125.2 292.561 127.9C294.828 130.567 297.428 132.733 300.361 134.4C300.894 134.733 300.944 135.283 300.511 136.05C300.044 136.883 299.544 137.133 299.011 136.8C295.511 134.967 292.461 132.517 289.861 129.45C288.928 128.35 288.161 127.2 287.561 126C286.961 127.267 286.194 128.5 285.261 129.7C282.661 132.933 279.611 135.467 276.111 137.3C275.578 137.633 275.094 137.383 274.661 136.55C274.194 135.783 274.244 135.217 274.811 134.85C277.711 133.217 280.294 130.983 282.561 128.15C284.828 125.283 285.961 122.233 285.961 119V114.35ZM283.261 153.85V141.85H286.411V152.95C286.411 153.55 286.694 153.85 287.261 153.85H310.461C310.894 153.85 311.111 154.133 311.111 154.7C311.111 155.967 310.728 156.6 309.961 156.6H285.961C284.161 156.6 283.261 155.683 283.261 153.85ZM310.561 139.95C310.561 142.217 309.944 143.35 308.711 143.35H308.261C307.694 143.35 307.411 143.067 307.411 142.5V113.1H310.561V139.95ZM331.929 113.85C333.562 113.85 335.079 114.15 336.479 114.75C337.879 115.35 339.062 116.117 340.029 117.05C340.962 117.983 341.679 119.133 342.179 120.5C342.679 121.833 342.929 123.233 342.929 124.7C342.929 126.233 342.679 127.683 342.179 129.05C341.679 130.383 340.962 131.517 340.029 132.45C339.062 133.417 337.879 134.2 336.479 134.8C335.079 135.4 333.562 135.7 331.929 135.7C330.262 135.7 328.745 135.4 327.379 134.8C326.012 134.2 324.845 133.417 323.879 132.45C322.879 131.517 322.129 130.383 321.629 129.05C321.129 127.683 320.879 126.233 320.879 124.7C320.879 123.233 321.129 121.833 321.629 120.5C322.129 119.133 322.879 117.983 323.879 117.05C324.845 116.117 326.012 115.35 327.379 114.75C328.745 114.15 330.262 113.85 331.929 113.85ZM331.879 132.95C332.945 132.95 333.962 132.75 334.929 132.35C335.895 131.917 336.729 131.317 337.429 130.55C338.129 129.817 338.695 128.917 339.129 127.85C339.562 126.783 339.779 125.733 339.779 124.7C339.779 123.633 339.562 122.583 339.129 121.55C338.695 120.517 338.129 119.633 337.429 118.9C336.729 118.2 335.895 117.65 334.929 117.25C333.962 116.817 332.945 116.6 331.879 116.6C330.745 116.6 329.679 116.817 328.679 117.25C327.712 117.65 326.879 118.2 326.179 118.9C325.479 119.633 324.945 120.517 324.579 121.55C324.212 122.583 324.029 123.633 324.029 124.7C324.029 125.733 324.212 126.783 324.579 127.85C324.945 128.917 325.479 129.817 326.179 130.55C326.879 131.317 327.712 131.917 328.679 132.35C329.679 132.75 330.745 132.95 331.879 132.95ZM353.579 153.7C353.579 155.967 352.962 157.1 351.729 157.1H351.279C350.712 157.1 350.429 156.817 350.429 156.25V113.1H353.579V153.7ZM347.679 144.35C348.112 144.35 348.329 144.65 348.329 145.25C348.329 146.483 347.945 147.1 347.179 147.1H318.379V144.35H347.679ZM389.486 114.45C391.32 114.45 392.936 114.867 394.336 115.7C395.77 116.533 396.97 117.617 397.936 118.95C398.903 120.283 399.636 121.9 400.136 123.8C400.67 125.667 400.936 127.667 400.936 129.8C400.936 131.867 400.67 133.833 400.136 135.7C399.636 137.567 398.903 139.167 397.936 140.5C396.97 141.867 395.77 142.967 394.336 143.8C392.936 144.633 391.32 145.05 389.486 145.05C387.786 145.05 386.22 144.633 384.786 143.8C383.353 142.967 382.153 141.867 381.186 140.5C380.186 139.167 379.42 137.567 378.886 135.7C378.386 133.833 378.136 131.867 378.136 129.8C378.136 127.667 378.386 125.667 378.886 123.8C379.42 121.9 380.186 120.283 381.186 118.95C382.153 117.617 383.353 116.533 384.786 115.7C386.22 114.867 387.786 114.45 389.486 114.45ZM389.486 139C390.186 139 390.836 138.767 391.436 138.3C392.036 137.8 392.57 137.117 393.036 136.25C393.47 135.383 393.803 134.383 394.036 133.25C394.27 132.083 394.386 130.85 394.386 129.55C394.386 128.283 394.27 127.083 394.036 125.95C393.803 124.817 393.47 123.817 393.036 122.95C392.57 122.117 392.036 121.467 391.436 121C390.836 120.5 390.186 120.25 389.486 120.25C388.82 120.25 388.186 120.5 387.586 121C386.986 121.467 386.47 122.117 386.036 122.95C385.603 123.817 385.27 124.817 385.036 125.95C384.803 127.083 384.686 128.283 384.686 129.55C384.686 130.85 384.803 132.083 385.036 133.25C385.27 134.383 385.603 135.383 386.036 136.25C386.47 137.117 386.986 137.8 387.586 138.3C388.186 138.767 388.82 139 389.486 139ZM412.236 150.8C412.236 155.333 410.936 157.6 408.336 157.6H407.386C406.22 157.6 405.636 157.017 405.636 155.85V112.6H412.236V126.25H417.586C418.453 126.25 418.886 126.867 418.886 128.1C418.886 130.7 418.086 132 416.486 132H412.236V150.8ZM422.356 144.1V138.6H425.906V121.85H432.456V138.6H436.956V121.85H443.456V138.6H447.106C447.939 138.6 448.356 139.183 448.356 140.35C448.356 142.85 447.556 144.1 445.956 144.1H422.356ZM422.606 120.35V114.85H446.306C447.173 114.85 447.606 115.433 447.606 116.6C447.606 119.1 446.806 120.35 445.206 120.35H422.606ZM457.306 150.8C457.306 155.333 455.989 157.6 453.356 157.6H452.456C451.256 157.6 450.656 157.017 450.656 155.85V112.6H457.306V126.25H462.656C463.489 126.25 463.906 126.867 463.906 128.1C463.906 130.7 463.106 132 461.506 132H457.306V150.8ZM471.225 113.85H499.425C500.292 113.85 500.725 114.4 500.725 115.5C500.725 118.067 499.925 119.35 498.325 119.35H477.875V123.5H498.425C499.259 123.5 499.675 124.033 499.675 125.1C499.675 127.667 498.875 128.95 497.275 128.95H477.875V132C477.875 132.833 478.292 133.25 479.125 133.25H500.475C501.309 133.25 501.725 133.8 501.725 134.9C501.725 137.467 500.925 138.75 499.325 138.75H476.825C473.092 138.75 471.225 136.917 471.225 133.25V113.85ZM506.925 144.15C507.325 145.083 507.375 145.967 507.075 146.8C506.809 147.633 506.159 148.233 505.125 148.6C504.492 148.9 503.542 149.233 502.275 149.6C501.009 149.933 499.542 150.25 497.875 150.55C496.175 150.85 494.325 151.1 492.325 151.3C490.359 151.5 488.342 151.6 486.275 151.6C484.242 151.6 482.209 151.5 480.175 151.3C478.142 151.1 476.275 150.85 474.575 150.55C472.842 150.25 471.292 149.933 469.925 149.6C468.592 149.233 467.592 148.9 466.925 148.6C465.959 148.3 465.309 147.717 464.975 146.85C464.675 145.983 464.792 145.083 465.325 144.15C465.592 143.717 465.942 143.433 466.375 143.3C466.809 143.167 467.242 143.1 467.675 143.1C468.109 143.133 468.542 143.217 468.975 143.35C469.442 143.45 469.892 143.55 470.325 143.65C470.692 143.783 471.342 143.967 472.275 144.2C473.209 144.433 474.359 144.667 475.725 144.9C477.092 145.133 478.659 145.333 480.425 145.5C482.225 145.667 484.175 145.75 486.275 145.75C488.542 145.75 490.509 145.667 492.175 145.5C493.875 145.3 495.325 145.067 496.525 144.8C497.692 144.567 498.659 144.333 499.425 144.1C500.192 143.867 500.792 143.683 501.225 143.55C501.625 143.45 502.092 143.35 502.625 143.25C503.159 143.117 503.709 143.033 504.275 143C504.809 142.967 505.309 143.033 505.775 143.2C506.275 143.367 506.659 143.683 506.925 144.15ZM530.485 113.1H560.335C561.168 113.1 561.585 113.683 561.585 114.85C561.585 117.35 560.785 118.6 559.185 118.6H537.085V122.05C537.085 123.217 537.685 123.8 538.885 123.8H561.335C562.168 123.8 562.585 124.383 562.585 125.55C562.585 128.05 561.802 129.3 560.235 129.3H536.085C532.352 129.3 530.485 127.467 530.485 123.8V113.1ZM524.885 132.3H565.935C566.768 132.3 567.185 132.917 567.185 134.15C567.185 136.583 566.385 137.8 564.785 137.8H524.885V132.3ZM546.035 140.15C548.268 140.15 550.285 140.4 552.085 140.9C553.918 141.4 555.468 142.05 556.735 142.85C558.002 143.65 558.952 144.617 559.585 145.75C560.252 146.85 560.585 148.033 560.585 149.3C560.585 150.567 560.252 151.75 559.585 152.85C558.952 153.95 558.002 154.917 556.735 155.75C555.468 156.55 553.918 157.2 552.085 157.7C550.285 158.2 548.268 158.45 546.035 158.45C543.835 158.45 541.818 158.2 539.985 157.7C538.185 157.2 536.652 156.55 535.385 155.75C534.085 154.917 533.102 153.95 532.435 152.85C531.802 151.75 531.485 150.567 531.485 149.3C531.485 148.033 531.802 146.85 532.435 145.75C533.102 144.617 534.085 143.65 535.385 142.85C536.652 142.05 538.185 141.4 539.985 140.9C541.818 140.4 543.835 140.15 546.035 140.15ZM546.035 153.1C547.168 153.1 548.218 153 549.185 152.8C550.185 152.6 551.052 152.333 551.785 152C552.485 151.633 553.035 151.217 553.435 150.75C553.868 150.283 554.085 149.783 554.085 149.25C554.085 148.75 553.868 148.267 553.435 147.8C553.035 147.333 552.485 146.933 551.785 146.6C551.052 146.267 550.185 146 549.185 145.8C548.218 145.6 547.168 145.5 546.035 145.5C544.868 145.5 543.785 145.6 542.785 145.8C541.818 146 540.968 146.267 540.235 146.6C539.502 146.933 538.935 147.333 538.535 147.8C538.168 148.267 537.985 148.75 537.985 149.25C537.985 149.783 538.168 150.283 538.535 150.75C538.935 151.217 539.502 151.633 540.235 152C540.968 152.333 541.818 152.6 542.785 152.8C543.785 153 544.868 153.1 546.035 153.1ZM598.005 128.35C599.305 124.183 599.955 120.933 599.955 118.6H575.955V113.1H603.805C605.671 113.1 606.605 114.017 606.605 115.85V117.95C606.605 120.383 605.871 123.283 604.405 126.65C603.938 127.783 603.088 128.35 601.855 128.35H598.005ZM569.905 130H610.955C611.788 130 612.205 130.583 612.205 131.75C612.205 134.117 611.405 135.3 609.805 135.3H569.905V130ZM582.655 138.35V143.05H599.455V138.35H606.105V147.95C606.105 154.217 604.505 157.35 601.305 157.35H581.605C577.871 157.35 576.005 155.517 576.005 151.85V138.35H582.655ZM584.405 152.05H598.005C598.971 152.05 599.455 151.033 599.455 149V148.25H582.655V150.3C582.655 151.467 583.238 152.05 584.405 152.05ZM635.124 112.1C637.424 112.1 639.541 112.317 641.474 112.75C643.441 113.183 645.091 113.75 646.424 114.45C647.758 115.15 648.758 116 649.424 117C650.091 117.967 650.424 119 650.424 120.1C650.424 121.2 650.091 122.233 649.424 123.2C648.758 124.167 647.758 125 646.424 125.7C645.091 126.433 643.441 127.017 641.474 127.45C639.541 127.883 637.424 128.1 635.124 128.1C632.791 128.1 630.658 127.883 628.724 127.45C626.824 127.017 625.191 126.433 623.824 125.7C622.458 125 621.424 124.167 620.724 123.2C620.024 122.233 619.674 121.2 619.674 120.1C619.674 119 620.024 117.967 620.724 117C621.424 116 622.458 115.15 623.824 114.45C625.191 113.75 626.824 113.183 628.724 112.75C630.658 112.317 632.791 112.1 635.124 112.1ZM635.024 125.35C636.691 125.35 638.274 125.217 639.774 124.95C641.308 124.683 642.624 124.3 643.724 123.8C644.791 123.333 645.641 122.767 646.274 122.1C646.941 121.4 647.274 120.733 647.274 120.1C647.274 119.367 646.941 118.683 646.274 118.05C645.641 117.383 644.791 116.817 643.724 116.35C642.624 115.883 641.308 115.517 639.774 115.25C638.274 114.983 636.691 114.85 635.024 114.85C633.224 114.85 631.574 114.983 630.074 115.25C628.574 115.517 627.291 115.883 626.224 116.35C625.158 116.817 624.324 117.383 623.724 118.05C623.124 118.683 622.824 119.367 622.824 120.1C622.824 120.733 623.124 121.4 623.724 122.1C624.324 122.767 625.158 123.333 626.224 123.8C627.291 124.3 628.574 124.683 630.074 124.95C631.574 125.217 633.224 125.35 635.024 125.35ZM654.674 131.95C655.074 131.95 655.274 132.25 655.274 132.85C655.274 134.05 654.891 134.65 654.124 134.65H614.874V131.95H654.674ZM620.624 146.5H645.874C646.208 146.5 646.374 146.217 646.374 145.65V142.05H620.624V139.35H648.174C649.074 139.35 649.524 139.8 649.524 140.7V144.85C649.524 147.717 648.841 149.15 647.474 149.15H623.774V153.25C623.774 153.683 623.974 153.9 624.374 153.9H649.474C649.841 153.9 650.024 154.183 650.024 154.75C650.024 155.983 649.641 156.6 648.874 156.6H623.274C621.508 156.6 620.624 155.683 620.624 153.85V146.5ZM275.247 180.35H285.897V176.35H289.047V180.35H298.997C299.431 180.35 299.647 180.633 299.647 181.2C299.647 182.433 299.264 183.05 298.497 183.05H293.697C294.164 183.283 294.564 183.533 294.897 183.8C295.831 184.467 296.514 185.283 296.947 186.25C297.381 187.183 297.597 188.167 297.597 189.2C297.597 190.267 297.381 191.267 296.947 192.2C296.514 193.1 295.847 193.9 294.947 194.6C294.047 195.3 292.947 195.85 291.647 196.25C290.781 196.517 289.881 196.7 288.947 196.8V201.8H302.197C302.631 201.8 302.847 202.1 302.847 202.7C302.847 203.933 302.464 204.55 301.697 204.55H273.447V201.8H285.797V196.8C284.864 196.7 283.981 196.517 283.147 196.25C281.881 195.85 280.797 195.3 279.897 194.6C278.997 193.9 278.314 193.083 277.847 192.15C277.347 191.25 277.097 190.267 277.097 189.2C277.097 188.167 277.331 187.183 277.797 186.25C278.297 185.283 278.997 184.467 279.897 183.8C280.264 183.533 280.664 183.283 281.097 183.05H275.247V180.35ZM287.347 194.1C288.347 194.1 289.281 193.967 290.147 193.7C291.014 193.433 291.764 193.05 292.397 192.55C292.997 192.083 293.481 191.517 293.847 190.85C294.247 190.15 294.447 189.45 294.447 188.75C294.447 188.05 294.247 187.367 293.847 186.7C293.481 186.033 292.997 185.467 292.397 185C291.764 184.567 291.014 184.217 290.147 183.95C289.281 183.683 288.347 183.55 287.347 183.55C286.314 183.55 285.347 183.683 284.447 183.95C283.581 184.217 282.831 184.567 282.197 185C281.564 185.467 281.081 186.033 280.747 186.7C280.414 187.367 280.247 188.05 280.247 188.75C280.247 189.45 280.414 190.15 280.747 190.85C281.081 191.517 281.564 192.083 282.197 192.55C282.831 193.05 283.581 193.433 284.447 193.7C285.347 193.967 286.314 194.1 287.347 194.1ZM308.097 203.95C308.097 206.217 307.481 207.35 306.247 207.35H305.797C305.231 207.35 304.947 207.067 304.947 206.5V178.1H308.097V188.45H314.797C315.231 188.45 315.447 188.75 315.447 189.35C315.447 190.65 315.064 191.3 314.297 191.3H308.097V203.95ZM304.997 212.1H281.847V209.35H306.797C307.664 209.35 308.097 209.817 308.097 210.75V218.7C308.097 220.967 307.481 222.1 306.247 222.1H305.847C305.281 222.1 304.997 221.8 304.997 221.2V212.1ZM328.715 178.85C330.348 178.85 331.865 179.167 333.265 179.8C334.665 180.433 335.848 181.25 336.815 182.25C337.748 183.25 338.448 184.483 338.915 185.95C339.415 187.383 339.665 188.883 339.665 190.45C339.665 192.083 339.415 193.633 338.915 195.1C338.448 196.533 337.748 197.75 336.815 198.75C335.848 199.783 334.665 200.617 333.265 201.25C331.865 201.883 330.348 202.2 328.715 202.2C327.048 202.2 325.532 201.883 324.165 201.25C322.798 200.617 321.632 199.783 320.665 198.75C319.665 197.75 318.898 196.533 318.365 195.1C317.865 193.633 317.615 192.083 317.615 190.45C317.615 188.883 317.865 187.383 318.365 185.95C318.898 184.483 319.665 183.25 320.665 182.25C321.632 181.25 322.798 180.433 324.165 179.8C325.532 179.167 327.048 178.85 328.715 178.85ZM328.665 199.45C329.698 199.45 330.698 199.233 331.665 198.8C332.665 198.333 333.515 197.683 334.215 196.85C334.915 196.05 335.465 195.067 335.865 193.9C336.298 192.733 336.515 191.583 336.515 190.45C336.515 189.283 336.298 188.133 335.865 187C335.465 185.867 334.915 184.9 334.215 184.1C333.515 183.333 332.665 182.733 331.665 182.3C330.698 181.833 329.698 181.6 328.665 181.6C327.532 181.6 326.465 181.833 325.465 182.3C324.465 182.733 323.615 183.333 322.915 184.1C322.215 184.9 321.682 185.867 321.315 187C320.948 188.133 320.765 189.283 320.765 190.45C320.765 191.583 320.948 192.733 321.315 193.9C321.682 195.067 322.215 196.05 322.915 196.85C323.615 197.683 324.465 198.333 325.465 198.8C326.465 199.233 327.532 199.45 328.665 199.45ZM352.015 204.95C352.015 207.217 351.398 208.35 350.165 208.35H349.715C349.148 208.35 348.865 208.067 348.865 207.5V178.1H352.015V204.95ZM324.715 218.85V206.85H327.865V217.95C327.865 218.55 328.148 218.85 328.715 218.85H351.915C352.348 218.85 352.565 219.133 352.565 219.7C352.565 220.967 352.182 221.6 351.415 221.6H327.415C325.615 221.6 324.715 220.683 324.715 218.85ZM369.882 190.1C371.282 190.1 372.566 190.383 373.732 190.95C374.899 191.483 375.882 192.2 376.682 193.1C377.449 194.033 378.032 195.167 378.432 196.5C378.832 197.8 379.032 199.15 379.032 200.55C379.032 202.017 378.832 203.4 378.432 204.7C378.032 205.967 377.449 207.067 376.682 208C375.882 208.967 374.899 209.733 373.732 210.3C372.566 210.833 371.282 211.1 369.882 211.1C368.482 211.1 367.216 210.833 366.082 210.3C364.949 209.733 363.982 208.967 363.182 208C362.382 207.067 361.766 205.967 361.332 204.7C360.899 203.4 360.682 202.017 360.682 200.55C360.682 199.15 360.899 197.8 361.332 196.5C361.766 195.167 362.382 194.033 363.182 193.1C363.982 192.2 364.949 191.483 366.082 190.95C367.216 190.383 368.482 190.1 369.882 190.1ZM369.832 208.35C370.699 208.35 371.499 208.167 372.232 207.8C372.966 207.4 373.599 206.817 374.132 206.05C374.666 205.317 375.082 204.467 375.382 203.5C375.716 202.533 375.882 201.55 375.882 200.55C375.882 199.517 375.716 198.517 375.382 197.55C375.082 196.55 374.666 195.7 374.132 195C373.599 194.333 372.966 193.817 372.232 193.45C371.499 193.05 370.699 192.85 369.832 192.85C368.932 192.85 368.116 193.05 367.382 193.45C366.649 193.817 366.016 194.333 365.482 195C364.949 195.7 364.532 196.55 364.232 197.55C363.966 198.517 363.832 199.517 363.832 200.55C363.832 201.55 363.966 202.533 364.232 203.5C364.532 204.467 364.949 205.317 365.482 206.05C366.016 206.817 366.649 207.4 367.382 207.8C368.116 208.167 368.932 208.35 369.832 208.35ZM359.282 183.85H368.382V178.35H371.532V183.85H379.932C380.366 183.85 380.582 184.133 380.582 184.7C380.582 185.967 380.182 186.6 379.382 186.6H359.282V183.85ZM396.382 218.7C396.382 220.967 395.799 222.1 394.632 222.1H394.182C393.616 222.1 393.332 221.817 393.332 221.25V195.3H386.932V217.7C386.932 219.967 386.349 221.1 385.182 221.1H384.732C384.166 221.1 383.882 220.817 383.882 220.25V178.1H386.932V192.45H393.332V178.1H396.382V218.7ZM410.45 179.85V187.25H432.5V179.85H435.65V195.95C435.65 199.083 434.9 200.65 433.4 200.65H409.95C408.183 200.65 407.3 199.733 407.3 197.9V179.85H410.45ZM411.3 197.9H431.85C432.283 197.9 432.5 197.417 432.5 196.45V190H410.45V197.05C410.45 197.617 410.733 197.9 411.3 197.9ZM423.05 202.6V210.8H441.1C441.5 210.8 441.7 211.1 441.7 211.7C441.7 213 441.317 213.65 440.55 213.65H401.3V210.8H419.9V202.6H423.05ZM463.568 191.35H470.368V178.1H473.518V217.7C473.518 219.967 472.901 221.1 471.668 221.1H471.218C470.651 221.1 470.368 220.817 470.368 220.25V194.1H463.568V191.35ZM453.768 179.85H456.918V187C456.918 191.567 457.768 195.367 459.468 198.4C461.168 201.4 463.568 204.083 466.668 206.45C467.101 206.85 467.034 207.4 466.468 208.1C465.934 208.867 465.434 209.05 464.968 208.65C461.534 206.25 458.818 203.35 456.818 199.95C456.251 198.983 455.768 197.95 455.368 196.85C454.934 198.017 454.434 199.133 453.868 200.2C451.901 203.767 449.201 206.75 445.768 209.15C445.234 209.55 444.718 209.367 444.218 208.6C443.651 207.867 443.634 207.3 444.168 206.9C447.168 204.567 449.518 201.817 451.218 198.65C452.918 195.45 453.768 191.567 453.768 187V179.85ZM482.468 218.7C482.468 220.967 481.851 222.1 480.618 222.1H480.118C479.584 222.1 479.318 221.817 479.318 221.25V178.1H482.468V218.7ZM507.585 178.85C509.818 178.85 511.868 179.133 513.735 179.7C515.635 180.267 517.218 181.017 518.485 181.95C519.752 182.883 520.702 184.017 521.335 185.35C522.002 186.65 522.335 188.017 522.335 189.45C522.335 190.917 522.002 192.3 521.335 193.6C520.702 194.9 519.752 196.017 518.485 196.95C517.218 197.917 515.635 198.683 513.735 199.25C511.868 199.817 509.818 200.1 507.585 200.1C505.318 200.1 503.268 199.817 501.435 199.25C499.602 198.683 498.035 197.917 496.735 196.95C495.402 196.017 494.385 194.9 493.685 193.6C493.018 192.3 492.685 190.917 492.685 189.45C492.685 188.017 493.018 186.65 493.685 185.35C494.385 184.017 495.402 182.883 496.735 181.95C498.035 181.017 499.602 180.267 501.435 179.7C503.268 179.133 505.318 178.85 507.585 178.85ZM507.485 197.35C509.085 197.35 510.602 197.15 512.035 196.75C513.468 196.35 514.718 195.783 515.785 195.05C516.818 194.35 517.635 193.483 518.235 192.45C518.868 191.417 519.185 190.417 519.185 189.45C519.185 188.383 518.868 187.367 518.235 186.4C517.635 185.4 516.818 184.55 515.785 183.85C514.718 183.15 513.468 182.6 512.035 182.2C510.602 181.8 509.085 181.6 507.485 181.6C505.752 181.6 504.168 181.8 502.735 182.2C501.302 182.6 500.085 183.15 499.085 183.85C498.052 184.55 497.252 185.4 496.685 186.4C496.118 187.367 495.835 188.383 495.835 189.45C495.835 190.417 496.118 191.417 496.685 192.45C497.252 193.483 498.052 194.35 499.085 195.05C500.085 195.783 501.302 196.35 502.735 196.75C504.168 197.15 505.752 197.35 507.485 197.35ZM501.735 200.85V210.8H513.285V200.85H516.435V210.8H527.135C527.535 210.8 527.735 211.1 527.735 211.7C527.735 213 527.352 213.65 526.585 213.65H487.335V210.8H498.585V200.85H501.735Z" fill="white"/>
<path d="M349.073 58.553C349.073 56.2139 350.965 54.3177 353.3 54.3177H371.053C373.388 54.3177 375.28 56.2139 375.28 58.553V76.7648C375.28 79.1039 373.388 81.0001 371.053 81.0001H353.3C350.965 81.0001 349.073 79.1039 349.073 76.7648V58.553Z" fill="url(#paint4_linear)"/>
<path fill-rule="evenodd" clip-rule="evenodd" d="M362.174 45C361.2 44.9994 360.225 45.3715 359.482 46.1164L345.114 60.5118C343.629 62.0003 343.629 64.4138 345.114 65.9024C346.6 67.391 349.009 67.391 350.494 65.9024L362.174 54.2001L373.854 65.9024C375.339 67.391 377.748 67.391 379.234 65.9024C380.72 64.4138 380.72 62.0003 379.234 60.5118L364.867 46.1164C364.123 45.3716 363.149 44.9994 362.174 45Z" fill="url(#paint5_linear)"/>
<path d="M376.337 51.353C376.337 53.926 374.255 56.0118 371.687 56.0118C369.119 56.0118 367.038 53.926 367.038 51.353C367.038 48.78 369.119 46.6942 371.687 46.6942C374.255 46.6942 376.337 48.78 376.337 51.353Z" fill="url(#paint6_linear)"/>
<path d="M384.36 53.6463H396.552C397.038 53.6463 397.281 54.0068 397.281 54.7276C397.281 56.1109 396.814 56.8025 395.881 56.8025H392.614V57.6207C392.614 58.3221 393.042 59.1696 393.898 60.1632C394.753 61.1373 395.871 62.014 397.252 62.7933C397.932 63.2804 398.01 63.9428 397.485 64.7805C396.882 65.7157 396.241 65.9884 395.56 65.5988C393.596 64.6636 392.002 63.5044 390.777 62.1212C389.61 63.6603 388.016 64.9656 385.993 66.0371C385.313 66.4268 384.681 66.154 384.098 65.2189C383.553 64.3811 383.621 63.7187 384.302 63.2317C385.682 62.355 386.752 61.3808 387.51 60.3093C388.268 59.2183 388.648 58.3221 388.648 57.6207V56.8025H384.36V53.6463ZM404.164 62.2381C404.164 64.8877 403.396 66.2125 401.86 66.2125H401.335C400.635 66.2125 400.285 65.8715 400.285 65.1896V52.6235H404.164V62.2381ZM391.214 67.2353V70.1576H400.285V67.2353H404.164V73.1384C404.164 76.8011 403.231 78.6325 401.364 78.6325H390.631C388.453 78.6325 387.364 77.5609 387.364 75.4179V67.2353H391.214ZM392.264 75.5055H399.439C400.003 75.5055 400.285 74.9308 400.285 73.7814V73.2261H391.214V74.4827C391.214 75.1646 391.564 75.5055 392.264 75.5055Z" fill="white"/>
<path d="M405.197 64.7513H429.143C429.629 64.7513 429.872 65.1117 429.872 65.8326C429.872 67.2548 429.405 67.9659 428.472 67.9659H420.276V70.1869C420.276 72.252 419.605 73.2846 418.263 73.2846H417.447C416.747 73.2846 416.397 72.9436 416.397 72.2617V67.9659H405.197V64.7513ZM415.551 52.6235H419.518V53.2957C419.518 54.9517 420.13 56.2472 421.355 57.1824C422.58 58.1175 424.437 58.9553 426.926 59.6956C427.665 59.9294 427.85 60.5236 427.48 61.4783C427.052 62.4913 426.479 62.9102 425.759 62.7349C422.201 61.6439 419.615 60.397 418.001 58.9942C417.826 58.8384 417.67 58.6825 417.534 58.5267L417.068 58.9942C415.454 60.397 412.867 61.6341 409.309 62.7056C408.59 62.9005 408.016 62.4913 407.588 61.4783C407.219 60.5236 407.404 59.9197 408.142 59.6664C410.631 58.9455 412.488 58.1175 413.713 57.1824C414.938 56.2472 415.551 54.9517 415.551 53.2957V52.6235ZM408.755 75.2718V70.4499H412.634V74.2489C412.634 74.9308 412.974 75.2718 413.655 75.2718H426.022C426.508 75.2718 426.751 75.6127 426.751 76.2946C426.751 77.7558 426.284 78.4863 425.351 78.4863H412.022C409.844 78.4863 408.755 77.4148 408.755 75.2718Z" fill="white"/>
<path d="M437.875 53.208C438.925 53.208 439.868 53.3736 440.704 53.7048C441.54 54.0165 442.24 54.4159 442.804 54.903C443.368 55.4095 443.796 56.0232 444.087 56.744C444.399 57.4649 444.554 58.2344 444.554 59.0527C444.554 59.8515 444.399 60.6113 444.087 61.3321C443.796 62.0335 443.368 62.6375 442.804 63.144C442.24 63.6505 441.54 64.0694 440.704 64.4006C439.868 64.7123 438.925 64.8682 437.875 64.8682C436.883 64.8682 435.969 64.7123 435.133 64.4006C434.297 64.0694 433.587 63.6505 433.004 63.144C432.421 62.6375 431.983 62.0335 431.692 61.3321C431.4 60.6113 431.254 59.8515 431.254 59.0527C431.254 58.2344 431.4 57.4649 431.692 56.744C431.983 56.0232 432.421 55.4095 433.004 54.903C433.587 54.4159 434.297 54.0165 435.133 53.7048C435.969 53.3736 436.883 53.208 437.875 53.208ZM437.875 61.6244C438.283 61.6244 438.662 61.5659 439.012 61.449C439.382 61.3127 439.712 61.1178 440.004 60.8646C440.296 60.6308 440.51 60.3483 440.646 60.0171C440.782 59.6664 440.85 59.306 440.85 58.9358C440.85 58.6046 440.782 58.2637 440.646 57.913C440.51 57.5623 440.296 57.2701 440.004 57.0363C439.712 56.8025 439.382 56.6271 439.012 56.5103C438.662 56.3739 438.283 56.3057 437.875 56.3057C437.486 56.3057 437.107 56.3739 436.737 56.5103C436.368 56.6271 436.047 56.8025 435.775 57.0363C435.503 57.2701 435.289 57.5623 435.133 57.913C434.997 58.2637 434.929 58.6046 434.929 58.9358C434.929 59.306 434.997 59.6664 435.133 60.0171C435.289 60.3483 435.503 60.6308 435.775 60.8646C436.047 61.1178 436.368 61.3127 436.737 61.449C437.107 61.5659 437.486 61.6244 437.875 61.6244ZM451 74.9503C451 77.5999 450.242 78.9247 448.725 78.9247H448.171C447.471 78.9247 447.121 78.5838 447.121 77.9019V52.6235H451V74.9503ZM430.029 66.5339H445.196C445.701 66.5339 445.954 66.8943 445.954 67.6152C445.954 69.0374 445.487 69.7485 444.554 69.7485H440.15V74.6581C440.15 77.3077 439.382 78.6325 437.846 78.6325H437.321C436.621 78.6325 436.271 78.2915 436.271 77.6096V69.7485H430.029V66.5339Z" fill="white"/>
<defs>
<filter id="filter0_d" x="112.324" y="272.245" width="23.7574" height="23.7465" filterUnits="userSpaceOnUse" color-interpolation-filters="sRGB">
<feFlood flood-opacity="0" result="BackgroundImageFix"/>
<feColorMatrix in="SourceAlpha" type="matrix" values="0 0 0 0 0 0 0 0 0 0 0 0 0 0 0 0 0 0 127 0"/>
<feOffset/>
<feGaussianBlur stdDeviation="4.97538"/>
<feColorMatrix type="matrix" values="0 0 0 0 1 0 0 0 0 1 0 0 0 0 1 0 0 0 0.25 0"/>
<feBlend mode="normal" in2="BackgroundImageFix" result="effect1_dropShadow"/>
<feBlend mode="normal" in="SourceGraphic" in2="effect1_dropShadow" result="shape"/>
</filter>
<filter id="filter1_d" x="99.504" y="264.202" width="22.7959" height="22.8003" filterUnits="userSpaceOnUse" color-interpolation-filters="sRGB">
<feFlood flood-opacity="0" result="BackgroundImageFix"/>
<feColorMatrix in="SourceAlpha" type="matrix" values="0 0 0 0 0 0 0 0 0 0 0 0 0 0 0 0 0 0 127 0"/>
<feOffset/>
<feGaussianBlur stdDeviation="4.97538"/>
<feColorMatrix type="matrix" values="0 0 0 0 1 0 0 0 0 1 0 0 0 0 1 0 0 0 0.25 0"/>
<feBlend mode="normal" in2="BackgroundImageFix" result="effect1_dropShadow"/>
<feBlend mode="normal" in="SourceGraphic" in2="effect1_dropShadow" result="shape"/>
</filter>
<filter id="filter2_d" x="248.068" y="269.33" width="33.5412" height="33.5412" filterUnits="userSpaceOnUse" color-interpolation-filters="sRGB">
<feFlood flood-opacity="0" result="BackgroundImageFix"/>
<feColorMatrix in="SourceAlpha" type="matrix" values="0 0 0 0 0 0 0 0 0 0 0 0 0 0 0 0 0 0 127 0"/>
<feOffset/>
<feGaussianBlur stdDeviation="7.70833"/>
<feColorMatrix type="matrix" values="0 0 0 0 1 0 0 0 0 1 0 0 0 0 1 0 0 0 0.25 0"/>
<feBlend mode="normal" in2="BackgroundImageFix" result="effect1_dropShadow"/>
<feBlend mode="normal" in="SourceGraphic" in2="effect1_dropShadow" result="shape"/>
</filter>
<filter id="filter3_d" x="228.178" y="303.739" width="35.3293" height="35.3293" filterUnits="userSpaceOnUse" color-interpolation-filters="sRGB">
<feFlood flood-opacity="0" result="BackgroundImageFix"/>
<feColorMatrix in="SourceAlpha" type="matrix" values="0 0 0 0 0 0 0 0 0 0 0 0 0 0 0 0 0 0 127 0"/>
<feOffset/>
<feGaussianBlur stdDeviation="7.70833"/>
<feColorMatrix type="matrix" values="0 0 0 0 1 0 0 0 0 1 0 0 0 0 1 0 0 0 0.25 0"/>
<feBlend mode="normal" in2="BackgroundImageFix" result="effect1_dropShadow"/>
<feBlend mode="normal" in="SourceGraphic" in2="effect1_dropShadow" result="shape"/>
</filter>
<radialGradient id="paint0_radial" cx="0" cy="0" r="1" gradientUnits="userSpaceOnUse" gradientTransform="translate(123.882 284.434) rotate(90) scale(4.41567 4.48689)">
<stop stop-color="white"/>
<stop offset="1" stop-color="white" stop-opacity="0"/>
</radialGradient>
<radialGradient id="paint1_radial" cx="0" cy="0" r="1" gradientUnits="userSpaceOnUse" gradientTransform="translate(110.662 275.839) rotate(90) scale(4.02142 4.08628)">
<stop stop-color="white"/>
<stop offset="1" stop-color="white" stop-opacity="0"/>
</radialGradient>
<radialGradient id="paint2_radial" cx="0" cy="0" r="1" gradientUnits="userSpaceOnUse" gradientTransform="translate(264.586 286.353) rotate(90) scale(4.28674)">
<stop stop-color="white"/>
<stop offset="1" stop-color="white" stop-opacity="0"/>
</radialGradient>
<radialGradient id="paint3_radial" cx="0" cy="0" r="1" gradientUnits="userSpaceOnUse" gradientTransform="translate(245.506 321.74) rotate(90) scale(6.05186)">
<stop stop-color="white"/>
<stop offset="1" stop-color="white" stop-opacity="0"/>
</radialGradient>
<linearGradient id="paint4_linear" x1="362.176" y1="54.3177" x2="362.176" y2="81.0001" gradientUnits="userSpaceOnUse">
<stop stop-color="white"/>
<stop offset="1" stop-color="#EDEDED"/>
</linearGradient>
<linearGradient id="paint5_linear" x1="354.049" y1="48.5035" x2="372.684" y2="67.1026" gradientUnits="userSpaceOnUse">
<stop stop-color="#5CABF4"/>
<stop offset="1" stop-color="#298FEE"/>
</linearGradient>
<linearGradient id="paint6_linear" x1="372.321" y1="47.9648" x2="372.321" y2="57.2824" gradientUnits="userSpaceOnUse">
<stop stop-color="#FFD056"/>
<stop offset="1" stop-color="#E9A800"/>
</linearGradient>
</defs>
</svg>
