<svg width="45" height="45" viewBox="0 0 45 45" fill="none" xmlns="http://www.w3.org/2000/svg">
<path fill-rule="evenodd" clip-rule="evenodd" d="M8.35662 29.7602C2.44618 23.8498 2.44618 14.2671 8.35662 8.35662C14.2671 2.44618 23.8498 2.44618 29.7602 8.35662C35.6706 14.2671 35.6706 23.8498 29.7602 29.7602C23.8498 35.6706 14.2671 35.6706 8.35662 29.7602ZM5.58208 5.58208C-1.86069 13.0248 -1.86069 25.092 5.58208 32.5347C12.6242 39.5768 23.8061 39.9559 31.2939 33.6721L41.651 44.0292C42.4171 44.7954 43.6593 44.7954 44.4255 44.0292C45.1917 43.263 45.1917 42.0208 44.4255 41.2547L34.0279 30.857C39.9389 23.3767 39.4411 12.4885 32.5347 5.58208C25.092 -1.86069 13.0248 -1.86069 5.58208 5.58208Z" fill="#707070"/>
</svg>
